<?xml version="1.0" encoding="UTF-8" standalone="no"?>
<!-- Generator: Adobe Illustrator 21.0.2, SVG Export Plug-In . SVG Version: 6.00 Build 0)  -->

<svg
   xmlns:dc="http://purl.org/dc/elements/1.1/"
   xmlns:cc="http://creativecommons.org/ns#"
   xmlns:rdf="http://www.w3.org/1999/02/22-rdf-syntax-ns#"
   xmlns:svg="http://www.w3.org/2000/svg"
   xmlns="http://www.w3.org/2000/svg"
   xmlns:sodipodi="http://sodipodi.sourceforge.net/DTD/sodipodi-0.dtd"
   xmlns:inkscape="http://www.inkscape.org/namespaces/inkscape"
   version="1.1"
   id="Layer_1"
   x="0px"
   y="0px"
   viewBox="0 0 556.50001 296.20001"
   xml:space="preserve"
   sodipodi:docname="BlazeLogo-1-[1].svg"
   width="556.5"
   height="58"
   inkscape:version="0.92.1 r15371"><metadata
   id="metadata4516"><rdf:RDF><cc:Work
       rdf:about=""><dc:format>image/svg+xml</dc:format><dc:type
         rdf:resource="http://purl.org/dc/dcmitype/StillImage" /><dc:title></dc:title></cc:Work></rdf:RDF></metadata><defs
   id="defs4514">
	
	
</defs><sodipodi:namedview
   pagecolor="#ffffff"
   bordercolor="#666666"
   borderopacity="1"
   objecttolerance="10"
   gridtolerance="10"
   guidetolerance="10"
   inkscape:pageopacity="0"
   inkscape:pageshadow="2"
   inkscape:window-width="1366"
   inkscape:window-height="705"
   id="namedview4512"
   showgrid="false"
   fit-margin-top="0"
   fit-margin-left="0"
   fit-margin-right="0"
   fit-margin-bottom="0"
   inkscape:zoom="0.97475002"
   inkscape:cx="242.44455"
   inkscape:cy="53.877685"
   inkscape:window-x="-8"
   inkscape:window-y="-8"
   inkscape:window-maximized="1"
   inkscape:current-layer="Layer_1" />
<style
   type="text/css"
   id="style4485">
	.st0{fill:#FF4C00;}
	.st1{fill:none;}
</style>
<g
   id="g4487"
   transform="translate(-64.2,-64.2)">
</g>
<g
   id="g4489"
   transform="translate(-64.2,-64.2)">
</g>
<g
   id="g4491"
   transform="translate(-64.2,-64.2)">
</g>
<g
   id="g4493"
   transform="translate(-64.2,-64.2)">
</g>
<g
   id="g4495"
   transform="translate(-64.2,-64.2)">
</g>
<g
   id="g4505"
   transform="translate(-64.2,-64.2)">
		<g
   id="g4501">
			<g
   id="g4499">
				<path
   style="fill:#ff4c00"
   inkscape:connector-curvature="0"
   id="path4497"
   d="M 385.5,97.1 405.3,64.2 H 64.2 v 263.3 h 168.9 l -19.2,32.9 H 620.7 V 97.1 Z M 605.2,345 H 240.8 l 18.7,-32.9 H 79.6 V 79.6 H 378 l -19.8,32.9 H 605.1 V 345 Z"
   class="st0" />
			</g>
		</g>
		<path
   style="fill:#ff4c00"
   inkscape:connector-curvature="0"
   id="path4503"
   d="m 562.2,174.7 7.5,-31 H 488.9 L 463.3,249.9 H 421 l 63.8,-106.2 h -85.5 l -7.5,31 h 38.1 l -58.6,97.6 6.2,-128.6 h -36.7 l -62,106.2 h -36.3 l 25.6,-106.2 h -31.9 l -23.3,95.6 c 3.7,-21.1 -8.1,-26.6 -17.1,-29.4 v 0 c 15.1,-3.5 27.2,-16.8 28.6,-32.6 1.6,-18.5 -12.1,-33.6 -30.6,-33.6 h -50.6 l -33.1,137.2 h 51.7 c 13.2,-0.1 40.6,-6.1 49.4,-34.3 l -8,34.3 h 91.1 l 13,-22.7 h 34.2 l -1.5,22.7 h 202 l 7.5,-31.1 h -54.4 l 5.9,-24.6 h 32.6 l 7.5,-31 h -32.6 l 4.7,-19.5 z m -380.9,61 c -2.9,11.9 -16,14 -18.5,14 h -13.1 l 6.5,-27 h 11.5 c 3.9,-0.1 16.5,1.1 13.6,13 z m 12.3,-53.6 c -1.9,6.7 -8.2,12.1 -14.2,12.1 h -16.3 l 5.8,-24.2 h 17.3 c 6,0 9.3,5.4 7.4,12.1 z m 149.7,45 h -18.5 l 20.9,-36.6 z"
   class="st0" />
	</g><rect
   style="fill:none"
   y="-64.199997"
   x="-64.199997"
   id="rect4507"
   height="424.60001"
   width="684.79999"
   class="st1" />
</svg>