<?xml version="1.0" standalone="no"?>
<!DOCTYPE svg PUBLIC "-//W3C//DTD SVG 20010904//EN"
 "http://www.w3.org/TR/2001/REC-SVG-20010904/DTD/svg10.dtd">
<svg version="1.0" xmlns="http://www.w3.org/2000/svg"
 width="120.000000pt" height="58.000000pt" viewBox="0 0 120.000000 58.000000"
 preserveAspectRatio="xMidYMid meet">
<metadata>
Created by potrace 1.16, written by Peter Selinger 2001-2019
</metadata>
<g transform="translate(0.000000,58.000000) scale(0.100000,-0.100000)"
fill="#000000" stroke="none">
<path d="M528 550 c-131 -70 -108 -278 35 -314 25 -6 27 -4 27 24 0 23 -5 30
-19 30 -25 0 -69 42 -77 75 -16 65 26 145 79 145 12 0 17 8 17 30 0 35 -11 37
-62 10z"/>
<path d="M620 540 c0 -18 5 -30 13 -30 7 0 22 -6 33 -14 18 -14 18 -16 2 -32
-14 -14 -20 -15 -32 -4 -14 11 -16 5 -16 -54 0 -61 2 -67 19 -61 26 8 48 -20
31 -40 -6 -8 -15 -14 -18 -13 -21 2 -30 -5 -34 -26 -8 -41 4 -48 47 -25 65 35
104 93 105 157 0 61 -31 116 -83 147 -56 32 -67 32 -67 -5z"/>
</g>
</svg>
