<?xml version="1.0" encoding="utf-8"?>
<!-- Generator: Adobe Illustrator 22.1.0, SVG Export Plug-In . SVG Version: 6.00 Build 0)  -->
<svg version="1.1" id="Livello_1" xmlns="http://www.w3.org/2000/svg" xmlns:xlink="http://www.w3.org/1999/xlink" x="0px" y="0px"
	 viewBox="0 0 1706 316.2" style="enable-background:new 0 0 1706 316.2;" xml:space="preserve">
<style type="text/css">
	.st0{fill:#D32028;}
</style>
<g>
	<path class="st0" d="M575.5,80.1c0,0-106.9-1.7-107.4,0c-0.6,1.7-41.2,108-41.2,108s-35.1,27.8-76.3,21.2
		c-41.2-6.7-42.3-36.2-42.3-36.2h112.4c0,0,6.7-35.1-10.6-62.9c-17.3-27.8-32.3-30.1-32.3-30.1h-97.4c0,0-36.8,16.7-41.2,67.3v1.7
		c0,0-6.7-20.6-40.1-44.5c-33.4-23.9-77.9-23.9-114.7-23.9C70.7,80.7,0,81.3,0,81.3v234.3c0,0,101.8,0.6,133.6,0.6
		c42.3,0,114.1-25.1,114.4-108c0,0,8.8,13.6,26.1,26.9c25.2,19.2,68.5,37.7,129.4,12.6l-23.9,67.9h88l12.8-37.2h74.6l13.9,36.7h92.4
		L575.5,80.1z M110.2,258.8c-10.6,0-27.3-0.5-27.3-0.5V139.7H108c8.9,0,53.4,6.7,53.4,59C161.4,251,120.8,258.8,110.2,258.8
		 M338.9,105.2c35.6,0,32.5,42.3,32.5,42.3h-65.9C305.5,147.5,300.5,105.2,338.9,105.2 M486.5,232.1l32.8-105.7l33.4,105.7H486.5z"
		/>
	<rect x="993.6" class="st0" width="106.9" height="90.6"/>
	<rect x="993.6" y="107.4" class="st0" width="106.9" height="206.9"/>
	<path class="st0" d="M1573.8,51.7c-37.7,0-71.7,15.8-95.7,41.1l-92.1,92.1l75.6,75.6l2.7-2.7c0,0.1,0.1,0.1,0.1,0.2l90.5-90.5
		c4.6-5.3,11.3-8.6,18.9-8.6c13.8,0,25,11.2,25,25c0,13.8-11.2,25-25,25c-7.3,0-13.8-3.2-18.4-8.1l-75.8,75.8
		c24,24.4,57.3,39.5,94.2,39.5c73,0,132.2-59.2,132.2-132.2S1646.8,51.7,1573.8,51.7"/>
	<path class="st0" d="M1337.5,277.4c26.7-26.7,39.5-61.8,38.6-96.8V1.6h-106.9v3.8c-0.1,0-0.2,0-0.3-0.1v176.9
		c0.5,6.9-1.9,14.1-7.2,19.4c-9.8,9.7-25.6,9.7-35.3,0c-9.8-9.8-9.8-25.6,0-35.3c5.1-5.2,12-7.6,18.7-7.3V51.7
		c-34.2-0.2-68.4,12.7-94.5,38.7c-51.6,51.6-51.6,135.3,0,186.9C1202.2,329,1285.9,329,1337.5,277.4"/>
	<path class="st0" d="M887.4,91.5l91.8-91H872.3l-83,82.2h-1.1V1.1H681.4v314.9h106.9V189.8l49.7,0.1v0c6.9-0.5,14.1,1.9,19.4,7.3
		c5.5,5.5,7.9,12.4,8.1,20.2V316h106.2l0.1-98.7c0.7-34.7-12.2-69.6-38.6-96C919.7,107.9,904.1,98,887.4,91.5"/>
</g>
</svg>
