<?xml version="1.0" encoding="utf-8"?>
<!-- Generator: Adobe Illustrator 22.1.0, SVG Export Plug-In . SVG Version: 6.00 Build 0)  -->
<svg version="1.1" id="Livello_1" xmlns="http://www.w3.org/2000/svg" xmlns:xlink="http://www.w3.org/1999/xlink" x="0px" y="0px"
	 viewBox="0 0 954.8 459.8" style="enable-background:new 0 0 954.8 459.8;" xml:space="preserve">
<style type="text/css">
	.st0{fill-rule:evenodd;clip-rule:evenodd;fill:#5B9CD4;}
	.st1{fill:#FFFFFF;}
	.st2{fill:#5B9CD4;}
</style>
<g>
	<polygon class="st0" points="0,459.8 351.1,459.8 461,350 461,0 110.2,0 0.4,109.8 	"/>
	<path class="st1" d="M246,103.3c0-27.5-23.6-56-59.1-56c-40.7,0-60.8,30.2-60.8,67.8c0,30.9,8,51.1,38.6,63.6l25.4,10.4
		c17.4,7,20.5,11.1,20.5,37.5c0,22.6-1.7,36.9-25.7,36.9c-18.1,0-25-12.5-25-25.4v-11.1h-35.5v13.2c0,33.4,26.1,58.7,60.5,58.7
		c45.9,0,61.2-30.9,61.2-72.7c0-36.2-5.9-56-37.2-67.8l-27.1-10.8c-18.4-7.3-20.2-13.9-20.2-33c0-16.3,4.5-32,24-32
		c18.1,0,25,13.6,25,29.9v8H246L246,103.3L246,103.3z"/>
	<path class="st1" d="M378,226.4h-35.5v12.2c0,19.5-12.5,25-22.2,25c-16,0-21.6-11.1-21.6-25.4V111.6c0-16.7,4.2-28.9,21.9-28.9
		c13.6,0,21.9,11.8,21.9,25.7v11.8H378v-13.9c0-34.4-24.3-59.1-57-59.1c-34.4,0-57.7,24.7-57.7,57v136.3c0,45.2,31.3,58.4,58.4,58.4
		c31.6,0,56.3-26.8,56.3-57.4L378,226.4L378,226.4z"/>
	<rect x="395.8" y="49.4" class="st1" width="35.5" height="247.5"/>
	<path class="st2" d="M920.2,146.3h14.6v-41.2l20-56.3h-15.4l-11.7,38.8h-0.3l-11.7-38.8h-15.4l20,56.3L920.2,146.3L920.2,146.3z
		 M851.3,146.3h14.6v-41.6h8.7l13.6,41.6h15.4l-15.7-44.5c9.3-4.9,12.6-13.1,12.6-24.4c0-18.9-8.4-28.6-25.7-28.6h-23.4L851.3,146.3
		L851.3,146.3z M865.9,61.9h7.6c10.7,0,12.4,5.3,12.4,15.2c0,9.7-1.6,15.2-11.7,15.2h-8.3L865.9,61.9L865.9,61.9z M801.3,146.3h43.4
		v-14h-28.8v-28.6H841V90.6h-25.1V61.9h28.8V48.8h-43.4L801.3,146.3L801.3,146.3z M795.5,48.8h-15.4l-11.7,68.1h-0.3l-11.6-68.1
		h-15.4l20.7,97.5h12.8L795.5,48.8z M704.4,71.8c0-6.7,4.6-9.9,9.8-9.9c5.3,0,9.9,3.2,9.9,9.9v51.5c0,6.7-4.6,9.9-9.9,9.9
		c-5.3,0-9.8-3.1-9.8-9.9V71.8z M689.9,123.3c0,15.9,12.6,23.8,24.4,23.8c11.9,0,24.4-7.9,24.4-23.8V71.8
		c0-15.9-12.6-23.8-24.4-23.8c-11.8,0-24.4,7.9-24.4,23.8V123.3z M681.7,118.5h-14.6v4.8c0,7.7-5.1,9.9-9.1,9.9
		c-6.6,0-8.9-4.4-8.9-10V73.3c0-6.6,1.7-11.4,9-11.4c5.6,0,9,4.7,9,10.1v4.7h14.6v-5.5c0-13.6-10-23.3-23.4-23.3
		c-14.1,0-23.7,9.7-23.7,22.5v53.7c0,17.8,12.9,23,24,23c13,0,23.1-10.6,23.1-22.6L681.7,118.5L681.7,118.5z M627.5,70
		c0-10.8-9.7-22.1-24.3-22.1c-16.7,0-25,11.9-25,26.7c0,12.2,3.3,20.1,15.8,25.1l10.4,4.1c7.1,2.7,8.4,4.4,8.4,14.8
		c0,8.9-0.7,14.5-10.6,14.5c-7.4,0-10.3-4.9-10.3-10v-4.4h-14.6v5.2c0,13.1,10.7,23.1,24.8,23.1c18.8,0,25.1-12.2,25.1-28.6
		c0-14.2-2.4-22.1-15.3-26.7l-11.1-4.2c-7.6-2.9-8.3-5.5-8.3-13c0-6.4,1.9-12.6,9.9-12.6c7.4,0,10.3,5.3,10.3,11.8v3.2h14.6
		L627.5,70L627.5,70z M554.6,146.3h14.6V48.8h-14.6V146.3z M510.7,61.9h6.7c8.6,0,11.3,4.4,11.3,12.1v47c0,8.4-3.1,12.2-11.3,12.2
		h-6.7V61.9z M496.2,146.3h20.3c17.1,0,26.8-8.6,26.8-26.7V74c0-15.8-9.1-25.2-25.6-25.2h-21.6L496.2,146.3L496.2,146.3z"/>
	<path class="st2" d="M895.7,297h57.1v-18.9h-37.9v-38.8H948v-17.8h-33.1v-38.8h37.9V165h-57.1V297z M883.9,259.4h-19.2v6.5
		c0,10.4-6.8,13.4-12,13.4c-8.6,0-11.6-5.9-11.6-13.5v-67.5c0-8.9,2.3-15.4,11.8-15.4c7.3,0,11.8,6.3,11.8,13.7v6.3h19.2v-7.4
		c0-18.4-13.1-31.5-30.8-31.5c-18.6,0-31.2,13.2-31.2,30.4V267c0,24.1,16.9,31.2,31.6,31.2c17.1,0,30.4-14.3,30.4-30.6L883.9,259.4
		L883.9,259.4z M742.7,297h19.2v-79.4h0.4l29.3,79.4h18V165h-19.2v79.6H790L761.1,165h-18.4L742.7,297L742.7,297z M677.7,297h57.1
		v-18.9h-37.9v-38.8H730v-17.8h-33.1v-38.8h37.9V165h-57.1L677.7,297L677.7,297z M643.8,297h19.2V165h-19.2V297z M631.4,259.4h-19.2
		v6.5c0,10.4-6.8,13.4-12,13.4c-8.6,0-11.6-5.9-11.6-13.5v-67.5c0-8.9,2.3-15.4,11.8-15.4c7.3,0,11.8,6.3,11.8,13.7v6.3h19.2v-7.4
		c0-18.4-13.1-31.5-30.8-31.5c-18.6,0-31.2,13.2-31.2,30.4V267c0,24.1,16.9,31.2,31.6,31.2c17.1,0,30.4-14.3,30.4-30.6V259.4z
		 M560,193.7c0-14.7-12.8-29.9-31.9-29.9c-22,0-32.9,16.1-32.9,36.2c0,16.5,4.3,27.3,20.9,33.9l13.7,5.6c9.4,3.7,11.1,5.9,11.1,20
		c0,12.1-0.9,19.7-13.9,19.7c-9.8,0-13.5-6.7-13.5-13.5v-5.9h-19.2v7c0,17.8,14.1,31.3,32.7,31.3c24.8,0,33.1-16.5,33.1-38.8
		c0-19.3-3.2-29.9-20.1-36.2l-14.7-5.8c-10-3.9-10.9-7.4-10.9-17.6c0-8.7,2.4-17.1,13-17.1c9.8,0,13.5,7.2,13.5,15.9v4.3H560
		L560,193.7L560,193.7z"/>
</g>
</svg>
