<?xml version="1.0" encoding="UTF-8" standalone="no"?>
<!-- Created with Inkscape (http://www.inkscape.org/) -->

<svg
   xmlns:dc="http://purl.org/dc/elements/1.1/"
   xmlns:cc="http://creativecommons.org/ns#"
   xmlns:rdf="http://www.w3.org/1999/02/22-rdf-syntax-ns#"
   xmlns:svg="http://www.w3.org/2000/svg"
   xmlns="http://www.w3.org/2000/svg"
   xmlns:sodipodi="http://sodipodi.sourceforge.net/DTD/sodipodi-0.dtd"
   xmlns:inkscape="http://www.inkscape.org/namespaces/inkscape"
   width="783"
   height="147"
   viewBox="0 0 783 510"
   id="svg2"
   sodipodi:version="0.32"
   inkscape:version="0.47 r22583"
   version="1.0"
   inkscape:output_extension="org.inkscape.output.svg.inkscape">
  <g
     inkscape:label="Layer 1"
     inkscape:groupmode="layer"
     id="layer1"
     transform="translate(-17.163119,-842.15661)">
    <path
       id="path3714"
       d="m 100.75042,887.884 -46.059518,-0.0412 c 0,6.39378 0,12.38031 0,18.42788 l 36.855762,0.0412 c -0.02058,7.45261 -0.02058,28.24252 -0.04057,36.04128 l -36.122719,-0.36632 -0.02058,44.98037 -38.199676,-0.0412 0.101839,-135.18528 80.655062,0.0412 2.83036,36.10237"
       style="fill:#7a7879;fill-rule:nonzero;stroke:none" />
    <path
       id="path3718"
       d="m 252.2724,851.90382 16.20839,28.32396 16.10658,-28.4054 c 0,0 27.26512,0.34632 41.21329,0.1223 l -36.8354,64.83357 39.91011,70.43314 -42.43503,-0.0176 -18.73332,-34.02538 -18.77404,33.98464 -41.78343,-0.0412 40.76532,-70.35177 -38.17931,-64.89466 42.53684,0.0412"
       style="fill:#7a7879;fill-rule:nonzero;stroke:none" />
    <path
       id="path3722"
       d="m 216.0886,880.86509 c 11.40288,16.18802 15.16991,38.97342 9.16303,58.78594 -7.00463,23.72212 -30.9507,43.92152 -55.9556,45.26541 -24.53657,1.97515 -44.98032,-9.04086 -59.43755,-28.38505 -12.807885,-17.81702 -15.007012,-48.80841 -3.44122,-67.92864 10.89383,-21.50255 32.92583,-34.08647 55.87414,-35.32858 21.40078,0.87556 40.70424,9.57028 53.7972,27.59092 m -41.43728,9.18339 c 0.0206,-4.66299 -4.25572,-8.43001 -9.57028,-8.43001 l -1.99551,0 c -5.35529,0 -9.67209,3.76702 -9.67209,8.43001 l -0.0406,58.0733 c 0,4.64259 4.3168,8.45036 9.65173,8.4707 l 1.9955,0 c 5.31456,0 9.59065,-3.80777 9.61101,-8.4707 l 0.0206,-58.0733"
       style="fill:#7a7879;fill-rule:nonzero;stroke:none" />
    <path
       id="path3726"
       d="m 424.83067,858.77609 -0.0206,23.43701 c -11.38252,-9.63138 -23.25374,-14.43689 -35.47112,-14.45724 -13.41876,-0.0176 -24.82165,4.84621 -34.0254,14.49798 -9.30557,9.63132 -13.94818,21.46186 -13.94818,35.38968 0,13.74454 4.62224,25.35106 13.88709,34.81951 9.32593,9.42776 20.62701,14.23327 34.08649,14.23327 7.00463,0.0176 12.95042,-1.16067 17.79665,-3.44128 2.68782,-1.14027 5.51818,-2.64709 8.40963,-4.56115 2.89145,-1.9344 6.00687,-4.23535 9.22412,-6.96388 l -0.0206,23.94609 c -11.32144,6.37336 -23.19266,9.59062 -35.67475,9.59062 -18.73332,-0.0176 -34.65663,-6.59739 -47.89213,-19.64964 -13.21513,-13.21512 -19.77179,-29.15877 -19.75143,-47.76992 0,-16.67675 5.51818,-31.60231 16.57492,-44.67491 13.58165,-16.06583 31.17467,-24.04786 52.69762,-24.02752 11.81014,0.0176 23.15194,3.25795 34.12722,9.63138"
       style="fill:#d72f2d;fill-rule:nonzero;stroke:none" />
    <path
       id="path3730"
       d="m 482.86322,927.09973 40.66352,55.87414 -24.23114,-0.0176 -37.6499,-53.61393 -3.56339,-0.0176 -0.0406,53.61393 -19.69035,-0.0176 0.10184,-131.03136 23.25374,0.0176 c 17.34868,0 29.93258,3.27835 37.58881,9.75356 8.57253,7.26933 12.76714,16.85996 12.74679,28.75153 0,9.28523 -2.68784,17.24686 -8.02274,23.90534 -5.33493,6.63814 -12.40064,10.95492 -21.15643,12.78754 m -24.76056,-15.00699 6.25123,0 c 18.87585,0.0176 28.30359,-7.14722 28.30359,-21.46186 0,-13.43915 -9.16303,-20.11797 -27.4891,-20.11797 l -7.04535,-0.0176 -0.0206,41.60017"
       style="fill:#d72f2d;fill-rule:nonzero;stroke:none" />
    <path
       id="path3734"
       d="m 555.8906,851.96085 -0.10172,131.03142 -19.71068,0 0.0817,-131.05176 19.73108,0.0176 z"
       style="fill:#d72f2d;fill-rule:nonzero;stroke:none" />
    <path
       id="path3738"
       d="m 571.61229,983.00444 27.6927,-140.84601 44.93962,101.89293 46.65005,-101.81149 24.67906,140.86641 -20.28084,-0.0176 -12.56352,-79.12787 -38.8309,85.19584 -37.69062,-85.29767 -14.17218,79.16861 -20.42337,-0.0176 z"
       style="fill:#d72f2d;fill-rule:nonzero;stroke:none" />
    <path
       id="path3742"
       d="m 800.13836,870.7471 -52.55509,-0.0412 -0.0412,31.3376 42.49614,0.0412 -0.0176,18.61115 -42.4758,-0.0412 -0.0412,43.90112 52.57544,0.0412 -0.0176,18.57046 -72.26582,-0.0412 0.10172,-131.05176 72.26577,0.0611 -0.0176,18.61115 z"
       style="fill:#d72f2d;fill-rule:nonzero;stroke:none" />
  </g>
</svg>
