<?xml version="1.0" encoding="utf-8"?>
<!-- Generator: Adobe Illustrator 21.0.2, SVG Export Plug-In . SVG Version: 6.00 Build 0)  -->
<svg version="1.1" xmlns="http://www.w3.org/2000/svg" xmlns:xlink="http://www.w3.org/1999/xlink" x="0px" y="0px"
	 viewBox="0 0 442 128.6" style="enable-background:new 0 0 442 128.6;" xml:space="preserve">
<style type="text/css">
	.st0{fill:#C10016;}
</style>
<g id="Livello_2">
	<g>
		<g>
			<path class="st0" d="M442,5.2c0,2.9-2.2,5.2-5.1,5.2c-2.8,0-5.1-2.3-5.1-5.2c0-2.9,2.3-5.2,5.1-5.2C439.8,0,442,2.3,442,5.2
				L442,5.2z M432.6,5.2c0,2.4,1.9,4.6,4.3,4.6c2.4,0,4.3-2.1,4.3-4.6c0-2.5-1.9-4.6-4.3-4.6C434.5,0.6,432.6,2.8,432.6,5.2
				L432.6,5.2z M434.5,2.3h2.6c0.9,0,1.8,0.4,1.8,1.4c0,0.8-0.5,1.4-1.2,1.6l0.9,1.2c0.4,0.5,0.9,1.1,1.2,1.3v0.1h-0.9
				c-0.5,0-0.9-1-1.9-2.5h-0.7V7c0,0.6,0,0.7,0.7,0.7v0.2h-2.4V7.7c0.7-0.1,0.7-0.1,0.7-0.7V3.3c0-0.7,0-0.7-0.7-0.8V2.3z
				 M436.2,5.2h0.7c0.7,0,1.1-0.5,1.1-1.4c0-0.9-0.5-1.2-1.1-1.2h-0.6V5.2z"/>
		</g>
		<path class="st0" d="M33.2,56.1c0,4,0,25,0,25S29.1,91,20.6,91C5.2,91,0,75.3,0,47.1C0,28.7,4.3,0.5,18.8,0.5
			c5.1,0,9.9,5.9,9.9,5.9l1.6-5.9h2.9V30h-4.9c-0.5-19.1-5-23.9-9.4-23.9c-4.3,0-9.5,10.1-9.6,41.7C9.2,78.3,15,85.6,20.4,85.6
			c3,0,4.7-3.2,4.7-3.2l0.3-26.3c0.1-6.8-4.9-6.8-4.9-6.8v-3.9h17.8v3.9C38.2,49.3,33.2,52.1,33.2,56.1z"/>
		<path class="st0" d="M67.8,67.4C67.2,63.9,55.3,1.4,55.3,1.4H49c0,0-8.7,67.9-9.8,73.9c-1.1,5.9-4.2,7-4.2,7V85l12.5-5.6v-2
			c0,0-5.2,2.2-4.6-2.5c0.2-1.7,1.4-11,2.7-21.9H57c1.2,8.2,2.2,14.2,2.4,15.8c0.7,4.8-3.2,5.8-3.2,5.8v2L72,71.7v-1.9
			C72,69.8,68.4,70.8,67.8,67.4z M46.1,50c2.2-17.8,4.8-38.4,4.8-38.4s3.2,21.5,5.6,38.4H46.1z"/>
		<path class="st0" d="M74.2,70.9V69c0,0,3.2-0.1,3.2-3.6c0-3.5,0-50,0-54.8c0-4.8-5.3-6.2-5.3-6.2v-3h13.7l7.4,51.8l7.4-51.5h12.7
			v2.7c0,0-3.4-0.3-3.4,4.5c0,4.8,0,44.8,0,48.3c0,3.5,3.8,3.3,3.8,3.3v1.1l-14.7,3v-1.7c0,0,4.2-0.7,4.2-4.2c0-3.5,0-49.7,0-49.7
			l-8.5,56.5l-3,0.7L81,11.8c0,0,0,49.7,0,51.5c0,4.7,4.8,2.7,4.8,2.7v1.7L74.2,70.9z"/>
		<path class="st0" d="M150.8,1.4v3c0,0,5.1-0.6,5.1,6.2c0,6.9,0,33.8,0,36.9c0,3.1-5.1,5.8-5.1,5.8v2.7l31.4-2.7V38.8h-1.6
			c0,0,0.4,12-9.4,12c-8.3,0-7.2-6.2-7.2-12.1s0-9.7,0-9.7s3.2-0.2,6.1-0.2c3.9,0,3.9,9.7,3.9,9.7h1.6V16.3h-1.7c0,0-0.4,9.5-4,9.5
			c-3.6,0-5.9,0-5.9,0V4.4c0,0,2.8,0,7.3,0c4.5,0,7.7,10.7,7.7,10.7h1.6V1.4H150.8z"/>
		<path class="st0" d="M327.5,32.3c0-21-7.7-31.5-16.7-31.5c-8.9,0-16.7,8.6-16.7,31.5c0,21,8.6,29.6,16.7,29.6
			C317.2,62,327.5,53.3,327.5,32.3z M310.8,58c-4,0-8.3-6.6-8.3-25.7c0-19.1,3.5-28.1,8.3-28.1c4.8,0,8.3,9,8.3,28.1
			C319.1,51.4,314.8,58,310.8,58z"/>
		<path class="st0" d="M434.3,47c0-30.8-9.4-46.2-20.3-46.2c-10.9,0-20.3,12.7-20.3,46.2c0,30.9,10.5,43.5,20.3,43.5
			C421.7,90.6,434.3,77.9,434.3,47z M414,84.8c-4.8,0-10.1-9.7-10.1-37.8c0-28.1,4.2-41.2,10.1-41.2c5.9,0,10.1,13.1,10.1,41.2
			C424.1,75.1,418.8,84.8,414,84.8z"/>
		<path class="st0" d="M353,1.4c0,0-0.3,3.4-1.5,3.4c-1.3,0-4.5-4.3-8.8-4.3c-5.2,0-12.8,6.9-12.8,19.2c0,11.7,4.3,16.9,9.1,20.3
			c4.9,3.4,10.4,6.6,10.4,14c0,8.2-3.7,11-6.6,11c-2.8,0-6.7-2.3-8.9-8.9c-2.1-6.6-2.8-11.6-2.8-11.6h-2v23.8h1.8c0,0,0.4-4,2.6-2.6
			c2.1,1.4,5.2,4.2,8.9,4.2c3.7,0,14-2.6,14-21.9c0-10.9-4.3-15.1-9.9-19.4c-5.6-4.3-9.6-5.3-9.6-13.2s4.2-10.6,5.9-10.6
			c1.7,0,5.4,1.1,7.5,8.2c2,7.1,2.6,11.8,2.6,11.8h2.2V1.4H353z"/>
		<path class="st0" d="M386.7,2c0,0-0.3,3.8-1.7,3.8c-1.4,0-5.1-4.7-9.9-4.7c-5.9,0-14.4,7.6-14.4,21.3c0,12.9,4.8,18.7,10.3,22.5
			c5.5,3.8,11.7,7.3,11.7,15.5c0,9-4.8,12.7-7.9,12.7c-3.2,0-7.1-3.1-9.5-10.3c-2.4-7.3-3.2-12.8-3.2-12.8h-2.2v26.3h2
			c0,0,0.5-4.4,2.9-2.8c2.4,1.6,5.9,4.6,10.1,4.6c4.2,0,15.9-2.9,15.9-24.2c0-12.1-4.9-16.7-11.3-21.5c-6.4-4.8-10.9-5.9-10.9-14.6
			c0-8.7,4.7-11.8,6.6-11.8c1.9,0,6.2,1.2,8.5,9c2.3,7.8,3,13.1,3,13.1h2.5V2H386.7z"/>
		<path class="st0" d="M225.1,128.1c10.8,0,20.1-1.6,22.8-2.1c4-0.7-3.1-2.1-3.1-2.1s12.5-6.2,12.5-10.2c0-2.2-14.1-1.5-21.6-0.4
			c0,0-14.9,1.2-14.9,5.7c0,4.6,0,3.8,0,5.9C221,127,222.3,128.1,225.1,128.1z"/>
		<path class="st0" d="M194.3,127.1c6.8,1.5,15.7,1.5,19.8,1.5c3.6,0,4.1-3.1,4.7-6.7c0.6-3.7-0.1-6.9-5.3-8.7c-5.2-1.8-6.1-2-8.7-3
			c-2.4-0.9-4.4,0.4-6.4,2.7c-2,2.4-3.4,4.6-6,8.3C190.1,124.2,192.4,126.7,194.3,127.1z"/>
		<path class="st0" d="M174.8,118.9c1.1,0.9,5.7,3.7,9.3,5.2c2.2,0.9,4.8,0,6.3-3.5c1.4-3.5,6.4-9.3,7.6-10.4c1.2-1.2,1.6-2.5,0-3.2
			c-1.6-0.7-1.4-0.7-2.9-1.4c-1.5-0.7-2-0.1-5.2,1.4c-3.1,1.5-11.1,6.5-13.6,7.8C173.9,116,173.7,118,174.8,118.9z"/>
		<path class="st0" d="M164.5,101.2c0,3.4,1.8,8.3,4.3,11.7c1.5,1.5,3.1,1.9,6.4-0.3c3.4-2.2,9.9-6.4,15.3-8.4
			c0.9-0.3,2.2-0.8,2.2-0.8v-1.6c0,0-11.1,0.1-16.6-0.3c-4.4-0.4-7.9-2.8-10-2.8C164.4,98.7,164.5,101.2,164.5,101.2z"/>
		<path class="st0" d="M169,83.1c-1.1,1.5-3.9,4.6-4.5,9.9c0,0-0.5,2.4,2.2,3.5c2.7,1.1,11.4,3.5,18.3,3.5c6.9,0,7.8,0.2,8.3-1.2
			c0.5-1.4-0.5-2-2.4-3.2c-1.9-1.2-6.3-3.3-10.5-6.9c-4.2-3.5-5.9-5.1-7-6.1C172.3,81.5,170.3,81.3,169,83.1z"/>
		<path class="st0" d="M201.4,69.7c-9.4,0.8-17.5,3-25.3,6.8c0,0-3.6,2.5,0,5c3.6,2.4,19.4,14.3,19.4,14.3s2.6-0.1,4.7-1.1
			c2.1-1,4.9-2.3,2.7-4.5c-1.4-1.4-4.2-3.7-4.2-7.8C198.6,78.4,201.4,69.7,201.4,69.7z"/>
		<polygon class="st0" points="234.4,91.2 255.6,91.2 271.5,103.6 255.6,93.1 234.4,93.1 		"/>
		<polygon class="st0" points="219.1,95.3 240.6,95.3 249.1,111.2 239.7,97.1 217,97.1 		"/>
		<polygon class="st0" points="195.2,100.1 203.3,96.4 219.1,109.5 203.1,98.5 196.2,101.7 		"/>
		<polygon class="st0" points="199.6,103.4 204.2,101.5 214.6,109.5 204.1,103.5 200.8,105 		"/>
		<g>
			<g>
				<path class="st0" d="M318.1,99.6c-25.7,0-52-14.6-65.7-14.5v0.9v-2.3c14.5,0.1,40.5,14.5,65.7,14.5l0,0
					c18.4,0,24.9-11.9,25-20.3l0,0c0-3.5-0.8-7-2.6-8l0,0l0.8-1.3c2.4,1.5,3.3,5.4,3.3,9.2l0,0c0,4.6-1.8,10-6,14.3l0,0
					C334.3,96.4,327.7,99.6,318.1,99.6L318.1,99.6C318.1,99.6,318.1,99.6,318.1,99.6L318.1,99.6z M340.2,70.4
					C340.2,70.4,340.2,70.4,340.2,70.4L340.2,70.4L340.2,70.4L340.2,70.4L340.2,70.4z"/>
			</g>
		</g>
		<g>
			<g>
				<path class="st0" d="M320,95.3c-13.4,0-24.2-2-33.1-3.3l0,0c-17.9-2.7-28.4-6.6-37.2-7.3l0,0l0.1-1.5c9.1,0.7,19.5,4.6,37.3,7.3
					l0,0c8.9,1.3,19.6,3.3,32.8,3.3l0,0c14,0,21-3.5,24.6-7.1l0,0c3.5-3.6,3.7-7.3,3.7-8.1l0,0c0-0.8-0.1-2.6-0.9-4.2l0,0
					c-0.8-1.6-2-3.9-4.8-4.5l-0.2,0.7l0.5-2.2c3.3,0.7,5,3.4,5.9,5.3l0,0c0.9,1.9,1,3.9,1,4.8l0,0c0,1-0.2,5.2-4.1,9.1l0,0
					C341.7,91.7,334.2,95.3,320,95.3L320,95.3C320,95.3,320,95.3,320,95.3L320,95.3z M342.4,70.8L342.4,70.8L342.4,70.8L342.4,70.8z
					"/>
			</g>
		</g>
		<path class="st0" d="M276.8,78.4c0,0-3.4,1.1-7.7,1.1c-5.4,0-10.6-3.6-17.2-3.6c-1.3,0-1.8-0.5-1.8-1.5c0-0.8,0.9-1.2,1.8-1.2
			c0.9,0,6.2,1.4,9.8,1.4c3.6,0,8.8-0.4,8.8-0.4s-6-0.4-13-2.6c-6.9-2.2-8-3.8-12.5-3.8c-4.6,0-11.3,2.2-18.4,2.2
			c-2.6,0-11.7-0.9-22.3-0.3c0,0-2.4,7.1-2.4,11.7s3,7.7,4.9,10.2c1.6,2.2,4.8,2.2,13.8,1.2c9.9-1.2,21.3-8.1,27.7-8.1
			c0,0,4.3,0.8,11.1,0.8c6.8,0,16.1-1.5,16.1-1.5l-4.2-1.6c0,0,1.5-0.3,3.5-1.4C276.8,79.6,276.8,78.4,276.8,78.4z M245.9,78.6
			c-1.4,0-2.6-1.2-2.6-2.6c0-1.4,1.2-2.6,2.6-2.6c1.4,0,2.6,1.2,2.6,2.6C248.5,77.5,247.3,78.6,245.9,78.6z"/>
		<path class="st0" d="M217.9,46.9c-2.3-3.9-9.5-19.4-9.5-19.4s7.5-4.6,7.5-13.2c0-9.6-6.2-12.9-12.4-12.9c-6.1,0-17.8,0-17.8,0v3
			c0,0,4.6,0,4.6,3.4v35.6c0,6.4-4.6,6.1-4.6,6.1v3.6l17.4-0.7v-3c0,0-4.7-0.1-4.7-6.8c0-6.7,0-13.6,0-13.6h1.6l10.2,23.2h12.3v-2.5
			C222.5,49.8,220.1,50.8,217.9,46.9z M204.5,25.1c-2.5,2.2-6.2,2-6.2,2V5c0,0,3.8-0.6,6.2,1.4c2,1.6,2.8,5.1,2.8,9.5
			C207.4,20,206.4,23.4,204.5,25.1z"/>
		<path class="st0" d="M291.7,49.7c-1.8-4.1-9.1-21.3-9.1-21.3s8.1-3.6,8.1-14.1c0-9.6-6-12.9-11.9-12.9c-5.9,0-17.1,0-17.1,0v3
			c0,0,4.4,0,4.4,3.4v35.6c0,7.4-4.4,8-4.4,8v1.8l16.7,1.8v-3c0,0-4.5-0.3-4.5-5.9c0-6.7,0-15.1,0-15.1h1.5l9.3,24.6l12.3,1.4v-2.5
			C297,54.5,293.9,54.8,291.7,49.7z M279.8,26c-2.4,2.2-6,2-6,2V5c0,0,3.6-0.6,6,1.4c1.9,1.6,2.7,5.1,2.7,9.5
			C282.5,20,281.6,24.3,279.8,26z"/>
		<path class="st0" d="M138.5,29.2c0,0,9.4-4.2,9.4-14.9c0-9.6-6.4-12.9-12.7-12.9c-6.3,0-18.2,0-18.2,0v3c0,0,4.7,0,4.7,3.4v43.4
			c0,8.2-4.7,7.5-4.7,7.5V61c0,0,17-2.9,22.1-3.5c6.6-0.8,10.7-5.4,10.7-13.8C149.8,30.9,138.5,29.2,138.5,29.2z M129.9,5
			c0,0,3.8-0.6,6.4,1.4c2,1.6,2.9,5.1,2.9,9.5c0,4.2-1,7.6-2.9,9.2c-2.6,2.2-6.3,2-6.3,2V5z M134,56.2c-3,0.6-4.2-1.6-4.2-5.4
			c0-3.8,0-19.3,0-19.3s11-2.3,11,12.4C140.9,53.5,137,55.6,134,56.2z"/>
		<path class="st0" d="M252.5,27.4c0-17.7-7.7-26.6-16.7-26.6c-8.9,0-16.7,7.3-16.7,26.6c0,17.8,8.6,25.1,16.7,25.1
			C242.2,52.5,252.5,45.2,252.5,27.4z M235.8,49.2c-4,0-8.3-5.6-8.3-21.8c0-16.2,3.5-23.7,8.3-23.7c4.8,0,8.3,7.6,8.3,23.7
			C244.1,43.6,239.8,49.2,235.8,49.2z"/>
	</g>
</g>
<g id="Livello_1">
</g>
</svg>
