<?xml version="1.0" encoding="UTF-8" ?>
<!DOCTYPE svg PUBLIC "-//W3C//DTD SVG 1.1//EN" "http://www.w3.org/Graphics/SVG/1.1/DTD/svg11.dtd">
<svg width="234pt" height="58px" viewBox="0 0 234 88" version="1.1" xmlns="http://www.w3.org/2000/svg">
<path fill="#19171b" d=" M 64.88 6.69 C 68.67 6.78 72.48 6.54 76.24 7.04 C 83.53 8.28 90.12 13.92 91.80 21.22 C 93.03 26.20 92.03 31.74 88.80 35.77 C 85.29 40.31 79.90 42.73 74.76 44.92 C 80.57 57.41 86.49 69.84 92.18 82.39 C 88.80 82.36 85.43 82.37 82.06 82.42 C 76.26 69.89 70.41 57.38 64.58 44.86 C 70.19 42.50 76.08 39.72 79.53 34.46 C 83.25 29.02 82.92 21.30 78.91 16.10 C 75.48 11.43 70.04 8.96 64.88 6.69 Z" />
<path fill="#19171b" d=" M 214.41 8.36 C 218.57 6.04 223.50 6.91 228.05 6.64 C 221.51 9.72 214.75 14.59 213.51 22.23 C 211.81 30.56 216.91 38.03 221.73 44.28 C 226.05 50.07 231.04 56.35 230.82 63.99 C 230.81 72.20 224.41 79.17 216.99 81.88 C 213.40 82.83 209.63 82.38 205.96 82.57 C 212.03 79.44 218.41 75.14 220.12 68.08 C 222.19 60.77 218.47 53.53 214.16 47.84 C 209.27 41.02 202.77 34.06 203.09 25.08 C 203.06 17.82 208.16 11.53 214.41 8.36 Z" />
<path fill="#19171b" d=" M 4.08 6.76 C 7.45 6.83 10.81 6.83 14.18 6.77 C 14.21 31.99 14.22 57.21 14.17 82.43 C 10.80 82.36 7.42 82.36 4.05 82.44 C 4.12 57.21 4.07 31.99 4.08 6.76 Z" />
<path fill="#19171b" d=" M 142.62 6.74 C 145.99 6.83 149.37 6.85 152.74 6.79 C 152.72 31.99 152.70 57.20 152.76 82.41 C 149.37 82.34 145.99 82.36 142.61 82.46 C 142.58 57.22 142.56 31.98 142.62 6.74 Z" />
</svg>
