<?xml version="1.0" encoding="utf-8"?>
<!-- Generator: Adobe Illustrator 22.1.0, SVG Export Plug-In . SVG Version: 6.00 Build 0)  -->
<svg version="1.1" id="Livello_1" xmlns="http://www.w3.org/2000/svg" xmlns:xlink="http://www.w3.org/1999/xlink" x="0px" y="0px"
	 viewBox="0 0 1280 1237.9" style="enable-background:new 0 0 1280 1237.9;" xml:space="preserve">
<style type="text/css">
	.st0{fill:#010000;}
</style>
<g id="_x23_fefefeff">
</g>
<g>
	<path class="st0" d="M145.1,609.6c0.2,4.8-1.2,11.5-6.8,17.1c-4.4,4.4-10.6,7.1-17,7.1c-8.5,0-14.8-6.2-26.3-17.8l-77.4-77.4
		C5.9,526.8,0,521,0,512.4c0-4.6,1.2-11.5,6.7-17.1c4.5-4.4,10.7-7.1,17.1-7.1c8.7,0.2,14.8,6.2,26.3,17.8l77.4,77.4
		C139.2,595.2,145.1,601,145.1,609.6"/>
	<path class="st0" d="M169.4,382.8c0,7.1-5,12.1-14.4,21.5l-19.2,19.2l75.8,75.8c11.7,11.7,17.6,17.6,17.6,26.1
		c0,4.6-1,11.4-6.8,17.1c-4.2,4.2-10.4,6.9-16.9,6.9c-8.5,0-14.9-6-26.4-17.6L103.3,456l-19,19c-9.6,9.6-14.2,14.2-21.3,14.2
		c-3.9,0-9.4-0.9-13.8-5.3c-3.6-3.6-5.5-8.7-5.7-13.9c-0.3-7.1,5-12.1,14.4-21.5l70.7-70.7c9.4-9.4,14.2-14.2,21.3-14.2
		c3.9,0,9.4,0.9,13.9,5.3C167.2,372.5,169.4,377.8,169.4,382.8"/>
	<path class="st0" d="M375.7,389.3c-11.2,11.2-21.7,6.4-39.3-2.3l-8.3-4.1l-47.8,47.7l4.3,8.5c8.7,17.2,13.8,27.3,2.5,38.7
		c-8.5,8.5-22.7,7.8-29.5,1c-4.6-4.6-6.6-8.3-12.2-21.1l-43.2-96.4c-9.9-22.1-13.7-31.1-12.1-40.2c1.2-6.2,3.9-13.1,9.9-19.1
		c5-5,11.8-8.5,18.8-10c9.6-1.8,18.3,2.3,40.5,12.1l95.9,42.3c12.2,5.5,17.1,7.5,21.7,12.1C383.3,364.9,385.5,379.5,375.7,389.3
		 M232.9,335.6l31.3,62.5l31.4-31.4L232.9,335.6z"/>
	<path class="st0" d="M494.3,259.3c0,7.1-5,12.1-14.4,21.5L432,328.7c-14.8,14.8-17.4,17.4-27.3,17.8c-9.2,0.4-13.5-3.9-27.3-17.7
		l-74.9-75c-11.7-11.7-17.6-17.5-17.6-26.1c0-4.6,1.2-11.6,6.7-17.1c4.4-4.5,10.7-7.1,17.1-7.1c8.7,0.1,14.7,6.2,26.3,17.7l76,76
		l42.8-42.8c9.4-9.4,14.4-14.4,21.2-14.4c3.9,0,9.4,0.9,13.9,5.3C492.1,249,494.3,254.3,494.3,259.3"/>
	<path class="st0" d="M538.7,216c0.2,4.8-1.2,11.5-6.8,17.1c-4.4,4.4-10.6,7.1-17,7.1c-8.5,0-14.8-6.2-26.3-17.8l-77.4-77.4
		c-11.7-11.7-17.6-17.6-17.6-26.1c0-4.6,1.2-11.5,6.7-17.1c4.5-4.4,10.7-7.1,17.1-7.1c8.7,0.2,14.7,6.2,26.3,17.8l77.4,77.4
		C532.8,201.6,538.7,207.4,538.7,216"/>
	<path class="st0" d="M667.4,97.5c-11.2,11.2-21.7,6.4-39.3-2.3l-8.3-4L572,138.9l4.3,8.5c8.7,17.2,13.9,27.3,2.5,38.7
		c-8.5,8.5-22.7,7.8-29.5,1c-4.6-4.6-6.6-8.3-12.2-21.1l-43.2-96.5c-9.9-22-13.7-31.1-12.1-40.1c1.2-6.2,3.9-13.1,10-19.1
		c5-5,11.7-8.5,18.8-10c9.6-1.8,18.3,2.3,40.4,12.1L647,54.8c12.2,5.5,17.1,7.4,21.7,12.1C675,73.2,677.2,87.8,667.4,97.5
		 M524.6,43.9l31.3,62.5L587.3,75L524.6,43.9z"/>
	<path class="st0" d="M1254.1,634.5l-170.9-170.9c-14.3-52.4-44.7-101-89.9-142.7c-34.7-32-75.1-51.1-114.9-62.2l-76.3-76.3
		c-16.8-16.8-39-26-62.7-26c-23.7,0-46,9.2-62.7,26L571.3,287.8C486.7,333.3,349,462.6,342.9,468.3c-5.9,5.6-9.3,13.2-9.4,21.3
		c-0.1,8.1,3,15.9,8.7,21.5l2.9,2.9L224.6,634.4c-16.8,16.7-26,39-26,62.7c0,23.7,9.2,46,26,62.7l186.5,186.6l-67.8,67.9
		c-14.1,14.1-22,33-22,53.1c0,20.1,7.8,38.9,22,53.1c14.2,14.1,33.1,22,53.1,22h210.7l69.4,69.5c16.8,16.7,39.1,26,62.7,26
		s46-9.2,62.7-26l69.4-69.5h89.4c20.1,0,38.9-7.8,53.1-22L1150.4,984c14.1-14.1,22-33,22-53.1s-7.8-38.9-22-53.1
		c-2.4-2.4-5-4.6-7.6-6.6l111.3-111.3C1288.6,725.3,1288.6,669.1,1254.1,634.5 M739.4,207.1c7.7,0,15,3,20.5,8.5l29.5,29.5
		c-6.6-0.3-13.1-0.4-19.2-0.4c-31.3,0-61.3,3.1-88.3,7.9l37-37C724.3,210.1,731.6,207.1,739.4,207.1 M266.8,717.6
		c-5.5-5.4-8.5-12.7-8.5-20.5c0-7.8,3-15,8.5-20.5l120.5-120.4L525.1,694c11.7,11.6,30.6,11.6,42.2,0l129.5-129.5
		c6.4-6.4,15-10,24-10c9.1,0,17.6,3.5,24,10c6.4,6.4,10,14.9,10,24c0,9.1-3.5,17.6-10,24L453.4,904.2L266.8,717.6z M759.8,1175
		c-5.5,5.5-12.8,8.5-20.5,8.5c-7.8,0-15.1-3-20.5-8.5l-32.6-32.6h106.2L759.8,1175z M1108.2,941.8l-136.5,136.5
		c-2.9,2.9-6.8,4.5-10.9,4.5H396.4c-4.1,0-8-1.6-10.9-4.5c-2.9-2.9-4.5-6.8-4.5-10.9c0-4.1,1.6-8,4.5-10.9l401.5-401.8
		c17.7-17.7,27.4-41.2,27.4-66.2c0-25.1-9.7-48.5-27.4-66.2c-17.7-17.7-41.2-27.4-66.2-27.4c-25,0-48.5,9.7-66.2,27.4L546.2,630.7
		L406.4,491c44.5-40.3,143.9-127.4,201-154.6c33.3-15.9,96.6-31.9,162.7-31.9c53.4,0,128.5,10.5,182.7,60.4
		c132.5,122.3,64.8,259.3,49.9,285.5C970.2,707.5,846.4,837.6,816.5,863c-9.6,8.1-13.1,21.3-8.7,33.1c4.3,11.8,15.5,19.6,28,19.6
		l261.5,0c4.1,0,8,1.6,10.9,4.5c2.9,2.9,4.5,6.8,4.5,10.9S1111.1,938.9,1108.2,941.8 M1211.9,717.7l-138.2,138.2H908.7
		c51.2-53.2,120.2-130.9,145.9-176.1c10.5-18.4,32.6-63.6,37.2-123.2l120,120C1223.1,688,1223.1,706.4,1211.9,717.7"/>
</g>
</svg>
