<?xml version="1.0" encoding="utf-8"?>
<!-- Generator: Adobe Illustrator 22.1.0, SVG Export Plug-In . SVG Version: 6.00 Build 0)  -->
<svg version="1.1" id="Livello_1" xmlns="http://www.w3.org/2000/svg" xmlns:xlink="http://www.w3.org/1999/xlink" x="0px" y="0px"
	 viewBox="0 0 404.6 261.6" style="enable-background:new 0 0 404.6 261.6;" xml:space="preserve">
<style type="text/css">
	.st0{fill:#E64C92;}
	.st1{fill:#FFFFFF;}
</style>
<g>
	<path class="st0" d="M2.5,95.6c4.6-5.7,14.7-5.6,19,0.4c2.2,3.1,2.5,7.1,2.5,10.8c-0.1,13.6,0,27.2,0,40.8c7.2,0.1,14.5,0,21.7,0
		c3.8,0.1,8.1,0.2,10.8,3.3c4.8,5.1,2.2,15.3-5.2,16.1c-10.9,0.5-21.8,0.1-32.6,0.2c-4.5-0.1-9.5,0.6-13.6-1.8
		c-3.7-2.1-5.1-6.6-5.1-10.6c-0.1-16.7,0-33.4-0.1-50C0,101.5,0.5,98.1,2.5,95.6z"/>
	<path class="st0" d="M80.6,100.6c1.4-4.2,4.4-8.4,9.1-9c4-0.3,8-0.4,12,0.1c4.6,0.7,7.4,5,8.9,9.1c5.9,16.5,11.9,32.9,17.7,49.5
		c1.2,4.1,3.2,8.9,0.7,12.9c-3.5,6.2-13.1,7.2-18,2.3c-1.9-2.3-2.2-5.4-3.1-8.2c-8.2-0.2-16.4,0-24.7-0.1c-0.9,2.7-1.4,5.6-3.1,8
		c-5.1,5.9-16.6,3.9-19-3.7c-1.1-4.5,0.8-9,2.2-13.2C69.2,132.4,74.8,116.5,80.6,100.6 M95.5,115.6c-2.7,8.8-5.3,17.6-7.9,26.5
		c5.3,0.2,10.5,0.1,15.8,0.1C100.9,133.4,98.3,124.5,95.5,115.6z"/>
	<path class="st0" d="M252.7,5.6c9.9-6.1,22.5-7.3,33.4-3.4c13.5,4.7,23.7,17.3,25.4,31.5c6.2-4.7,13.4-8.3,21.2-9.1
		c14.6-2,29.9,4.8,38,17.1c9.8,14.1,8.7,34.4-2.2,47.6c9.2,1.3,18.3,5.1,24.7,12c10.1,9.9,13.8,25.5,9.8,39
		c-4.2,15.4-18.5,27.1-34.4,28.4c6.5,8.5,10.2,19.3,8.9,30.1c-1.1,11.2-7.2,21.8-16.5,28.2c-9.7,7-22.7,9.1-34.2,5.7
		c-5.3-1.3-9.7-4.6-14.4-7.1c-1.1,11.7-7.5,22.9-17.4,29.3c-9.9,6.8-22.9,8.3-34.2,4.8c-14.5-4.5-25.5-17.9-27.2-32.9
		c-7.9,5.9-17.9,9.1-27.7,8.2c-13.9-1-26.9-10-32.7-22.7c-6.7-13.6-4.4-30.9,5.4-42.5c-10.6-1.2-20.9-5.8-27.8-14.1
		c-7.7-8.9-11.1-21.4-8.8-33c2.2-12.3,10.8-23.3,22.1-28.5c4.6-2.2,9.6-3.2,14.6-3.9c-11.1-11.8-13-30.9-5.3-45
		c7.2-13.7,22.9-22.3,38.4-20.8c8.2,0.9,16.8,3.8,22.6,9.9C235.4,22.7,242.5,11.7,252.7,5.6"/>
	<path class="st1" d="M213,78c39.9,0.1,79.9,0,119.8,0.1c1.1,0,2.2,0.1,3.3,0.2c-0.2,9,0,17.9-0.1,26.9c-30.7,0.1-61.5,0.1-92.2,0
		c-0.4,4.4-0.2,8.7-0.2,13.1c21.7-3.3,44.1-4.9,65.7-0.1c9.8,2.4,19.9,6.4,26.4,14.5c6.8,8,10.4,19.3,7.3,29.6
		c-2.7,10.2-10.7,18.2-19.7,23.2c-12.8,7.1-27.6,9.6-42,10.8c-15.8,0.7-31.9,0.7-47-4.4c-10.1-3.4-20.2-8.5-26.8-17.2
		c-4-5.2-6.1-11.8-5.8-18.3c13.9,0,27.9-0.1,41.8,0.1c4.4,7.2,13,10.6,21.1,10.9c8.2,0.4,17.4-0.2,23.8-5.9
		c3.8-3.2,4.8-8.9,2.8-13.4c-1.9-3.8-5.5-6.4-9.5-7.7c-10.9-3.4-23-2.5-33.1,2.9c-14.8,0.3-29.7,0.1-44.6,0.1
		C207.3,121.6,209.9,99.8,213,78z"/>
</g>
</svg>
