<?xml version="1.0" encoding="utf-8"?>
<!-- Generator: Adobe Illustrator 22.1.0, SVG Export Plug-In . SVG Version: 6.00 Build 0)  -->
<svg version="1.1" id="Livello_1" xmlns="http://www.w3.org/2000/svg" xmlns:xlink="http://www.w3.org/1999/xlink" x="0px" y="0px"
	 viewBox="0 0 4667.8 2035.7" style="enable-background:new 0 0 4667.8 2035.7;" xml:space="preserve">
<style type="text/css">
	.st0{fill:#707E86;}
	.st1{fill:url(#SVGID_1_);}
	.st2{fill:url(#SVGID_2_);}
	.st3{fill:url(#SVGID_3_);}
	.st4{fill:url(#SVGID_4_);}
	.st5{fill:url(#SVGID_5_);}
	.st6{fill:url(#SVGID_6_);}
	.st7{fill:url(#SVGID_7_);}
</style>
<g>
	<path class="st0" d="M424.1,5.3h-74.6L238,258.9L184.6,5.3h-77.1L0,408.4h70.7l74.6-280.2h1l58.2,280.2H238l122.6-272.5h1
		l10.2,272.5h67.9L424.1,5.3z M739.1,5.3H532.7l-46.5,403.1H728l7.7-67.4H564.2l12.1-105.8H696l7.8-67.4H584l11.2-95.2h136.2
		L739.1,5.3z M814.3,5.3l-46,403.1h170.6c88.2,0,156-86.9,156-206.9c0-87.5-38.8-196.2-170.6-196.2L814.3,5.3z M876.8,72.7h34
		c72.7,0,111.5,56.8,111.5,127.7c0,69.7-32,140.7-110,140.7h-66L876.8,72.7z M1250.5,5.3h-70.3l-46.5,403.1h70.3L1250.5,5.3z
		 M1481.7,0H1407l-161.9,408.4h77.6l32-88h102.7l10.2,88h72.2L1481.7,0z M1433.2,84.5h1l17.4,178.5H1375L1433.2,84.5z M1807.9,31.9
		C1779.3,11.2,1745.4,0,1713.4,0c-66.9,0-116.3,52-116.3,121.8c0,105.8,121.6,113.5,121.6,180.3c0,26.6-18.9,44.3-47.5,44.3
		c-27.6,0-66.9-17.8-93.5-41.4l-10.7,70.3c29.6,23.7,64.5,38.5,112.5,38.5c74.1,0,112-58.5,112-123.6
		c0-112.9-121.7-120.6-121.7-178.5c0-26.6,20.8-44.3,46.5-44.3c25.2,0,60.6,16.5,81.9,35.5L1807.9,31.9z M2087.1,5.3h-206.5
		l-46.5,403.1H2076l7.7-67.4h-171.6l12.1-105.8H2044l7.7-67.4H1932l11.1-95.2h136.2L2087.1,5.3z M2419.1,5.3h-282.6l-7.8,67.4h104.7
		l-38.8,335.8h70.2l38.8-335.8h107.6L2419.1,5.3z"/>
	<polygon class="st0" points="1788.6,516.5 1862,681.5 1394.3,681.5 1366.8,901.6 1660.2,901.6 1632.7,1066.7 1339.3,1066.7 
		1302.6,1314.2 1779.4,1314.2 1669.4,1479.3 1073.4,1479.3 1210.9,516.5 	"/>
	<linearGradient id="SVGID_1_" gradientUnits="userSpaceOnUse" x1="1877.8961" y1="1613.8497" x2="3142.7781" y2="257.4299">
		<stop  offset="0.2389" style="stop-color:#E85395"/>
		<stop  offset="0.5351" style="stop-color:#1EA8DE"/>
	</linearGradient>
	<path class="st1" d="M2109.5,1240.9l-146.7,238.4h-229.2l284.3-449.3L2109.5,1240.9z M2650.5,1919.4h-201.7L1843.6,516.5h210.9
		l110,275.1l486-779.4h229.2l-623.5,990.3L2650.5,1919.4z"/>
	<polygon class="st0" points="2962.3,681.5 2852.3,1479.3 2641.4,1479.3 2760.6,681.5 2522.2,681.5 2623,516.5 3246.5,516.5 
		3219,681.5 	"/>
	<path class="st0" d="M3937.2,877.7c47.8-177-74.2-346-263-358.6c-117-7.8-382.4-3.6-382.4-3.6l-135.1,963.8h200.9
		c0,0,45.1-320.2,56.1-391c41.2-1.9,111.4-2.9,142.3,15.1c25.3,14.7,45.4,55.7,65.9,96.9c45.6,91.5,137.3,279,137.3,279h44.8
		l84.5-200.6c0,0-100-201-144.8-221.4C3839.2,1030.2,3910.7,975.6,3937.2,877.7z M3736.7,820c-7.7,90.4-95,111.6-175.3,118.3
		c-22.5,1.9-124.7,1.6-124.7,1.6l36.5-262.7l2,0c41.9-0.8,83.9-1.1,125.7,2.6C3652.4,684.4,3747.5,692.7,3736.7,820z"/>
	<path class="st0" d="M4456.9,1479.3l-27.5-201.7h-302.6l-82.5,201.7h-183.4l421.8-962.8h220.1l165,962.8H4456.9z M4356,718.2
		L4191,1140h220.1L4356,718.2z"/>
</g>
<g>
	<linearGradient id="SVGID_2_" gradientUnits="userSpaceOnUse" x1="1425.412" y1="1498.5505" x2="1425.412" y2="2035.7157">
		<stop  offset="0" style="stop-color:#707E86;stop-opacity:0"/>
		<stop  offset="7.522654e-02" style="stop-color:#707E86;stop-opacity:2.857704e-02"/>
		<stop  offset="0.5265" style="stop-color:#707E86;stop-opacity:0.2"/>
		<stop  offset="1" style="stop-color:#707E86;stop-opacity:0"/>
	</linearGradient>
	<polygon class="st2" points="1338.3,1911.2 1301.6,1663.6 1778.4,1663.6 1668.4,1498.6 1072.4,1498.6 1149.1,2035.7 1652.5,2035.7 
		1631.7,1911.2 	"/>
	<linearGradient id="SVGID_3_" gradientUnits="userSpaceOnUse" x1="2517.3833" y1="1938.6837" x2="2517.3833" y2="2035.7157">
		<stop  offset="0" style="stop-color:#707E86;stop-opacity:0"/>
		<stop  offset="0.7091" style="stop-color:#707E86;stop-opacity:0.2"/>
		<stop  offset="0.9612" style="stop-color:#707E86;stop-opacity:2.669311e-02"/>
		<stop  offset="1" style="stop-color:#707E86;stop-opacity:0"/>
	</linearGradient>
	<polygon class="st3" points="2447.8,1938.7 2385.2,2035.7 2589.5,2035.7 2649.5,1938.7 	"/>
	<linearGradient id="SVGID_4_" gradientUnits="userSpaceOnUse" x1="1968.6924" y1="1498.5505" x2="1968.6924" y2="2035.7157">
		<stop  offset="0" style="stop-color:#707E86;stop-opacity:0"/>
		<stop  offset="7.522654e-02" style="stop-color:#707E86;stop-opacity:2.857704e-02"/>
		<stop  offset="0.5265" style="stop-color:#707E86;stop-opacity:0.2"/>
		<stop  offset="1" style="stop-color:#707E86;stop-opacity:0"/>
	</linearGradient>
	<polygon class="st4" points="1732.6,1498.6 1977.4,2035.7 2204.8,2035.7 1961.8,1498.6 	"/>
	<linearGradient id="SVGID_5_" gradientUnits="userSpaceOnUse" x1="2782.8574" y1="1498.5505" x2="2782.8574" y2="2035.7157">
		<stop  offset="0" style="stop-color:#707E86;stop-opacity:0"/>
		<stop  offset="7.522654e-02" style="stop-color:#707E86;stop-opacity:2.857704e-02"/>
		<stop  offset="0.5265" style="stop-color:#707E86;stop-opacity:0.2"/>
		<stop  offset="1" style="stop-color:#707E86;stop-opacity:0"/>
	</linearGradient>
	<polygon class="st5" points="2640.4,1498.6 2720.6,2035.7 2925.4,2035.7 2851.3,1498.6 	"/>
	<linearGradient id="SVGID_6_" gradientUnits="userSpaceOnUse" x1="3532.2292" y1="1498.6422" x2="3532.2292" y2="2035.7157">
		<stop  offset="0" style="stop-color:#707E86;stop-opacity:0"/>
		<stop  offset="7.522654e-02" style="stop-color:#707E86;stop-opacity:2.857704e-02"/>
		<stop  offset="0.5265" style="stop-color:#707E86;stop-opacity:0.2"/>
		<stop  offset="1" style="stop-color:#707E86;stop-opacity:0"/>
	</linearGradient>
	<path class="st6" d="M3742.6,1920.7c44.8-20.4,144.8-221.4,144.8-221.4l-84.5-200.6h-44.8c0,0-91.7,187.5-137.3,279
		c-20.5,41.1-40.6,82.1-65.9,96.9c-30.9,18-101.1,17-142.3,15.1c-11-70.8-56.1-391-56.1-391h-200.9l75.3,537.1h678
		C3873.2,1977.1,3814.7,1941,3742.6,1920.7z"/>
	<linearGradient id="SVGID_7_" gradientUnits="userSpaceOnUse" x1="4263.3545" y1="1498.5505" x2="4263.3545" y2="2035.7157">
		<stop  offset="0" style="stop-color:#707E86;stop-opacity:0"/>
		<stop  offset="7.522654e-02" style="stop-color:#707E86;stop-opacity:2.857704e-02"/>
		<stop  offset="0.5265" style="stop-color:#707E86;stop-opacity:0.2"/>
		<stop  offset="1" style="stop-color:#707E86;stop-opacity:0"/>
	</linearGradient>
	<polygon class="st7" points="4455.9,1498.6 4428.4,1700.3 4125.8,1700.3 4043.3,1498.6 3859.9,1498.6 4095.2,2035.7 4267.4,2035.7 
		4190,1837.8 4410.1,1837.8 4384.3,2035.7 4574.7,2035.7 4666.8,1498.6 	"/>
</g>
</svg>
