<?xml version="1.0" encoding="UTF-8" standalone="no"?>
<!-- Created with Inkscape (http://www.inkscape.org/) -->

<svg
   xmlns:dc="http://purl.org/dc/elements/1.1/"
   xmlns:cc="http://creativecommons.org/ns#"
   xmlns:rdf="http://www.w3.org/1999/02/22-rdf-syntax-ns#"
   xmlns:svg="http://www.w3.org/2000/svg"
   xmlns="http://www.w3.org/2000/svg"
   xmlns:sodipodi="http://sodipodi.sourceforge.net/DTD/sodipodi-0.dtd"
   xmlns:inkscape="http://www.inkscape.org/namespaces/inkscape"
   width="100"
   height="56"
   viewBox="0 0 100 56.000004"
   id="svg2"
   version="1.1"
   inkscape:version="0.92.3 (2405546, 2018-03-11)"
   sodipodi:docname="Science  logo.svg">
  <title
     id="title4161">National Geographic Wild logo</title>
  <defs
     id="defs4">
    <pattern
       y="0"
       x="0"
       height="6"
       width="6"
       patternUnits="userSpaceOnUse"
       id="EMFhbasepattern" />
    <clipPath
       id="clipPath2332"
       clipPathUnits="userSpaceOnUse">
      <path
         style="clip-rule:nonzero"
         inkscape:connector-curvature="0"
         d="m 218.80915,851.06708 c 0,-8.80815 7.14323,-15.94966 15.95138,-15.94966 8.81144,0 15.95123,7.14151 15.95123,15.94966 0,8.80816 -7.13979,15.95131 -15.95123,15.95131 -8.80815,0 -15.95138,-7.14315 -15.95138,-15.95131"
         id="path2334" />
    </clipPath>
  </defs>
  <sodipodi:namedview
     id="base"
     pagecolor="#ffffff"
     bordercolor="#666666"
     borderopacity="1.0"
     inkscape:pageopacity="0.0"
     inkscape:pageshadow="2"
     inkscape:zoom="6.0079847"
     inkscape:cx="50.1453"
     inkscape:cy="29.091749"
     inkscape:document-units="px"
     inkscape:current-layer="layer1"
     showgrid="false"
     units="px"
     inkscape:showpageshadow="false"
     inkscape:window-width="1366"
     inkscape:window-height="705"
     inkscape:window-x="-8"
     inkscape:window-y="-8"
     inkscape:window-maximized="1"
     objecttolerance="1"
     gridtolerance="1">
    <inkscape:grid
       type="xygrid"
       id="grid53" />
  </sodipodi:namedview>
  <metadata
     id="metadata7">
    <rdf:RDF>
      <cc:Work
         rdf:about="">
        <dc:format>image/svg+xml</dc:format>
        <dc:type
           rdf:resource="http://purl.org/dc/dcmitype/StillImage" />
        <dc:title>National Geographic Wild logo</dc:title>
        <cc:license
           rdf:resource="http://scripts.sil.org/OFL" />
      </cc:Work>
      <cc:License
         rdf:about="http://scripts.sil.org/OFL">
        <cc:permits
           rdf:resource="http://scripts.sil.org/pub/OFL/Reproduction" />
        <cc:permits
           rdf:resource="http://scripts.sil.org/pub/OFL/Distribution" />
        <cc:permits
           rdf:resource="http://scripts.sil.org/pub/OFL/Embedding" />
        <cc:permits
           rdf:resource="http://scripts.sil.org/pub/OFL/DerivativeWorks" />
        <cc:requires
           rdf:resource="http://scripts.sil.org/pub/OFL/Notice" />
        <cc:requires
           rdf:resource="http://scripts.sil.org/pub/OFL/Attribution" />
        <cc:requires
           rdf:resource="http://scripts.sil.org/pub/OFL/ShareAlike" />
        <cc:requires
           rdf:resource="http://scripts.sil.org/pub/OFL/DerivativeRenaming" />
        <cc:requires
           rdf:resource="http://scripts.sil.org/pub/OFL/BundlingWhenSelling" />
      </cc:License>
    </rdf:RDF>
  </metadata>
  <g
     inkscape:label="Capa 1"
     inkscape:groupmode="layer"
     id="layer1"
     transform="translate(0,-996.3622)">
    <path
       style="fill:#fcd800;fill-opacity:1;stroke-width:0.09821535"
       inkscape:connector-curvature="0"
       d="M 0.66300265,1018.039 V 997.47128 H 15.015217 V 1018.039 Z M 12.938375,1015.9671 V 999.54306 H 2.7296795 v 16.42404 z"
       id="path4315" />
    <g
       id="g4317"
       transform="matrix(0.06999542,0,0,0.06999542,15.585159,980.26828)">
      <path
         style="stroke-width:0.71267283"
         d="m -789.56445,-178.31055 c -17.77406,0 -30.90235,16.24169 -30.90235,36.67188 0,22.06435 11.85189,39.07422 30.90235,39.07422 v -0.35743 c 19.05117,0 30.90039,-16.95747 30.90039,-38.71679 0,-20.43019 -13.12633,-36.67188 -30.90039,-36.67188 z m -215.18555,1.58203 v 72.88672 h 10.21484 v -52.25 c 11.74699,18.84664 23.54564,35.49649 35.39454,52.25 h 8.93945 v -72.88672 h -10.21485 v 51.94532 c -11.64507,-18.74544 -23.44264,-35.29443 -35.29296,-51.94532 z m 83.45898,0 -0.30664,0.0527 -25.23242,72.83398 h 10.82813 l 6.33398,-19.86914 h 21.96289 l 5.71875,19.86914 h 13.94531 l -23.0371,-72.88672 z m 80.85352,0 v 72.88672 h 12.41211 v -72.88672 z m 89.23242,0 v 72.88672 h 10.21485 v -52.25 c 11.74698,18.84664 23.54563,35.49649 35.39453,52.25 h 8.93945 v -72.88672 h -10.2168 v 51.94532 c -11.64436,-18.74544 -23.44335,-35.29443 -35.29297,-51.94532 z m 120.53906,0 v 72.88672 h 37.08204 v -9.80664 h -24.66993 v -63.08008 z m -264.67968,0.0527 v 9.75586 h 19.15429 v 63.07812 h 12.36133 v -63.07812 h 19.1543 v -9.75586 z m 227.44531,0 -25.18164,72.88476 h 10.83008 l 6.33203,-19.86914 h 21.96289 l 5.7207,19.86914 h 13.94336 l -23.24023,-72.88476 h -10.21485 z m -121.66406,8.98828 c 12.51453,0 17.57031,12.82145 17.57031,26.25391 0,13.43388 -4.5455,28.29687 -17.57031,28.29687 -13.0241,0 -17.62305,-14.35272 -17.62305,-28.29687 0,-13.94416 5.10922,-26.25391 17.62305,-26.25391 z m -128.40625,5.36328 c 2.91127,11.23671 5.51592,20.12454 8.22265,29.67578 h -16.65039 c 2.91127,-9.55124 5.82292,-18.43978 8.42774,-29.67578 z m 253.69726,0 c 2.91127,11.23671 5.51379,20.12454 8.22266,29.67578 h -16.65039 c 2.91198,-9.55124 5.82363,-18.43978 8.42773,-29.67578 z m -210.33398,78.455079 c -17.77335,0 -30.90039,16.241683 -30.90039,36.671875 0,21.962439 11.84922,38.9199223 30.90039,38.9199222 v -0.203125 c 19.05117,0 30.90039,-16.9588952 30.90039,-38.7167972 0,-20.430192 -13.12562,-36.671875 -30.90039,-36.671875 z m -103.5332,0.205079 c -21.86058,0 -35.39648,17.415125 -35.39648,37.285156 0,21.451452 13.5354,38.1015624 34.98827,38.1015622 7.13172,-0.1959848 14.16406,-1.7189934 20.73633,-4.4941402 v -30.083985 h -12.51367 v 22.371094 c -2.71956,1.303479 -5.71853,1.91948 -8.73242,1.789063 -10.93169,0 -21.14651,-10.930253 -21.14651,-27.478516 0,-16.548263 9.0411,-27.070313 22.37307,-27.070313 4.70008,0.09764 9.29421,1.416968 13.33008,3.830079 l 4.03515,-8.632813 c -5.18469,-3.623229 -11.34887,-5.582269 -17.67382,-5.617187 z m 174.12109,0 c -21.86124,0 -35.39649,17.415125 -35.39649,37.285156 0,21.451452 13.53612,38.1015624 34.98829,38.1015622 7.13171,-0.1959848 14.16405,-1.7189934 20.73632,-4.4941402 v -30.083985 h -12.51367 v 22.371094 c -2.72098,1.303479 -5.72048,1.91948 -8.73437,1.789063 -10.93027,0 -21.14649,-10.930253 -21.14649,-27.478516 0,-16.548263 9.0425,-27.070313 22.37305,-27.070313 4.70079,0.09764 9.29545,1.416968 13.33203,3.830079 l 4.0332,-8.632813 c -5.18469,-3.623229 -11.34761,-5.582269 -17.67187,-5.617187 z m 306.61328,0.101562 c -21.75861,0 -35.18945,17.417263 -35.18945,37.285156 0,21.452878 13.53347,38.1035159 34.98632,38.1035159 5.8482,-0.1560754 11.53909,-1.9231999 16.44727,-5.1074219 l -3.42383,-9.041016 c -3.74866,2.358947 -8.08512,3.615551 -12.51367,3.626954 -12.05415,0 -22.26953,-10.932206 -22.26953,-27.480469 0,-16.548263 9.24382,-27.06836 21.96289,-27.06836 4.55042,0.208814 8.96974,1.598002 12.82031,4.033203 l 3.9336,-8.732421 c -4.91246,-3.477844 -10.73966,-5.432421 -16.75391,-5.619141 z m -449.06445,1.072266 v 72.9882809 h 37.08008 v -9.8066409 h -24.56836 v -23.546875 h 20.43164 v -9.80664 h -20.43164 v -19.972657 h 20.83984 l -0.0488,-0.04883 v -9.80664 z m 243.78711,0 -25.17969,72.8847652 h 10.8789 l 6.33399,-19.8691402 h 21.96094 l 5.7207,19.8691402 h 13.94531 l -23.24023,-72.8847652 h -10.21485 z m 37.74609,0 v 72.8847652 h 12.51367 V -37.033203 h 5.61914 c 13.14454,0.08837 23.87328,-10.495375 23.96094,-23.640625 0.003,-0.240884 -1.6e-4,-0.482486 -0.006,-0.722656 -0.20454,-14.148694 -8.83673,-21.09375 -22.62695,-21.09375 z m 48.93164,0 v 72.9374996 h 12.41016 V -44.642578 h 25.94726 v 35.0898436 h 12.51367 v -0.052734 -72.6816406 h -12.51367 v 27.785156 h -25.94726 v -27.988281 z m 62.82422,0 v 72.8847652 h 12.41211 V -82.490234 Z m -218.76172,0.05078 v 72.8867186 h 12.51367 V -37.033203 h 5.61914 l 11.7461,27.4804686 h 13.99609 l -14.45508,-30.1874996 c 7.85651,-4.361558 12.69843,-12.670159 12.61719,-21.65625 0,-14.148694 -8.63273,-21.042969 -22.57617,-21.042969 z m -102.66406,9.193359 c 12.46322,0 17.62305,12.820026 17.62304,26.253906 -6.9e-4,13.432458 -4.59823,28.296875 -17.62304,28.296876 -13.0241,0 -17.57031,-14.354144 -17.57031,-28.296876 0,-13.944154 5.1078,-26.253906 17.57031,-26.253906 z m 228.93359,0.521485 c 5.35844,0.0662 9.90423,4.180865 10.39063,9.632812 0.0641,0.718374 0.0534,1.439486 -0.0293,2.154297 0.94073,7.046909 -4.00973,13.520922 -11.05664,14.460938 -0.34778,0.04632 -0.69748,0.07913 -1.04883,0.09766 l 0.15235,-0.103516 -5.10743,0.306641 v -26.507813 h 5.61914 c 0.36351,-0.03238 0.72285,-0.04543 1.08008,-0.04102 z m -107.46484,0.03906 c 5.35849,0.01365 9.94257,4.082644 10.48242,9.53125 0.0748,0.754721 0.0681,1.516949 -0.0195,2.269531 0.91935,7.021253 -4.02829,13.456365 -11.04883,14.375 -0.26583,0.03421 -0.53406,0.06226 -0.80273,0.08008 l -5.10743,0.304688 v -26.509766 h 5.41407 c 0.36315,-0.03594 0.7248,-0.05169 1.08203,-0.05078 z m 54.08203,4.648438 c 2.91127,11.237425 5.51592,20.074468 8.22266,29.677734 h -16.6504 c 2.91127,-9.551241 5.82221,-18.440309 8.42774,-29.677734 z M -1005.6465,66.011719 -1072.377,220.36523 -1132.209,73.554688 h -62.6035 L -1079.2012,346.125 -1007.1855,183.24805 -934.74805,346.125 -819.75,73.554688 h -58.82031 l -60.18946,146.810542 z m 233.16994,7.542969 V 335.04492 h 57.0625 V 73.554688 Z m 130.56445,0 V 335.04492 h 149.02734 l 18.6543,-47.08984 H -584.84961 V 73.554688 Z m 214.95313,0.0059 V 335.05273 h 85.31836 c 77.34199,0 134.64062,-57.67161 134.64062,-130.72851 0,-78.0916 -64.24851,-130.763673 -131.31641,-130.763673 z m 56.83789,47.333982 h 22.38671 c 49.84301,0 83.29102,35.86011 83.29102,83.41211 0,54.6592 -42.19666,83.42969 -80.22656,83.42969 h -25.45117 z"
         transform="matrix(1.4031684,0,0,1.4031684,1480.4367,526.58392)"
         id="path4319"
         inkscape:connector-curvature="0" />
    </g>
    <g
       id="g4335"
       transform="matrix(0.71267283,0,0,0.71267283,-1055.067,629.08015)" />
  </g>
</svg>
