<?xml version="1.0" encoding="utf-8"?>
<!-- Generator: Adobe Illustrator 22.1.0, SVG Export Plug-In . SVG Version: 6.00 Build 0)  -->
<svg version="1.1"
	 id="Layer_1" inkscape:version="0.91 r13725" sodipodi:docname="EI_Reality_2017.svg" xmlns:inkscape="http://www.inkscape.org/namespaces/inkscape" xmlns:sodipodi="http://sodipodi.sourceforge.net/DTD/sodipodi-0.dtd" xmlns:svg="http://www.w3.org/2000/svg"
	 xmlns="http://www.w3.org/2000/svg" xmlns:xlink="http://www.w3.org/1999/xlink" x="0px" y="0px" viewBox="0 0 768.5 206.5"
	 style="enable-background:new 0 0 768.5 206.5;" xml:space="preserve">
<style type="text/css">
	.st0{fill:#28C8B4;}
</style>
<sodipodi:namedview  bordercolor="#666666" borderopacity="1" fit-margin-bottom="0" fit-margin-left="0" fit-margin-right="0" fit-margin-top="0" gridtolerance="10" guidetolerance="10" id="namedview4220" inkscape:current-layer="Layer 1" inkscape:cx="483.79071" inkscape:cy="213.09698" inkscape:object-nodes="true" inkscape:pageopacity="0" inkscape:pageshadow="2" inkscape:snap-center="true" inkscape:snap-global="true" inkscape:snap-intersection-paths="false" inkscape:snap-object-midpoints="true" inkscape:snap-smooth-nodes="true" inkscape:window-height="705" inkscape:window-maximized="1" inkscape:window-width="1366" inkscape:window-x="-8" inkscape:window-y="-8" inkscape:zoom="0.35673249" objecttolerance="10" pagecolor="#ffffff" showgrid="false">
	</sodipodi:namedview>
<path id="rect4321" inkscape:connector-curvature="0" sodipodi:nodetypes="ccccccccccc" class="st0" d="M0,5v198h43V77.4L139.4,203
	H176V5h-43v121L40.1,5H0z"/>
<path id="rect4330" inkscape:connector-curvature="0" sodipodi:nodetypes="ccccccccccccc" class="st0" d="M617.5,5v198h151v-38.5
	h-108v-42H754V84h-93.5V43.5h106V5H617.5z"/>
<path id="rect4339" inkscape:connector-curvature="0" sodipodi:nodetypes="cccccccc" class="st0" d="M405,5l80,199h38.5l80-199
	h-47.1l-51.5,138.7L453.4,5L405,5z"/>
<path id="path4353" inkscape:connector-curvature="0" class="st0" d="M304.9,0c-57.6,0-104.4,46.7-104.4,104.3
	c0,49.4,34.7,92.1,83.1,102.2l18.7-35.8c-35.7-1.4-63.9-30.6-63.9-66.3c0-36.7,29.7-66.4,66.4-66.4c36.7,0,66.4,29.7,66.4,66.4
	c0,10.7-2.6,21.2-7.6,30.7l-37.2,71.2c48.2-10.2,82.6-52.7,82.7-101.9C409.2,46.7,362.5,0,304.9,0z M304.9,75.9
	c-15.7,0-28.5,12.7-28.5,28.5c0,15.7,12.7,28.5,28.5,28.5c15.7,0,28.5-12.7,28.5-28.5C333.3,88.6,320.6,75.9,304.9,75.9z"/>
</svg>
