<?xml version="1.0" standalone="no"?>
<!DOCTYPE svg PUBLIC "-//W3C//DTD SVG 20010904//EN"
 "http://www.w3.org/TR/2001/REC-SVG-20010904/DTD/svg10.dtd">
<svg version="1.0" xmlns="http://www.w3.org/2000/svg"
 width="341.000000pt" height="97.000000pt" viewBox="0 0 341.000000 97.000000"
 preserveAspectRatio="xMidYMid meet">
<metadata>
Created by potrace 1.16, written by Peter Selinger 2001-2019
</metadata>
<g transform="translate(0.000000,97.000000) scale(0.100000,-0.100000)"
fill="#000000" stroke="none">
<path d="M492 858 c-16 -135 -16 -138 7 -138 21 0 31 19 31 60 0 25 4 28 42
33 50 7 68 27 68 78 0 48 -28 69 -90 69 l-46 0 -12 -102z"/>
<path d="M670 953 c0 -5 -7 -55 -15 -113 -8 -58 -15 -108 -15 -112 0 -5 11 -8
24 -8 21 0 25 6 31 50 8 62 22 61 54 -3 18 -36 29 -47 47 -47 29 0 29 -3 4 56
-18 42 -19 49 -5 64 21 24 19 76 -5 100 -15 15 -33 20 -70 20 -27 0 -50 -3
-50 -7z"/>
<path d="M842 858 c-18 -154 -27 -139 84 -136 l97 3 22 75 c24 80 24 80 46
-22 7 -32 17 -58 24 -58 6 0 27 32 46 71 19 39 35 65 36 58 1 -8 5 -40 8 -71
5 -48 10 -58 26 -58 17 0 19 8 19 83 0 122 -8 157 -34 157 -17 0 -30 -16 -56
-67 l-34 -68 -15 68 c-14 62 -17 67 -42 67 -28 0 -24 7 -64 -132 l-16 -58 -55
0 c-51 0 -54 1 -54 25 0 23 4 25 40 25 36 0 40 3 40 25 0 22 -4 25 -35 25 -35
0 -40 5 -29 34 4 11 19 16 44 16 33 0 50 12 50 36 0 2 -31 4 -68 4 l-68 0 -12
-102z"/>
<path d="M1376 951 c-3 -5 -9 -46 -12 -92 -8 -101 6 -127 72 -136 79 -10 107
27 119 160 7 73 6 77 -13 77 -23 0 -28 -11 -37 -95 -10 -82 -19 -97 -58 -93
l-32 3 2 93 c3 85 1 92 -17 92 -10 0 -21 -4 -24 -9z"/>
<path d="M1616 952 c-2 -4 -16 -50 -31 -102 -14 -52 -28 -103 -31 -112 -4 -14
0 -18 19 -18 21 0 26 8 42 68 10 37 20 71 23 77 4 5 13 -24 22 -64 9 -41 21
-76 28 -79 8 -2 25 24 45 67 18 39 35 71 40 71 4 0 7 -32 7 -71 0 -67 1 -70
23 -67 15 2 22 10 21 26 0 12 -1 65 -2 117 l-2 95 -27 0 c-25 -1 -32 -9 -57
-66 -16 -35 -32 -61 -36 -57 -4 4 -12 34 -19 66 -11 50 -15 57 -36 57 -13 0
-26 -4 -29 -8z"/>
<path d="M172 659 c-106 -21 -162 -81 -162 -177 0 -110 38 -152 174 -192 53
-15 103 -33 111 -40 19 -16 19 -60 1 -85 -18 -26 -127 -32 -218 -12 l-68 14 0
-63 0 -63 38 -11 c62 -18 193 -24 252 -11 68 14 124 50 147 93 26 50 23 154
-5 200 -30 48 -55 63 -158 93 -100 29 -126 47 -122 84 5 41 40 53 138 47 47
-3 95 -9 108 -12 21 -6 22 -4 22 59 l0 65 -75 11 c-85 12 -121 13 -183 0z"/>
<path d="M1142 649 c-65 -25 -145 -102 -175 -166 -33 -72 -32 -218 2 -288 57
-114 155 -176 291 -183 116 -5 183 19 262 98 48 48 60 68 79 130 48 160 -19
322 -166 398 -70 36 -215 42 -293 11z m233 -140 c52 -36 78 -83 83 -149 6 -76
-10 -121 -58 -164 -111 -100 -263 -51 -300 97 -23 90 22 190 104 228 51 25
125 19 171 -12z"/>
<path d="M3112 659 c-106 -21 -162 -81 -162 -177 0 -110 38 -152 174 -192 53
-15 103 -33 111 -40 19 -16 19 -60 1 -85 -18 -26 -127 -32 -218 -12 l-68 14 0
-63 0 -63 38 -11 c62 -18 193 -24 252 -11 110 24 164 86 164 191 0 67 -26 125
-68 151 -31 19 -87 39 -163 59 -50 13 -73 33 -73 65 0 45 39 59 138 51 48 -3
97 -9 110 -12 21 -6 22 -4 22 59 l0 65 -75 11 c-85 12 -121 13 -183 0z"/>
<path d="M470 595 l0 -65 90 0 90 0 0 -255 0 -255 70 0 70 0 0 255 0 254 88 3
87 3 3 63 3 62 -251 0 -250 0 0 -65z"/>
<path d="M1670 341 l0 -321 70 0 69 0 3 92 3 93 46 3 c42 3 49 0 74 -30 15
-18 41 -61 58 -95 l31 -63 78 0 c51 0 78 4 78 11 0 24 -65 142 -101 183 l-38
43 34 33 c50 48 69 105 63 185 -7 80 -31 123 -89 155 -41 23 -55 25 -211 28
l-168 4 0 -321z m287 174 c28 -20 38 -73 23 -120 -15 -44 -60 -68 -123 -63
l-42 3 -3 98 -3 97 63 0 c41 0 71 -5 85 -15z"/>
<path d="M2230 340 l0 -320 75 0 75 0 0 320 0 320 -75 0 -75 0 0 -320z"/>
<path d="M2462 393 c3 -247 5 -271 23 -302 36 -62 69 -71 248 -71 l158 0 -3
63 -3 62 -125 3 c-144 3 -150 6 -150 84 l0 48 120 0 120 0 0 65 0 65 -120 0
-120 0 0 60 0 59 133 3 132 3 3 63 3 62 -211 0 -211 0 3 -267z"/>
</g>
</svg>
