<?xml version="1.0" encoding="utf-8"?>
<!-- Generator: Adobe Illustrator 23.0.1, SVG Export Plug-In . SVG Version: 6.00 Build 0)  -->
<!DOCTYPE svg PUBLIC "-//W3C//DTD SVG 1.1//EN" "http://www.w3.org/Graphics/SVG/1.1/DTD/svg11.dtd" [
	<!ENTITY ns_extend "http://ns.adobe.com/Extensibility/1.0/">
	<!ENTITY ns_ai "http://ns.adobe.com/AdobeIllustrator/10.0/">
	<!ENTITY ns_graphs "http://ns.adobe.com/Graphs/1.0/">
	<!ENTITY ns_vars "http://ns.adobe.com/Variables/1.0/">
	<!ENTITY ns_imrep "http://ns.adobe.com/ImageReplacement/1.0/">
	<!ENTITY ns_sfw "http://ns.adobe.com/SaveForWeb/1.0/">
	<!ENTITY ns_custom "http://ns.adobe.com/GenericCustomNamespace/1.0/">
	<!ENTITY ns_adobe_xpath "http://ns.adobe.com/XPath/1.0/">
]>
<svg version="1.1" id="Livello_1" xmlns:x="&ns_extend;" xmlns:i="&ns_ai;" xmlns:graph="&ns_graphs;"
	 xmlns="http://www.w3.org/2000/svg" xmlns:xlink="http://www.w3.org/1999/xlink" x="0px" y="0px" viewBox="0 0 1466.223 1078"
	 enable-background="new 0 0 1466.223 1078" xml:space="preserve">
<metadata>
	<sfw  xmlns="&ns_sfw;">
		<slices></slices>
		<sliceSourceBounds  bottomLeftOrigin="true" height="1078" width="1466.223" x="0" y="-1078"></sliceSourceBounds>
	</sfw>
</metadata>
<g>
	<g>
		<rect fill="#00B46E" width="1078" height="1078"/>
		<path fill="#FFFFFF" d="M320.277,464.5c0,45.756-40.176,52.5-75.888,52.5H234V412h10.389
			C280.101,412,320.277,418.744,320.277,464.5z M474.285,749L342.039,576.551c59.706-10.602,92.07-60.847,92.07-118.879
			c0-89.838-63.054-129.671-146.196-129.671H124v421h110V587h0.903l103.229,162H474.285z M692.1,607.817
			c0,36.626-24.23,64.801-65.928,64.801c-41.698,0-65.927-28.175-65.927-64.801c0-35.5,24.229-65.363,65.927-65.363
			C667.87,542.454,692.1,572.317,692.1,607.817z M791,463H689v28.177c-22-25.357-56.489-37.747-89.734-37.747
			c-85.65,0-144.956,71.004-144.956,153.838c0,82.832,60.293,154.405,145.942,154.405c33.809,0,69.309-12.673,87.34-41.673H689v32
			h102V463z M952,751H850V465h102V751z M900.936,411.899c-31.248,0-56.916-25.668-56.916-56.916
			c0-31.248,25.668-56.915,56.916-56.915c31.248,0,56.916,25.668,56.916,56.915C957.852,386.231,932.185,411.899,900.936,411.899z"
			/>
	</g>
	<path fill="#00B46E" d="M1163.223,623.693h106.228v4.198c0,13.39,3.995,23.681,11.983,30.875
		c7.99,7.194,19.678,10.791,35.064,10.791c14.004,0,25.197-4.041,33.584-12.132c8.383-8.086,12.576-18.938,12.576-32.549
		c0-15.979-6.02-27.963-18.05-35.951c-12.035-7.99-30.283-11.984-54.741-11.984h-13.02h-7.989v-80.484l5.03,0.592h5.03
		c22.488,0,39.354-4.337,50.599-13.02c11.244-8.678,16.866-21.698,16.866-39.059c0-13.413-3.158-23.968-9.469-31.661
		c-5.918-7.693-14.305-11.54-25.151-11.54c-9.866,0-17.953,3.255-24.264,9.765c-5.724,6.315-8.581,15.192-8.581,26.631v6.806
		h-102.973v-1.479c0-38.86,12.474-70.077,37.431-93.652c24.953-23.57,58.339-35.36,100.162-35.36
		c38.467,0,69.684,10.999,93.652,32.993c23.967,21.998,35.951,50.649,35.951,85.958c0,20.713-5.229,38.568-15.683,53.558
		c-10.458,14.994-25.646,26.238-45.568,33.732c27.023,7.693,47.834,20.121,62.435,37.283c14.596,17.162,21.896,37.977,21.896,62.435
		c0,41.823-13.958,75.949-41.869,102.381c-27.917,26.437-64.062,39.65-108.447,39.65c-24.069,0-45.374-2.973-63.914-8.914
		c-18.545-5.941-34.574-15.003-48.084-27.191c-13.514-12.183-23.672-26.844-30.477-43.982
		C1166.625,665.249,1163.223,645.683,1163.223,623.693z"/>
</g>
</svg>
