<?xml version="1.0" encoding="utf-8"?>
<!-- Generator: Adobe Illustrator 23.0.1, SVG Export Plug-In . SVG Version: 6.00 Build 0)  -->
<!DOCTYPE svg PUBLIC "-//W3C//DTD SVG 1.1//EN" "http://www.w3.org/Graphics/SVG/1.1/DTD/svg11.dtd" [
	<!ENTITY ns_extend "http://ns.adobe.com/Extensibility/1.0/">
	<!ENTITY ns_ai "http://ns.adobe.com/AdobeIllustrator/10.0/">
	<!ENTITY ns_graphs "http://ns.adobe.com/Graphs/1.0/">
	<!ENTITY ns_vars "http://ns.adobe.com/Variables/1.0/">
	<!ENTITY ns_imrep "http://ns.adobe.com/ImageReplacement/1.0/">
	<!ENTITY ns_sfw "http://ns.adobe.com/SaveForWeb/1.0/">
	<!ENTITY ns_custom "http://ns.adobe.com/GenericCustomNamespace/1.0/">
	<!ENTITY ns_adobe_xpath "http://ns.adobe.com/XPath/1.0/">
]>
<svg version="1.1" id="Livello_1" xmlns:x="&ns_extend;" xmlns:i="&ns_ai;" xmlns:graph="&ns_graphs;"
	 xmlns="http://www.w3.org/2000/svg" xmlns:xlink="http://www.w3.org/1999/xlink" x="0px" y="0px" viewBox="0 0 1514.33 1080"
	 enable-background="new 0 0 1514.33 1080" xml:space="preserve">
<metadata>
	<sfw  xmlns="&ns_sfw;">
		<slices></slices>
		<sliceSourceBounds  bottomLeftOrigin="true" height="1080" width="1514.33" x="0" y="0"></sliceSourceBounds>
	</sfw>
</metadata>
<g>
	<path fill="#606923" d="M1298.64,642.734c9.62,16.866,28.28,27.083,46.96,27.083c35.56,0,62.06-24.671,62.06-60.851
		c0-30.681-24.66-55.992-58.42-55.992c-27.73,0-46.4,12.629-57.85,39.752l-86.74-24.084l39.16-239.787h234.94v85.55h-152.41
		l-13.27,65.076c18.08-10.845,37.98-16.279,60.27-16.279c82.51,0,140.99,60.253,140.99,148.228c0,89.146-65.1,154.208-163.9,154.208
		c-87.35,0-143.39-42.801-162.08-122.904H1298.64"/>
	<g>
		<rect fill="#606923" width="1080" height="1080"/>
		<path fill="#FFFFFF" d="M902.942,297.271c-31.412,0-57.228,25.803-57.228,57.214s25.816,57.214,57.228,57.214
			c31.411,0,57.2-25.803,57.2-57.214S934.353,297.271,902.942,297.271"/>
		<rect x="851.891" y="464.994" fill="#FFFFFF" width="102.087" height="287.743"/>
		<path fill="#FFFFFF" d="M342.518,579.422c60.027-10.666,92.544-61.149,92.544-119.484c0-90.316-63.376-130.134-146.945-130.134
			H123.759v422.933h109.94V590.071h1.123l103.762,162.666h136.864L342.518,579.422 M244.349,519.396h-10.65V413.942h10.65
			c35.9,0,76.286,6.731,76.286,52.727C320.635,512.665,280.249,519.396,244.349,519.396z"/>
		<path fill="#FFFFFF" d="M691.049,464.994v28.031c-21.33-25.234-56.092-37.574-89.193-37.574
			c-85.26,0-144.151,70.675-144.151,153.139c0,82.446,60.012,153.677,145.272,153.677c33.655,0,68.985-12.895,86.936-41.494h1.136
			v31.964h102.073V464.994H691.049 M628.779,673.656c-41.508,0-65.62-28.061-65.62-64.513c0-35.346,24.112-65.067,65.62-65.067
			s65.62,29.721,65.62,65.067C694.399,645.595,670.287,673.656,628.779,673.656z"/>
	</g>
</g>
</svg>
