<?xml version="1.0" encoding="utf-8"?>
<!-- Generator: Adobe Illustrator 23.0.1, SVG Export Plug-In . SVG Version: 6.00 Build 0)  -->
<!DOCTYPE svg PUBLIC "-//W3C//DTD SVG 1.1//EN" "http://www.w3.org/Graphics/SVG/1.1/DTD/svg11.dtd" [
	<!ENTITY ns_extend "http://ns.adobe.com/Extensibility/1.0/">
	<!ENTITY ns_ai "http://ns.adobe.com/AdobeIllustrator/10.0/">
	<!ENTITY ns_graphs "http://ns.adobe.com/Graphs/1.0/">
	<!ENTITY ns_vars "http://ns.adobe.com/Variables/1.0/">
	<!ENTITY ns_imrep "http://ns.adobe.com/ImageReplacement/1.0/">
	<!ENTITY ns_sfw "http://ns.adobe.com/SaveForWeb/1.0/">
	<!ENTITY ns_custom "http://ns.adobe.com/GenericCustomNamespace/1.0/">
	<!ENTITY ns_adobe_xpath "http://ns.adobe.com/XPath/1.0/">
]>
<svg version="1.1" id="Livello_1" xmlns:x="&ns_extend;" xmlns:i="&ns_ai;" xmlns:graph="&ns_graphs;"
	 xmlns="http://www.w3.org/2000/svg" xmlns:xlink="http://www.w3.org/1999/xlink" x="0px" y="0px" viewBox="0 0 2611.805 1077.565"
	 enable-background="new 0 0 2611.805 1077.565" xml:space="preserve">
<metadata>
	<sfw  xmlns="&ns_sfw;">
		<slices></slices>
		<sliceSourceBounds  bottomLeftOrigin="true" height="1077.565" width="2611.805" x="0" y="-1078"></sliceSourceBounds>
	</sfw>
</metadata>
<g>
	<g>
		<rect fill="#00CCFF" width="1077.565" height="1077.565"/>
		<path fill="#FFFFFF" d="M243.787,413.025c35.827,0,76.117,6.726,76.117,52.611c0,45.884-40.291,52.61-76.117,52.61h-10.624
			V413.025H243.787 M474.363,751.057L341.737,578.14c59.899-10.652,92.335-61.03,92.335-119.234
			c0-90.102-63.233-129.828-146.612-129.828H123.472v421.979h109.684V588.763h1.13l103.524,162.294H474.363z M689.463,463.964
			v27.972c-21.276-25.174-55.944-37.493-88.973-37.493c-85.074,0-143.843,70.522-143.843,152.798
			c0,82.249,59.899,153.309,144.945,153.309c33.594,0,68.828-12.856,86.741-41.393h1.13v31.9H791.32V463.964H689.463z
			 M627.349,672.161c-41.421,0-65.465-28.001-65.465-64.364c0-35.261,24.044-64.93,65.465-64.93
			c41.421,0,65.465,29.668,65.465,64.93C692.814,644.16,668.77,672.161,627.349,672.161z M951.805,463.964H849.948v287.093h101.857
			V463.964z M900.891,410.789c31.334,0,57.074-25.738,57.074-57.073c0-31.362-25.74-57.102-57.074-57.102
			c-31.334,0-57.102,25.74-57.102,57.102C843.788,385.05,869.557,410.789,900.891,410.789"/>
	</g>
	<g>
		<path fill="#00CCFF" d="M1619.637,755.472h-81.768v-46.874c-33.651,38.482-73.942,54.701-128.614,54.701
			c-63.12,0-116.606-22.829-158.677-67.33c-40.291-42.664-60.719-95.557-60.719-158.677c0-58.909,22.858-112.988,64.929-154.466
			c42.042-40.885,94.963-62.527,155.06-62.527c50.491,0,89.566,13.844,121.409,45.687v-37.267h78.151v140.677h-108.779
			c-21.078-31.898-51.084-48.711-87.165-48.711c-66.115,0-116.012,51.706-116.012,117.2c0,70.326,53.514,124.404,111.802,124.404
			c39.669,0,75.129-21.615,95.585-60.097h-122.031v-85.327h236.828V755.472z"/>
		<path fill="#00CCFF" d="M1976.249,668.917h31.617v86.544h-119.996v-43.258c-21.643,33.057-52.864,48.71-95.556,48.71
			c-72.105,0-114.204-43.314-114.204-125.648V512.643h-41.449v-87.165h137.005v181.563c0,46.251,12.63,67.894,52.327,67.894
			c33.651,0,57.074-24.638,57.074-67.894v-94.398h-37.861v-87.165h131.044V668.917z"/>
		<polygon fill="#00CCFF" points="2072.56,414.684 2032.297,414.684 2032.297,328.141 2165.715,328.141 2165.715,668.296 
			2207.192,668.296 2207.192,755.461 2041.169,755.461 2041.169,668.296 2072.56,668.296 		"/>
		<path fill="#00CCFF" d="M2259.558,512.043h-36.052v-86.57h126.212v40.883c23.479-30.655,54.729-46.281,100.981-46.281
			c92.59,0,161.106,70.948,161.106,170.121c0,99.171-68.517,170.09-161.106,170.09c-42.664,0-74.507-13.224-96.743-41.449v54.079
			h32.464v87.164h-162.915v-87.164h36.052V512.043z M2432.673,672.528c45.687,0,79.338-34.244,79.338-82.331
			c0-48.09-33.651-82.333-79.338-82.333c-45.688,0-79.338,34.244-79.338,82.333C2353.335,638.284,2386.986,672.528,2432.673,672.528
			"/>
	</g>
</g>
</svg>
