<?xml version="1.0" encoding="utf-8"?>
<!-- Generator: Adobe Illustrator 23.0.1, SVG Export Plug-In . SVG Version: 6.00 Build 0)  -->
<!DOCTYPE svg PUBLIC "-//W3C//DTD SVG 1.1//EN" "http://www.w3.org/Graphics/SVG/1.1/DTD/svg11.dtd" [
	<!ENTITY ns_extend "http://ns.adobe.com/Extensibility/1.0/">
	<!ENTITY ns_ai "http://ns.adobe.com/AdobeIllustrator/10.0/">
	<!ENTITY ns_graphs "http://ns.adobe.com/Graphs/1.0/">
	<!ENTITY ns_vars "http://ns.adobe.com/Variables/1.0/">
	<!ENTITY ns_imrep "http://ns.adobe.com/ImageReplacement/1.0/">
	<!ENTITY ns_sfw "http://ns.adobe.com/SaveForWeb/1.0/">
	<!ENTITY ns_custom "http://ns.adobe.com/GenericCustomNamespace/1.0/">
	<!ENTITY ns_adobe_xpath "http://ns.adobe.com/XPath/1.0/">
]>
<svg version="1.1" id="Livello_1" xmlns:x="&ns_extend;" xmlns:i="&ns_ai;" xmlns:graph="&ns_graphs;"
	 xmlns="http://www.w3.org/2000/svg" xmlns:xlink="http://www.w3.org/1999/xlink" x="0px" y="0px" viewBox="0 0 2990 1077.865"
	 enable-background="new 0 0 2990 1077.865" xml:space="preserve">
<metadata>
	<sfw  xmlns="&ns_sfw;">
		<slices></slices>
		<sliceSourceBounds  bottomLeftOrigin="true" height="1077.865" width="2990" x="0" y="-1077.865"></sliceSourceBounds>
	</sfw>
</metadata>
<g>
	<rect fill="#7D0841" width="1077.864" height="1077.865"/>
	<path fill="#FFFFFF" d="M901.172,296.696c-31.328,0-57.126,25.754-57.126,57.084c0,31.372,25.797,57.124,57.126,57.124
		c31.328,0,57.082-25.752,57.082-57.124C958.255,322.45,932.501,296.696,901.172,296.696"/>
	<rect x="850.239" y="464.097" fill="#FFFFFF" width="101.892" height="287.182"/>
	<path fill="#FFFFFF" d="M341.845,578.273c59.934-10.631,92.386-61.014,92.386-119.221c0-90.139-63.261-129.893-146.659-129.893
		h-164.03v422.089h109.714V588.902h1.124l103.534,162.346h136.634L341.845,578.273z M243.885,518.38h-10.63V413.119h10.63
		c35.822,0,76.138,6.741,76.138,52.632S279.707,518.38,243.885,518.38"/>
	<path fill="#FFFFFF" d="M689.692,464.097v27.957c-21.26-25.19-55.959-37.507-89.015-37.507
		c-85.083,0-143.851,70.564-143.851,152.838S516.717,760.788,601.8,760.788c33.575,0,68.835-12.878,86.768-41.442h1.124v31.892
		h101.892v-287.14H689.692z M627.554,672.331c-41.44,0-65.509-27.999-65.509-64.384c0-35.26,24.069-64.946,65.509-64.946
		c41.44,0,65.508,29.687,65.508,64.946C693.062,644.333,668.994,672.331,627.554,672.331"/>
	<polygon fill="#7D0841" points="1338.415,667.302 1374.496,667.302 1374.496,755.671 1202.602,755.671 1202.602,667.302 
		1244.041,667.302 1244.041,415.986 1202.602,415.986 1202.602,328.181 1391.911,328.181 1469.475,607.195 1548.249,328.181 
		1734.62,328.181 1734.62,415.986 1693.137,415.986 1693.137,667.302 1734.62,667.302 1734.62,755.671 1562.12,755.671 
		1562.12,667.302 1598.158,667.302 1598.158,443.642 1501.97,755.671 1436.461,755.671 1338.415,439.406 	"/>
	<path fill="#7D0841" d="M1801.593,467.056c33.057-32.451,77.607-50.512,125.702-50.512c48.094,0,91.954,18.061,125.054,50.512
		c33.057,32.496,50.471,74.583,50.471,123.283c0,48.093-17.414,90.788-50.471,123.238c-33.1,32.496-76.959,49.953-125.054,49.953
		c-48.094,0-92.645-17.457-125.702-49.953c-33.014-32.451-50.471-75.145-50.471-123.238S1768.579,499.552,1801.593,467.056
		 M1927.295,672.094c42.045,0,76.311-36.038,76.311-81.754c0-46.279-33.662-81.757-76.311-81.757
		c-42.131,0-76.96,35.478-76.96,81.757C1850.335,636.057,1885.163,672.094,1927.295,672.094"/>
	<polygon fill="#7D0841" points="2287.539,512.167 2287.539,425.573 2438.476,425.573 2438.476,512.167 2409.611,512.167 
		2317.052,755.708 2221.426,755.708 2130.077,512.167 2101.168,512.167 2101.168,425.573 2253.877,425.573 2253.877,512.167 
		2228.037,512.167 2270.125,641.455 2313.379,512.167 	"/>
	<path fill="#7D0841" d="M2504.369,512.19h-40.316v-86.594h133.523v242.89h41.439v87.201H2462.93v-87.201h41.439V512.19z
		 M2504.369,328.197h93.207v79.336h-93.207V328.197z"/>
	<path fill="#7D0841" d="M2814.475,763.515c-50.557,0-91.392-15.642-125.658-49.953c-33.705-33.012-50.514-75.1-50.514-123.238
		c0-48.093,17.457-90.788,50.514-123.238c33.057-32.496,77.521-50.469,125.658-50.469c60.755,0,114.813,28.822,147.308,76.915
		c19.228,28.26,28.217,60.151,28.217,96.793c0,12.056-1.167,24.631-2.982,37.293h-243.496c7.821,28.864,35.433,48.697,70.953,48.697
		c18.624,0,34.223-6.005,49.304-18.623h113.603C2947.912,725.059,2887.2,763.515,2814.475,763.515 M2888.41,557.266
		c-9.636-36.08-36.039-55.871-73.935-55.871c-34.872,0-62.527,20.395-73.373,55.871H2888.41z"/>
</g>
</svg>
