<?xml version="1.0" encoding="utf-8"?>
<!-- Generator: Adobe Illustrator 23.0.1, SVG Export Plug-In . SVG Version: 6.00 Build 0)  -->
<!DOCTYPE svg PUBLIC "-//W3C//DTD SVG 1.1//EN" "http://www.w3.org/Graphics/SVG/1.1/DTD/svg11.dtd" [
	<!ENTITY ns_extend "http://ns.adobe.com/Extensibility/1.0/">
	<!ENTITY ns_ai "http://ns.adobe.com/AdobeIllustrator/10.0/">
	<!ENTITY ns_graphs "http://ns.adobe.com/Graphs/1.0/">
	<!ENTITY ns_vars "http://ns.adobe.com/Variables/1.0/">
	<!ENTITY ns_imrep "http://ns.adobe.com/ImageReplacement/1.0/">
	<!ENTITY ns_sfw "http://ns.adobe.com/SaveForWeb/1.0/">
	<!ENTITY ns_custom "http://ns.adobe.com/GenericCustomNamespace/1.0/">
	<!ENTITY ns_adobe_xpath "http://ns.adobe.com/XPath/1.0/">
]>
<svg version="1.1"
	 id="svg3025" xmlns:x="&ns_extend;" xmlns:i="&ns_ai;" xmlns:graph="&ns_graphs;" inkscape:version="0.48.4 r9939" sodipodi:docname="RAI_News24_2013.svg" xmlns:cc="http://creativecommons.org/ns#" xmlns:dc="http://purl.org/dc/elements/1.1/" xmlns:inkscape="http://www.inkscape.org/namespaces/inkscape" xmlns:rdf="http://www.w3.org/1999/02/22-rdf-syntax-ns#" xmlns:sodipodi="http://sodipodi.sourceforge.net/DTD/sodipodi-0.dtd" xmlns:svg="http://www.w3.org/2000/svg"
	 xmlns="http://www.w3.org/2000/svg" xmlns:xlink="http://www.w3.org/1999/xlink" x="0px" y="0px" viewBox="0 0 3258.6 975"
	 style="enable-background:new 0 0 3258.6 975;" xml:space="preserve">
<style type="text/css">
	.st0{fill:#999998;}
	.st1{fill:#FEFEFE;}
</style>
<metadata>
	<sfw  xmlns="&ns_sfw;">
		<slices></slices>
		<sliceSourceBounds  bottomLeftOrigin="true" height="975" width="3258.6" x="0" y="0"></sliceSourceBounds>
	</sfw>
</metadata>
<g>
	<polygon class="st0" points="1074.9,293.2 1175.9,293.2 1361.1,531 1362.1,531 1362.1,293.2 1463.2,293.2 1463.2,682.1 
		1362.1,682.1 1177,443.8 1175.9,443.8 1175.9,682.1 1074.9,682.1 	"/>
	<path class="st0" d="M1781.9,565.5h-197.6c0,38.2,20.1,58.8,58.8,58.8c20.1,0,34.5-6.7,44.8-24.2h90.3
		c-14.9,62.4-74.3,90.8-134.6,90.8c-87.7,0-153.2-49.5-153.2-140.8c0-88.2,60.4-141.3,146.5-141.3c91.8,0,144.9,56.7,144.9,147
		V565.5z M1694.7,511.4c-4.6-25.3-27.9-41.8-53.1-41.8c-27.3,0-50,14.4-55.7,41.8H1694.7z"/>
	<polygon class="st0" points="1939.1,560.9 2005.6,417.5 2061.3,417.5 2127.8,560.9 2194.3,417.5 2298,417.5 2159.8,682.1 
		2098.9,682.1 2033.4,537.2 1967.9,682.1 1907.1,682.1 1768.9,417.5 1873,417.5 	"/>
	<path class="st0" d="M2479,485.6c-14.5-7.7-34.6-12.9-50.6-12.9c-10.8,0-29.4,4.6-29.4,18c0,18,29.4,20.6,42.3,23.2
		c43.8,8.8,76.8,29.4,76.8,78.4c0,69.6-63.4,98.5-124.8,98.5c-37.6,0-74.8-10.8-106.7-30.4l34-65.5c19.1,13.4,51.1,26.8,74.3,26.8
		c11.9,0,29.4-5.7,29.4-20.1c0-20.7-29.4-21.7-58.8-29.4c-29.4-7.7-58.8-22.2-58.8-69.6c0-65,58.8-93.9,116.6-93.9
		c29.9,0,59.8,4.6,87.1,17L2479,485.6z"/>
	<path class="st0" d="M2913.6,596.5v85.6h-312.5L2760,509.3c22.7-24.7,44.4-59.8,44.4-95.4c0-24.7-17.5-50.6-44.4-50.6
		c-27.3,0-42.3,21.2-42.3,47.5c0,5.2,0.5,10.8,1.5,16.5h-111.4c3.1-89.2,59.8-149.5,151.7-149.5c81.5,0,150.1,53.6,150.1,138.2
		c0,55.7-23.2,88.2-62.9,124.3l-60.3,56.2H2913.6z"/>
	<path class="st0" d="M3258.6,524.3v77.4h-46.9v80.4h-93.9v-80.4h-188.8v-64.5l150.1-243.9h132.5v231H3258.6z M3117.8,374.7h-1
		L3026,524.3h91.8V374.7z"/>
	<rect class="st0" width="975" height="975"/>
	<path class="st1" d="M422.1,682.5H295.9l-95.7-150h-1v150H97.8v-390h151.6c77,0,135.5,36.7,135.5,120c0,53.8-30,100.4-85.3,110.2
		L422.1,682.5z M199.2,467.4h9.8c33.1,0,70.3-6.2,70.3-48.6c0-42.4-37.2-48.6-70.3-48.6h-9.8V467.4z"/>
	<path class="st1" d="M729.4,682.5h-94.1V653h-1c-16.6,26.4-49.2,38.3-80.2,38.3c-78.7,0-134-65.7-134-141.7
		c0-76,54.3-141.2,132.9-141.2c30.5,0,62.6,11.4,82.2,34.7v-25.9h94.1V682.5z M517.3,550.1c0,33.6,22.2,59.5,60.5,59.5
		c38.2,0,60.5-25.9,60.5-59.5c0-32.6-22.2-60-60.5-60C539.5,490.1,517.3,517.5,517.3,550.1"/>
	<path class="st1" d="M883.5,315.3c0,29-23.8,52.8-52.8,52.8c-29,0-52.8-23.8-52.8-52.8c0-29,23.8-52.7,52.8-52.7
		C859.7,262.6,883.5,286.4,883.5,315.3 M877.9,682.5h-94.1V417.2h94.1V682.5z"/>
</g>
</svg>
