<?xml version="1.0" encoding="utf-8"?>
<!-- Generator: Adobe Illustrator 23.0.1, SVG Export Plug-In . SVG Version: 6.00 Build 0)  -->
<!DOCTYPE svg PUBLIC "-//W3C//DTD SVG 1.1//EN" "http://www.w3.org/Graphics/SVG/1.1/DTD/svg11.dtd" [
	<!ENTITY ns_extend "http://ns.adobe.com/Extensibility/1.0/">
	<!ENTITY ns_ai "http://ns.adobe.com/AdobeIllustrator/10.0/">
	<!ENTITY ns_graphs "http://ns.adobe.com/Graphs/1.0/">
	<!ENTITY ns_vars "http://ns.adobe.com/Variables/1.0/">
	<!ENTITY ns_imrep "http://ns.adobe.com/ImageReplacement/1.0/">
	<!ENTITY ns_sfw "http://ns.adobe.com/SaveForWeb/1.0/">
	<!ENTITY ns_custom "http://ns.adobe.com/GenericCustomNamespace/1.0/">
	<!ENTITY ns_adobe_xpath "http://ns.adobe.com/XPath/1.0/">
]>
<svg version="1.1" id="Livello_1" xmlns:x="&ns_extend;" xmlns:i="&ns_ai;" xmlns:graph="&ns_graphs;"
	 xmlns="http://www.w3.org/2000/svg" xmlns:xlink="http://www.w3.org/1999/xlink" x="0px" y="0px" viewBox="0 0 3842.707 1078"
	 enable-background="new 0 0 3842.707 1078" xml:space="preserve">
<metadata>
	<sfw  xmlns="&ns_sfw;">
		<slices></slices>
		<sliceSourceBounds  bottomLeftOrigin="true" height="1078" width="3842.707" x="0" y="0"></sliceSourceBounds>
	</sfw>
</metadata>
<g>
	<g>
		<rect fill="#135F7E" width="1078" height="1078"/>
		<path fill="#FFFFFF" d="M243.905,413.192c35.832,0,76.124,6.708,76.124,52.651c0,45.897-40.292,52.603-76.124,52.603h-10.612
			V413.192H243.905 M474.565,751.382L341.886,578.365c59.906-10.661,92.387-61.061,92.387-119.266
			c0-90.139-63.26-129.878-146.691-129.878H123.521v422.161h109.757V588.974h1.103l103.601,162.408H474.565z M952.227,751.382
			H850.331V464.155h101.897v287.227H952.227z M901.281,410.95c-31.332,0-57.108-25.773-57.108-57.105
			c0-31.329,25.776-57.105,57.108-57.105c31.329,0,57.105,25.776,57.105,57.105C958.386,385.177,932.61,410.95,901.281,410.95
			 M791.674,751.382h-101.9v-31.931h-1.152c-17.919,28.528-53.152,41.44-86.736,41.44c-85.132,0-145.039-71.117-145.039-153.399
			c0-82.328,58.807-152.847,143.89-152.847c33.031,0,67.766,12.31,89.036,37.485v-27.975h101.9L791.674,751.382L791.674,751.382z
			 M627.625,543.086c-41.44,0-65.515,29.68-65.515,64.965c0,36.385,24.074,64.363,65.515,64.363
			c41.438,0,65.512-27.978,65.512-64.363C693.137,572.766,669.063,543.086,627.625,543.086"/>
	</g>
	<g>
		<path fill="#135F7E" d="M1374.608,525.174c52.19,0,77.85-13.26,77.85-51.835c0-36.107-22.467-49.367-69.2-49.367h-28.156v100.973
			h19.506V525.174L1374.608,525.174z M1394.114,666.936v88.639h-185.882v-88.351h41.307V415.939h-41.307v-87.777h183.713
			c45.04,0,79.307,2.922,107.958,23.551c37.877,26.417,57.589,66.529,57.589,120.107c0,45.04-15.701,82.23-47.504,111.798
			c-31.115,28.881-70.769,34.267-125.436,34.267H1355.1v49.339h39.012L1394.114,666.936L1394.114,666.936z"/>
		<path fill="#135F7E" d="M1620.498,512.323h-38.207v-86.63h126.216v48.249c18.564-36.775,47.499-52.265,88.925-53.584v91.679
			c-61.298,2.926-84.909,29.374-84.909,89.499v66.837h38.438v87.204h-172.686v-87.204h42.454v-156.05H1620.498z"/>
		<path fill="#135F7E" d="M2049.634,557.072c-9.638-36.086-36.086-55.822-74.008-55.822c-34.767,0-62.592,20.424-73.32,55.822
			H2049.634z M1975.626,763.263c-50.486,0-91.277-15.72-125.585-49.798c-33.619-33.218-50.486-75.156-50.486-123.118
			c0-48.249,17.498-90.818,50.486-123.347c32.988-32.529,77.623-50.487,125.585-50.487c60.756,0,114.857,28.915,147.386,76.935
			c19.277,28.284,28.284,60.125,28.284,96.899c0,11.876-1.147,24.669-2.926,37.291h-243.654
			c7.86,28.858,35.455,48.593,70.853,48.593c18.588,0,34.308-5.852,49.339-18.76h113.709
			C2109.071,724.939,2048.257,763.263,1975.626,763.263"/>
		<path fill="#135F7E" d="M2205.339,512.323h-40.159v-86.63h125.069v49.339c23.36-37.234,54.756-55.822,96.254-55.822
			c40.407,0,70.483,21.112,87.3,61.215c26.46-40.848,56.536-60.125,97.402-60.125c66.178,0,104.577,43.946,104.577,126.273v121.799
			h18.932v87.204h-112.447V573.881c0-45.782-10.811-67.984-46.292-67.984c-30.133,0-51.238,24.67-51.238,67.984v94.49h42.454v87.204
			h-132.527V574.001c0-45.752-11.437-67.94-46.955-67.94c-30.115,0-50.576,24.653-50.576,67.94v94.371h37.865v87.204h-172.113
			v-87.204h42.455L2205.339,512.323L2205.339,512.323z"/>
		<path fill="#135F7E" d="M2769.295,328.162h92.941v79.172h-92.941V328.162z M2768.779,512.323h-40.217v-86.63h133.674v242.679
			h41.307v87.204h-176.129v-87.204h41.307V512.323H2768.779z"/>
		<path fill="#135F7E" d="M3234.514,668.945h17.844v86.63h-105.562V712.26c-21.543,33.218-53.026,48.651-95.653,48.651
			c-72.329,0-114.324-43.315-114.324-125.585v-122.43h-41.307v-87.777h136.543v181.823c0,46.275,12.577,68.119,52.32,68.119
			c33.655,0,57.259-24.718,57.259-68.119v-94.619h-37.865v-87.204h130.806v243.826H3234.514z"/>
		<path fill="#135F7E" d="M3330.094,512.323h-40.444v-86.63h125.069v49.339c23.59-37.234,54.756-55.822,96.254-55.822
			c40.178,0,70.483,21.112,87.3,61.215c26.46-40.848,56.535-60.125,97.402-60.125c66.178,0,104.577,43.946,104.577,126.273v121.799
			h42.455v87.204H3707.31V573.881c0-45.782-10.811-67.984-46.292-67.984c-30.133,0-51.238,24.67-51.238,67.984v94.49h42.454v87.204
			h-132.527V574.001c0-45.752-11.437-67.94-46.955-67.94c-30.115,0-50.575,24.653-50.575,67.94v94.371h37.865v87.204h-172.113
			v-87.204h42.455V512.323H3330.094z"/>
	</g>
</g>
</svg>
