<?xml version="1.0" encoding="utf-8"?>
<!-- Generator: Adobe Illustrator 23.0.1, SVG Export Plug-In . SVG Version: 6.00 Build 0)  -->
<!DOCTYPE svg PUBLIC "-//W3C//DTD SVG 1.1//EN" "http://www.w3.org/Graphics/SVG/1.1/DTD/svg11.dtd" [
	<!ENTITY ns_extend "http://ns.adobe.com/Extensibility/1.0/">
	<!ENTITY ns_ai "http://ns.adobe.com/AdobeIllustrator/10.0/">
	<!ENTITY ns_graphs "http://ns.adobe.com/Graphs/1.0/">
	<!ENTITY ns_vars "http://ns.adobe.com/Variables/1.0/">
	<!ENTITY ns_imrep "http://ns.adobe.com/ImageReplacement/1.0/">
	<!ENTITY ns_sfw "http://ns.adobe.com/SaveForWeb/1.0/">
	<!ENTITY ns_custom "http://ns.adobe.com/GenericCustomNamespace/1.0/">
	<!ENTITY ns_adobe_xpath "http://ns.adobe.com/XPath/1.0/">
]>
<svg version="1.1" id="Livello_1" xmlns:x="&ns_extend;" xmlns:i="&ns_ai;" xmlns:graph="&ns_graphs;"
	 xmlns="http://www.w3.org/2000/svg" xmlns:xlink="http://www.w3.org/1999/xlink" x="0px" y="0px" viewBox="0 0 2516.361 1076.434"
	 enable-background="new 0 0 2516.361 1076.434" xml:space="preserve">
<metadata>
	<sfw  xmlns="&ns_sfw;">
		<slices></slices>
		<sliceSourceBounds  bottomLeftOrigin="true" height="1076.434" width="2516.361" x="-0.204" y="-1076.682"></sliceSourceBounds>
	</sfw>
</metadata>
<g>
	<rect fill="#02AD45" width="1076.436" height="1076.434"/>
	<path fill="#FFFFFF" d="M849.093,463.441h101.758v286.805H849.093V463.441z M473.884,750.241H337.465L234.051,588.102h-1.126
		v162.138H123.355V328.673h163.826c83.288,0,146.449,39.691,146.449,129.73c0,58.131-32.409,108.448-92.226,119.073L473.884,750.241
		z M243.553,517.658c35.783,0,76.037-6.718,76.037-52.565c0-45.816-40.254-52.537-76.037-52.537h-10.627v105.102H243.553
		 M790.514,463.426v286.805H688.786v-31.846h-1.125c-17.908,28.502-53.128,41.347-86.664,41.347
		c-84.976,0-144.793-71.007-144.793-153.169c0-82.195,58.694-152.639,143.67-152.639c33.002,0,67.661,12.315,88.913,37.441v-27.939
		H790.514z M626.72,671.411c41.378,0,65.41-27.97,65.41-64.285c0-35.255-24.033-64.882-65.41-64.882
		c-41.38,0-65.412,29.627-65.412,64.882C561.307,643.441,585.34,671.411,626.72,671.411 M899.984,410.315
		c31.314,0,57.004-25.721,57.004-57.035c0-31.285-25.69-57.006-57.004-57.006c-31.316,0-57.036,25.721-57.036,57.006
		C842.947,384.594,868.668,410.315,899.984,410.315"/>
	<polygon fill="#FE0000" points="1444.454,666.396 1444.454,754.654 1259.5,754.654 1259.5,666.396 1300.94,666.396 
		1300.94,596.766 1204.87,415.408 1173.618,415.408 1173.618,327.743 1336.944,327.743 1336.944,415.408 1310.566,415.408 
		1356.758,505.477 1399.417,415.408 1372.977,415.408 1372.977,327.743 1536.304,327.743 1536.304,415.408 1505.708,415.408 
		1406.012,596.766 1406.012,666.396 	"/>
	<path fill="#FFB502" d="M1535.32,466.415c33.004-32.41,77.475-50.412,125.512-50.412c48.035,0,91.881,18.001,124.885,50.412
		c33.002,32.439,50.442,74.475,50.442,123.133c0,48.037-17.44,90.664-50.442,123.074c-33.004,32.409-76.85,49.847-124.885,49.847
		c-48.037,0-92.508-17.438-125.512-49.847c-33.034-32.41-50.44-75.038-50.44-123.074
		C1484.88,541.513,1502.286,498.854,1535.32,466.415 M1660.832,671.18c42.003,0,76.255-36.002,76.255-81.632
		c0-46.253-33.658-81.693-76.255-81.693c-42.036,0-76.852,35.44-76.852,81.693C1583.98,635.178,1618.796,671.18,1660.832,671.18"/>
	<polygon fill="#02AD45" points="2020.611,511.464 2020.611,424.989 2171.342,424.989 2171.342,511.464 2142.495,511.464 
		2025.328,802.522 2062.708,802.522 2062.708,883.058 1909.006,883.058 1909.006,802.522 1940.259,802.522 1957.73,743.547 
		1863.316,511.464 1834.501,511.464 1834.501,424.989 1987.014,424.989 1987.014,511.464 1961.2,511.464 2003.203,629.943 
		2046.425,511.464 	"/>
	<path fill="#05D5ED" d="M2215.522,466.415c33.034-32.41,77.475-50.412,125.512-50.412c48.035,0,91.881,18.001,124.885,50.412
		c33.065,32.439,50.442,74.475,50.442,123.133c0,48.037-17.377,90.664-50.442,123.074c-33.004,32.409-76.85,49.847-124.885,49.847
		c-48.037,0-92.478-17.438-125.512-49.847c-32.971-32.41-50.41-75.038-50.41-123.074
		C2165.113,541.513,2182.551,498.854,2215.522,466.415 M2341.034,671.18c42.034,0,76.255-36.002,76.255-81.632
		c0-46.253-33.595-81.693-76.255-81.693c-42.036,0-76.852,35.44-76.852,81.693C2264.183,635.178,2298.999,671.18,2341.034,671.18"/>
</g>
</svg>
