<?xml version="1.0" encoding="utf-8"?>
<!-- Generator: Adobe Illustrator 22.1.0, SVG Export Plug-In . SVG Version: 6.00 Build 0)  -->
<svg version="1.1" id="Livello_1" xmlns="http://www.w3.org/2000/svg" xmlns:xlink="http://www.w3.org/1999/xlink" x="0px" y="0px"
	 viewBox="0 0 417 410.4" style="enable-background:new 0 0 417 410.4;" xml:space="preserve">
<style type="text/css">
	.st0{fill:url(#SVGID_1_);}
	.st1{fill:#FFFFFF;}
</style>
<g>
	<g>
		<linearGradient id="SVGID_1_" gradientUnits="userSpaceOnUse" x1="208.4814" y1="0" x2="208.4814" y2="410.3691">
			<stop  offset="0" style="stop-color:#EA651E"/>
			<stop  offset="1" style="stop-color:#E64011"/>
		</linearGradient>
		<ellipse class="st0" cx="208.5" cy="205.2" rx="208.5" ry="205.2"/>
	</g>
	<g>
		<path class="st1" d="M273.3,262.7h-18.7v29.6c0,15.6-12.7,28.3-28.3,28.3c-15.6,0-28.2-12.7-28.2-28.3v-29.6h-66.3
			c-15.5,0-28.2-12.6-28.2-28.2c0-6.3,2.1-12.2,5.6-16.8l-0.1,0l94.4-125.4l0,0c5.1-7,13.4-11.6,22.8-11.6
			c15.6,0,28.3,12.6,28.3,28.2v97.3h18.7c15.6,0,28.2,12.7,28.2,28.3C301.5,250.1,288.9,262.7,273.3,262.7"/>
	</g>
</g>
</svg>
