<?xml version="1.0" encoding="utf-8"?>
<!-- Generator: Adobe Illustrator 23.0.1, SVG Export Plug-In . SVG Version: 6.00 Build 0)  -->
<!DOCTYPE svg PUBLIC "-//W3C//DTD SVG 1.1//EN" "http://www.w3.org/Graphics/SVG/1.1/DTD/svg11.dtd" [
	<!ENTITY ns_extend "http://ns.adobe.com/Extensibility/1.0/">
	<!ENTITY ns_ai "http://ns.adobe.com/AdobeIllustrator/10.0/">
	<!ENTITY ns_graphs "http://ns.adobe.com/Graphs/1.0/">
	<!ENTITY ns_vars "http://ns.adobe.com/Variables/1.0/">
	<!ENTITY ns_imrep "http://ns.adobe.com/ImageReplacement/1.0/">
	<!ENTITY ns_sfw "http://ns.adobe.com/SaveForWeb/1.0/">
	<!ENTITY ns_custom "http://ns.adobe.com/GenericCustomNamespace/1.0/">
	<!ENTITY ns_adobe_xpath "http://ns.adobe.com/XPath/1.0/">
]>
<svg version="1.1" id="Livello_1" xmlns:x="&ns_extend;" xmlns:i="&ns_ai;" xmlns:graph="&ns_graphs;"
	 xmlns="http://www.w3.org/2000/svg" xmlns:xlink="http://www.w3.org/1999/xlink" x="0px" y="0px" viewBox="0 0 1933.3 250"
	 enable-background="new 0 0 1933.3 250" xml:space="preserve">
<metadata>
	<sfw  xmlns="&ns_sfw;">
		<slices></slices>
		<sliceSourceBounds  bottomLeftOrigin="true" height="250" width="1933.3" x="-191.8" y="-24.5"></sliceSourceBounds>
	</sfw>
</metadata>
<g>
	<g>
		<path fill="#FFFFFF" d="M1919.4,247.4c6.4,0,11.5-5.2,11.5-11.7V14.3c0-6.4-5.1-11.7-11.5-11.7l-681.7,0v244.7L1919.4,247.4"/>
		<path fill="#9D9D9C" d="M1916.6,0h-679v5.2h679c6.3,0,11.4,5.1,11.4,11.4v216.7c0,6.3-5.1,11.5-11.4,11.5h-679v5.2h679
			c9.2,0,16.7-7.5,16.7-16.7V16.7C1933.3,7.5,1925.8,0,1916.6,0"/>
	</g>
	<linearGradient id="SVGID_1_" gradientUnits="userSpaceOnUse" x1="1586.889" y1="109.6998" x2="1586.889" y2="192.8242">
		<stop  offset="0" style="stop-color:#AE0019"/>
		<stop  offset="0.1" style="stop-color:#AE0019"/>
		<stop  offset="0.9" style="stop-color:#8D0000"/>
		<stop  offset="1" style="stop-color:#8D0000"/>
	</linearGradient>
	<path fill="url(#SVGID_1_)" d="M1315.6,152c0-19,26-21.9,56.6-20.6v20.1c-7.9,10.8-20.5,18.3-34.8,18.3
		C1323.5,169.8,1315.6,161.2,1315.6,152 M1304.6,80.5c-1.2,9.9,1.8,14.9,7,14.9c2,0,4.5-0.9,7.9-1.8c6.5-2,15.8-4.5,26.6-4.5
		c20.8,0,26.2,9.5,26.2,26v2.9c-47-3.1-74.8,8-75.8,33.2v2.6c0.7,16.7,14.1,31.6,37.7,31.6c16.2,0,28.4-6.5,38.4-17.6v9
		c0,4.5,2.9,7,9.7,7c3.4,0,6.8-0.4,8.6-0.9v-68.4c0-25.7-11.9-41.8-43.7-41.8C1331.6,72.8,1315.6,76.4,1304.6,80.5 M1409.1,129
		c0,32.1,23.7,56.4,55,56.4c14.7,0,28.2-4,37.7-8.8c0.9-10.1-2.7-14.6-7.4-14.6c-6.6,0-13.3,7-29.6,7c-20.3,0-37-15.3-37-39.9
		c0-24.6,16.7-39.7,37-39.7c16.2,0,23,7,29.6,7c4.7,0,8.3-4.5,7.4-14.7c-9.5-4.5-23-8.6-37.7-8.6C1432.8,73,1409.1,97,1409.1,129
		 M1611.6,81.4v101.5c1.8,0.4,5.4,0.9,8.6,0.9c7.5,0,9.9-2.5,9.9-7V75.3c-1.8-0.4-5.4-0.9-8.6-0.9
		C1614.1,74.4,1611.6,77.1,1611.6,81.4 M1609.2,45.7c0,6.1,5.4,11.7,11.9,11.7c6.5,0,11.7-5.6,11.7-11.7c0-6.8-5.2-11.7-11.7-11.7
		C1614.6,34,1609.2,39,1609.2,45.7 M1800.6,90.4v-9c0-4.3-2.2-7-9.7-7c-3.4,0-6.8,0.5-8.6,0.9v107.6c1.8,0.4,5.4,0.9,8.6,0.9
		c7.5,0,9.7-2.7,9.7-7v-68.6c5.6-10.1,19-18.7,31.6-18.7c16,0,26.6,10.4,26.6,32v61.4c1.8,0.4,5.4,0.9,8.5,0.9c7.5,0,9.9-2.7,9.9-7
		v-57.8c0-32-18.5-46-40.6-46C1820.5,73,1808.6,80.9,1800.6,90.4 M1671.7,129c0-24.6,16.7-39.7,36.8-39.7c20.3,0,37,15.1,37,39.7
		c0,24.6-16.7,39.9-37,39.9C1688.4,168.9,1671.7,153.6,1671.7,129 M1653,129c0,32.1,23.7,56.4,55.5,56.4c32,0,55.7-24.3,55.7-56.4
		c0-32-23.7-55.9-55.7-55.9C1676.7,73,1653,97,1653,129 M1531.7,48.4c-6.2,0.3-8.9,3.4-8.9,7.9v95.4c0,21,12.9,33.6,34.3,33.6
		c10.9,0,21.7-2.9,31.1-7.5c0.9-9-1.6-13.5-6.7-13.5c-5.2,0-11.5,4.3-22.3,4.3c-11.9,0-18.1-5.9-18.1-18.5V91.5h36.4
		c4.3,0,6.7-2.3,6.7-8.8c0-2.7-0.4-5.9-0.7-7.5h-42.2V49.6c-1.6-0.4-4.4-1-7.4-1.1H1531.7z"/>
	<g>
		<path fill="#FFFFFF" d="M14,2.6C7.6,2.6,2.5,7.9,2.5,14.4v221.3c0,6.4,5.1,11.7,11.5,11.7l406.5,0V2.7L14,2.6"/>
		<path fill="#9D9D9C" d="M16.7,250h403.8v-5.2H16.7c-6.3,0-11.4-5.1-11.4-11.4V16.7c0-6.3,5.1-11.5,11.4-11.5h403.8V0H16.7
			C7.5,0,0,7.5,0,16.7v216.7C0,242.5,7.5,250,16.7,250"/>
	</g>
	
		<linearGradient id="SVGID_2_" gradientUnits="userSpaceOnUse" x1="666.275" y1="554.976" x2="695.8536" y2="554.976" gradientTransform="matrix(0 8.4519 8.4519 0 -3861.0256 -5631.3042)">
		<stop  offset="0" style="stop-color:#AE0019"/>
		<stop  offset="0.1" style="stop-color:#AE0019"/>
		<stop  offset="0.9" style="stop-color:#8D0000"/>
		<stop  offset="1" style="stop-color:#8D0000"/>
	</linearGradient>
	<rect x="416.1" y="0" fill="url(#SVGID_2_)" width="827.1" height="250"/>
	<g>
		<path fill="#FFFFFF" d="M1182.9,109.2v73.9c-2,0.5-5.4,1-8.8,1c-7,0-10-2.4-10-7.3v-9.7c-10.9,11.7-24.1,18.5-41.6,18.5
			c-26,0-40.6-16.8-40.6-35.3c0-28.2,30.4-40.6,81.9-37.2v-3.2c0-18-5.8-28.7-28.7-28.7c-11.9,0-22.1,2.7-28.9,4.9
			c-3.7,1-6.3,2-8.3,2c-5.4,0-8.5-4.9-7.3-15.1c11.7-4.4,28.9-8.3,45.2-8.3C1170.3,64.7,1182.9,81.7,1182.9,109.2 M1164,149.8v-22.4
			c-33.6-1.5-62.5,1.7-62.5,22.6c0,10.2,8.8,19.7,24.3,19.7C1141.6,169.7,1155,161.7,1164,149.8"/>
		<path fill="#FFFFFF" d="M465.8,125c0-34.5,25.5-60.3,59.1-60.3c16.1,0,30.4,4.4,40.6,9.5c1,10.4-2.9,14.8-7.8,14.8
			c-6.8,0-14.3-7.5-32.1-7.5c-22.4,0-40.6,16.8-40.6,43.5c0,27,18.3,44,40.6,44c17.7,0,25.3-7.5,32.1-7.5c4.9,0,8.8,4.4,7.8,14.8
			c-10.2,4.9-24.6,9.2-40.6,9.2C491.3,185.5,465.8,159.5,465.8,125"/>
		<path fill="#FFFFFF" d="M874.9,132.8h-90.5c2.9,22.6,18.7,35.5,42.1,35.5c10,0,17.7-2.2,25.1-4.6c4.9-1.7,7.5-2.7,9.5-2.7
			c4.9,0,8.5,4.6,7.3,15.1c-10.2,4.6-26,9.5-42.5,9.5c-36.2,0-61-24.6-61-60.8c0-34.8,26-60,57.9-60c35.7,0,53.2,28.4,53.2,56.2
			C875.9,124.5,875.7,128.4,874.9,132.8 M784.5,117h72.7c-0.7-19.9-13.6-35.7-34.5-35.7C804.2,81.2,787.6,93.6,784.5,117"/>
		<path fill="#FFFFFF" d="M589.6,35.3c0-7,5.6-12.4,12.4-12.4c6.8,0,12.2,5.4,12.2,12.4c0,6.3-5.4,12.2-12.2,12.2
			C595.2,47.4,589.6,41.6,589.6,35.3 M592.3,183.1V73.5c0-4.4,2.4-7.3,10.2-7.3c3.2,0,6.8,0.7,8.8,1.2v109.4c0,4.6-2.7,7.3-10.2,7.3
			C597.9,184.1,594.3,183.6,592.3,183.1"/>
		<path fill="#FFFFFF" d="M1061.1,106.8v70c0,4.6-2.7,7.3-10.2,7.3c-3.2,0-6.8-0.5-8.8-1v-74.2c0-17.3-8.3-27.5-23.6-27.5
			c-13.1,0-24.3,9.5-28.7,19v76.3c0,4.6-2.4,7.3-10,7.3c-3.4,0-7-0.5-9-1v-74.2c0-17.3-8-27.5-23.6-27.5c-13.1,0-24.3,9.5-28.7,19
			v76.3c0,4.6-2.5,7.3-10,7.3c-3.4,0-7.1-0.5-8.8-1V67.4c2-0.5,5.6-1.2,8.8-1.2c7.3,0,9.7,2.9,9.7,7.8v8.3
			c7.5-10,19.2-17.5,33.6-17.5c15.3,0,27.5,8,33.5,21.1c8-11.7,20.2-21.1,37.4-21.1C1048,64.7,1061.1,83.7,1061.1,106.8"/>
		<path fill="#FFFFFF" d="M744,114.3v62.5c0,4.6-2.4,7.3-10,7.3c-3.2,0-6.8-0.5-8.8-1v-66.4c0-23.8-11.9-35.3-29.2-35.3
			c-13.9,0-28.7,9.7-34.8,20.9v74.4c0,4.6-2.4,7.3-10,7.3c-3.4,0-7-0.5-8.8-1V67.4c1.7-0.5,5.4-1.2,8.8-1.2c7.5,0,10,2.9,10,7.3v10
			c8.5-10.2,21.4-18.7,38.9-18.7C724.1,64.7,744,80,744,114.3"/>
	</g>
	<linearGradient id="SVGID_3_" gradientUnits="userSpaceOnUse" x1="218.6462" y1="225.6076" x2="218.6462" y2="21.1909">
		<stop  offset="0" style="stop-color:#8D0000"/>
		<stop  offset="0.1" style="stop-color:#8D0000"/>
		<stop  offset="0.9" style="stop-color:#AE0019"/>
		<stop  offset="1" style="stop-color:#AE0019"/>
	</linearGradient>
	<path fill="url(#SVGID_3_)" d="M155.5,146.2c0,0.1,0,0.3,0,0.4c0,0.1,0,0.2,0,0.3c0,0.2,0,0.5,0,0.7c0,19.5-12.8,33.8-38.7,36.6
		c-6.7,0.7-14.5,0.9-22.3,0.7c-14.1-0.3-28.3-1.6-36.6-2.6l-0.9-6.8c0-17.1,9.3-21,17.9-21c9,0,23.1,1.6,33.7,1.6
		c11.6,0,15.1-3.9,15.1-7.7c0-4.9-4.7-6.9-13.7-8.7l-3.1-0.6l-21.5-4.1C65,131.2,54.1,117.1,54.1,102c0-18.3,13-33.5,38.4-36.4
		c5.4-0.6,11.2-0.8,16.9-0.8c14.6,0,29.3,1.5,38.5,2.7l0.7,6.6c0,17-9,20.7-17.7,20.7c-6.6,0-16.9-1.3-28.7-1.3c-12,0-17,3.3-17,7.4
		c0,4.3,4.7,6,12.2,7.3l23.5,4.4c19,3.5,29.5,12.8,33.1,24.8c0.7,2.4,1.2,4.9,1.3,7.5c0,0,0,0.1,0,0.1c0,0.1,0,0.3,0,0.5
		c0,0.1,0,0.2,0,0.3C155.5,146,155.5,146.1,155.5,146.2z M165.8,45.7v91.2v47.7c2.3,0.3,4.6,0.5,7.4,0.5c20.4,0,24.5-6,24.5-16.5
		v-32.9V24.9l-7.7-0.8C169.4,24.1,165.8,35.1,165.8,45.7z M370,65.5c-0.3,0-0.6,0-0.9,0c-8.1,0-18.6,2.1-25.3,18.3l-20.6,48.7
		l-40.4-65.9c-2.6-0.8-9-2-13.6-2c-14.3,0-22.3,5.2-30.6,14.2l-39.3,43l8.5,13.4h0l23.1,36.4c5.8,9.1,13.5,13.7,26.1,13.7
		c8.2,0,15-1.9,18.2-3.4l-31.9-48.2l-6.2-9.3L264,96l44.3,69.5l-27,56.9c2.7,1.4,8.2,3,15.1,3.2c8.3,0.2,13.9-2,18.2-6.9
		c0,0,0.1-0.1,0.1-0.1c0.1-0.1,0.1-0.1,0.2-0.2c0.1-0.1,0.2-0.2,0.3-0.3c0.4-0.5,0.8-1.1,1.2-1.6c1.2-1.7,2.2-3.6,3.2-5.8
		l63.7-142.1C380.6,67.2,374.8,65.6,370,65.5z"/>
	<path opacity="0.2" fill="#FFFFFF" enable-background="new    " d="M16.7,0C7.5,0,0,7.5,0,16.7v150.9c0-5.7,2-11.1,5.2-15.3v0
		c4.3-5.7,11.1-9.4,18.8-9.7L1243.1,94V0L16.7,0z"/>
</g>
</svg>
