<?xml version="1.0" encoding="utf-8"?>
<!-- Generator: Adobe Illustrator 23.0.1, SVG Export Plug-In . SVG Version: 6.00 Build 0)  -->
<!DOCTYPE svg PUBLIC "-//W3C//DTD SVG 1.1//EN" "http://www.w3.org/Graphics/SVG/1.1/DTD/svg11.dtd" [
	<!ENTITY ns_extend "http://ns.adobe.com/Extensibility/1.0/">
	<!ENTITY ns_ai "http://ns.adobe.com/AdobeIllustrator/10.0/">
	<!ENTITY ns_graphs "http://ns.adobe.com/Graphs/1.0/">
	<!ENTITY ns_vars "http://ns.adobe.com/Variables/1.0/">
	<!ENTITY ns_imrep "http://ns.adobe.com/ImageReplacement/1.0/">
	<!ENTITY ns_sfw "http://ns.adobe.com/SaveForWeb/1.0/">
	<!ENTITY ns_custom "http://ns.adobe.com/GenericCustomNamespace/1.0/">
	<!ENTITY ns_adobe_xpath "http://ns.adobe.com/XPath/1.0/">
]>
<svg version="1.1" id="Livello_1" xmlns:x="&ns_extend;" xmlns:i="&ns_ai;" xmlns:graph="&ns_graphs;"
	 xmlns="http://www.w3.org/2000/svg" xmlns:xlink="http://www.w3.org/1999/xlink" x="0px" y="0px" viewBox="0 0 1951.9 250"
	 enable-background="new 0 0 1951.9 250" xml:space="preserve">
<metadata>
	<sfw  xmlns="&ns_sfw;">
		<slices></slices>
		<sliceSourceBounds  bottomLeftOrigin="true" height="250" width="1951.9" x="-202.2" y="-309.8"></sliceSourceBounds>
	</sfw>
</metadata>
<g>
	<g>
		<path fill="#FFFFFF" d="M1938,247.3c6.3,0,11.5-5.3,11.5-11.7V14.3c0-6.4-5.2-11.7-11.5-11.7l-698.8,0v244.7L1938,247.3"/>
		<path fill="#9D9D9C" d="M1935.3,0h-696.1v5.2h696.1c6.3,0,11.4,5.1,11.4,11.4v216.7c0,6.3-5.1,11.4-11.4,11.4h-696.1v5.2h696.1
			c9.2,0,16.7-7.4,16.7-16.6V16.7C1951.9,7.4,1944.4,0,1935.3,0"/>
	</g>
	<linearGradient id="SVGID_1_" gradientUnits="userSpaceOnUse" x1="1591.7427" y1="178.1454" x2="1591.7427" y2="82.7312">
		<stop  offset="0" style="stop-color:#8D0000"/>
		<stop  offset="0.1" style="stop-color:#8D0000"/>
		<stop  offset="0.9" style="stop-color:#AE0019"/>
		<stop  offset="1" style="stop-color:#AE0019"/>
	</linearGradient>
	<path fill="url(#SVGID_1_)" d="M1814.7,152c0-19,25.9-21.9,56.6-20.5v20.1c-7.9,10.8-20.5,18.3-34.7,18.3
		C1822.6,169.8,1814.7,161.2,1814.7,152 M1803.6,80.5c-1.1,9.9,1.8,14.9,7,14.9c2,0,4.5-0.9,7.9-1.8c6.5-2,15.8-4.5,26.6-4.5
		c20.7,0,26.1,9.5,26.1,25.9v2.9c-47.8-3.1-75.7,8.4-75.7,34.5c0,17.1,13.5,32.9,37.6,32.9c16.2,0,28.4-6.5,38.3-17.6v9
		c0,4.5,2.9,7,9.7,7c3.4,0,6.7-0.4,8.6-0.9v-68.3c0-25.7-12-41.7-43.7-41.7C1830.7,72.9,1814.7,76.4,1803.6,80.5 M1522.1,152
		c0-19,25.9-21.9,56.6-20.5v20.1c-7.9,10.8-20.5,18.3-34.7,18.3C1530,169.8,1522.1,161.2,1522.1,152 M1511.1,80.5
		c-1.1,9.9,1.8,14.9,7,14.9c2,0,4.5-0.9,7.9-1.8c6.5-2,15.8-4.5,26.6-4.5c20.8,0,26.2,9.5,26.2,25.9v2.9
		c-47.8-3.1-75.7,8.4-75.7,34.5c0,17.1,13.6,32.9,37.6,32.9c16.2,0,28.4-6.5,38.3-17.6v9c0,4.5,3,7,9.7,7c3.4,0,6.8-0.4,8.5-0.9
		v-68.3c0-25.7-11.9-41.7-43.7-41.7C1538.1,72.9,1522.1,76.4,1511.1,80.5 M1312.5,129c0-23.4,15.5-39.7,36.7-39.7
		c14.4,0,28,8.3,34,20.5v38.6c-6.1,12.1-19.6,20.5-34,20.5C1328,168.9,1312.5,152.6,1312.5,129 M1383.2,38.6v53.2
		c-8.1-11-21.2-18.7-37.6-18.7c-26.7,0-50.9,20.2-51.8,53.9v4c0.9,34,25.1,54.2,51.8,54.2c16.5,0,29.5-7.7,37.6-18.7v8.8
		c0,5.6,2.5,8.5,9.9,8.5c3.1,0,6.5-0.7,8.3-1.3V32.5c-1.8-0.4-5-0.9-8.3-0.9C1385.7,31.6,1383.2,34.3,1383.2,38.6 M1704.5,92.7
		c-5.9-12.4-17.1-19.6-31.3-19.6c-13.3,0-24.1,7-31.1,16.2v-7.4c0-4.7-2.2-7.4-9.4-7.4c-3.2,0-6.8,0.4-8.6,0.9v107.5
		c1.8,0.5,5.4,0.9,8.6,0.9c7.4,0,9.7-2.5,9.7-7v-70.3c4-8.5,14.2-16.9,26.1-16.9c14.2,0,21.7,9.2,21.7,25v68.3
		c1.8,0.5,5.4,0.9,8.5,0.9c7.4,0,9.7-2.5,9.7-7v-70.3c4.3-8.5,14.2-16.9,26.2-16.9c14.2,0,21.6,9.2,21.6,25v68.3
		c1.8,0.5,5.4,0.9,8.5,0.9c7.4,0,9.7-2.5,9.7-7v-64.4c0-21.9-12.2-39.2-35.4-39.2C1723.2,73.1,1711.7,81.4,1704.5,92.7 M1427.4,75.3
		v107.5c1.8,0.5,5.4,0.9,8.6,0.9c7.4,0,9.6-2.5,9.6-7v-60.2c8.2-17.3,21.2-24.3,37-24.1c7.7,0.2,10.8-1.6,10.8-9
		c0-3.4-0.7-6.7-0.9-8.4c-20.3-2.7-36.3,5.2-46.9,21.4V81.4c0-4.3-2.2-7-9.6-7C1432.8,74.5,1429.2,74.9,1427.4,75.3"/>
	<g>
		<path fill="#FFFFFF" d="M14,2.6C7.6,2.6,2.5,7.9,2.5,14.3v221.3c0,6.4,5.2,11.7,11.5,11.7l406.4,0V2.7L14,2.6"/>
		<path fill="#9D9D9C" d="M16.7,250h403.7v-5.2H16.7c-6.3,0-11.4-5.1-11.4-11.4V16.7c0-6.3,5.1-11.5,11.4-11.5h403.7V0H16.7
			C7.5,0,0,7.5,0,16.7v216.6C0,242.5,7.5,250,16.7,250"/>
	</g>
	
		<linearGradient id="SVGID_2_" gradientUnits="userSpaceOnUse" x1="718.0244" y1="266.502" x2="748.5514" y2="266.502" gradientTransform="matrix(0 8.1894 8.1894 0 -1352.9664 -5880.1504)">
		<stop  offset="0" style="stop-color:#AE0019"/>
		<stop  offset="0.1" style="stop-color:#AE0019"/>
		<stop  offset="0.9" style="stop-color:#8D0000"/>
		<stop  offset="1" style="stop-color:#8D0000"/>
	</linearGradient>
	<rect x="416" y="0" fill="url(#SVGID_2_)" width="827" height="250"/>
	<g>
		<path fill="#FFFFFF" d="M1182.8,109.2v73.9c-1.9,0.5-5.3,1-8.8,1c-7,0-10-2.4-10-7.3V167c-10.9,11.7-24.1,18.5-41.6,18.5
			c-26,0-40.6-16.8-40.6-35.3c0-28.2,30.4-40.6,81.9-37.2v-3.1c0-18-5.8-28.7-28.7-28.7c-11.9,0-22.1,2.7-28.9,4.9
			c-3.6,1-6.3,2-8.3,2c-5.3,0-8.5-4.9-7.3-15.1c11.7-4.4,28.9-8.3,45.2-8.3C1170.2,64.7,1182.8,81.7,1182.8,109.2 M1163.9,149.8
			v-22.4c-33.5-1.5-62.5,1.7-62.5,22.6c0,10.2,8.8,19.7,24.3,19.7C1141.5,169.7,1154.9,161.7,1163.9,149.8"/>
		<path fill="#FFFFFF" d="M465.7,125c0-34.5,25.5-60.3,59.1-60.3c16.1,0,30.4,4.4,40.6,9.5c1,10.5-2.9,14.8-7.8,14.8
			c-6.8,0-14.3-7.5-32.1-7.5c-22.3,0-40.6,16.8-40.6,43.5c0,27,18.3,44,40.6,44c17.8,0,25.3-7.5,32.1-7.5c4.9,0,8.8,4.4,7.8,14.8
			c-10.2,4.9-24.6,9.2-40.6,9.2C491.2,185.5,465.7,159.5,465.7,125"/>
		<path fill="#FFFFFF" d="M874.9,132.8h-90.4c2.9,22.6,18.7,35.5,42.1,35.5c10,0,17.7-2.2,25-4.6c4.9-1.7,7.5-2.7,9.5-2.7
			c4.9,0,8.5,4.6,7.3,15.1c-10.2,4.6-26,9.5-42.6,9.5c-36.2,0-61-24.5-61-60.8c0-34.8,26-60,57.9-60c35.7,0,53.2,28.4,53.2,56.2
			C875.8,124.5,875.6,128.4,874.9,132.8 M784.4,117h72.7c-0.7-19.9-13.6-35.7-34.5-35.7C804.1,81.2,787.6,93.6,784.4,117"/>
		<path fill="#FFFFFF" d="M589.6,35.3c0-7.1,5.6-12.4,12.4-12.4c6.8,0,12.2,5.3,12.2,12.4c0,6.3-5.3,12.2-12.2,12.2
			C595.2,47.4,589.6,41.6,589.6,35.3 M592.3,183.1V73.4c0-4.4,2.4-7.3,10.2-7.3c3.2,0,6.8,0.7,8.8,1.2v109.4c0,4.6-2.7,7.3-10.2,7.3
			C597.8,184.1,594.2,183.6,592.3,183.1"/>
		<path fill="#FFFFFF" d="M1061.1,106.7v70c0,4.6-2.7,7.3-10.2,7.3c-3.1,0-6.8-0.5-8.7-1v-74.1c0-17.3-8.3-27.5-23.6-27.5
			c-13.1,0-24.3,9.5-28.7,19v76.3c0,4.6-2.4,7.3-10,7.3c-3.4,0-7.1-0.5-9-1v-74.1c0-17.3-8-27.5-23.6-27.5c-13.1,0-24.3,9.5-28.7,19
			v76.3c0,4.6-2.4,7.3-10,7.3c-3.4,0-7.1-0.5-8.8-1V67.4c2-0.5,5.6-1.2,8.8-1.2c7.3,0,9.7,2.9,9.7,7.8v8.3
			c7.5-10,19.2-17.5,33.6-17.5c15.3,0,27.5,8,33.5,21.2c8-11.7,20.2-21.2,37.4-21.2C1047.9,64.7,1061.1,83.6,1061.1,106.7"/>
		<path fill="#FFFFFF" d="M743.9,114.3v62.5c0,4.6-2.4,7.3-10,7.3c-3.2,0-6.8-0.5-8.8-1v-66.4c0-23.8-11.9-35.3-29.2-35.3
			c-13.9,0-28.7,9.7-34.8,20.9v74.4c0,4.6-2.4,7.3-10,7.3c-3.4,0-7.1-0.5-8.7-1V67.4c1.7-0.5,5.3-1.2,8.7-1.2c7.5,0,10,2.9,10,7.3
			v10c8.5-10.2,21.4-18.7,38.9-18.7C724,64.7,743.9,80,743.9,114.3"/>
	</g>
	<linearGradient id="SVGID_3_" gradientUnits="userSpaceOnUse" x1="218.6417" y1="225.61" x2="218.6417" y2="24.1477">
		<stop  offset="0" style="stop-color:#8D0000"/>
		<stop  offset="0.1" style="stop-color:#8D0000"/>
		<stop  offset="0.9" style="stop-color:#AE0019"/>
		<stop  offset="1" style="stop-color:#AE0019"/>
	</linearGradient>
	<path fill="url(#SVGID_3_)" d="M155.5,147.7c0,19.5-12.8,33.8-38.7,36.6c-5.2,0.5-11,0.8-16.9,0.8c-15.7,0-32.6-1.5-41.9-2.6
		l-0.9-6.8c0-17,9.2-20.9,17.9-20.9c9,0,23.2,1.5,33.7,1.5c11.6,0,15.1-3.9,15.1-7.7c0-3.5-2.5-5.6-7.3-7.1l-9.5-2.1l-21.5-4.2
		C65,131.2,54.1,117.1,54.1,102c0-18.3,12.9-33.6,38.3-36.4c5.4-0.6,11.2-0.8,16.9-0.8c14.6,0,29.3,1.5,38.5,2.7l0.8,6.6
		c0,17-9,20.7-17.6,20.7c-6.7,0-17-1.3-28.8-1.3c-12,0-17,3.3-17,7.4c0,4.3,4.8,6,12.3,7.4l23.5,4.4c19,3.5,29.5,12.8,33.1,24.8
		l-0.1,0l0.1,0c0.9,3,1.3,6.1,1.4,9.4c0,0,0,0.1,0,0.1C155.5,147.2,155.5,147.4,155.5,147.7z M370,65.5c-0.3,0-0.6,0-0.9,0
		c-8.1,0-18.5,2.2-25.3,18.3l-19.8,46.9l-0.8,1.8l-1.1-1.7l-39.3-64.2c-2.6-0.8-9-2-13.7-2c-14.3,0-22.3,5.3-30.5,14.3l-39.3,43
		l8.5,13.4l23.1,36.4c5.8,9.1,13.6,13.7,26.1,13.7c8.2,0,15-1.9,18.2-3.4l-32-48.2l0,0l-6.2-9.3l27-28.6l23,36.2l0,0v0l21.2,33.3
		l-27,56.9c2.7,1.4,8.2,3,15.1,3.2c0.3,0,0.6,0,0.9,0c11.3,0,17.6-4.6,22.2-14.9l36.4-81.3l27.3-60.8
		C380.5,67.2,374.7,65.6,370,65.5z M165.8,45.7v91.3v47.7l7.4,0.5c20.4,0,24.5-6,24.5-16.5v-32.9V24.9l-7.7-0.8
		C169.4,24.1,165.8,35.1,165.8,45.7z"/>
	<path opacity="0.2" fill="#FFFFFF" enable-background="new    " d="M16.7,0C7.5,0,0,7.4,0,16.7v150.9c0-5.7,2-11,5.2-15.3v0
		c4.4-5.6,11.1-9.4,18.8-9.7L1243,94V0L16.7,0z"/>
</g>
</svg>
