<?xml version="1.0" encoding="utf-8"?>
<!-- Generator: Adobe Illustrator 23.0.1, SVG Export Plug-In . SVG Version: 6.00 Build 0)  -->
<!DOCTYPE svg PUBLIC "-//W3C//DTD SVG 1.1//EN" "http://www.w3.org/Graphics/SVG/1.1/DTD/svg11.dtd" [
	<!ENTITY ns_extend "http://ns.adobe.com/Extensibility/1.0/">
	<!ENTITY ns_ai "http://ns.adobe.com/AdobeIllustrator/10.0/">
	<!ENTITY ns_graphs "http://ns.adobe.com/Graphs/1.0/">
	<!ENTITY ns_vars "http://ns.adobe.com/Variables/1.0/">
	<!ENTITY ns_imrep "http://ns.adobe.com/ImageReplacement/1.0/">
	<!ENTITY ns_sfw "http://ns.adobe.com/SaveForWeb/1.0/">
	<!ENTITY ns_custom "http://ns.adobe.com/GenericCustomNamespace/1.0/">
	<!ENTITY ns_adobe_xpath "http://ns.adobe.com/XPath/1.0/">
]>
<svg version="1.1" id="Livello_1" xmlns:x="&ns_extend;" xmlns:i="&ns_ai;" xmlns:graph="&ns_graphs;"
	 xmlns="http://www.w3.org/2000/svg" xmlns:xlink="http://www.w3.org/1999/xlink" x="0px" y="0px" viewBox="0 0 1852 271.8"
	 style="enable-background:new 0 0 1852 271.8;" xml:space="preserve">
<style type="text/css">
	.st0{fill:#FFFFFF;}
	.st1{fill:#9D9D9C;}
	.st2{fill:url(#SVGID_1_);}
	.st3{fill:url(#SVGID_2_);}
	.st4{opacity:0.2;fill:#FFFFFF;}
	.st5{fill:url(#SVGID_3_);}
	.st6{fill:url(#SVGID_4_);}
	.st7{fill:url(#SVGID_5_);}
</style>
<metadata>
	<sfw  xmlns="&ns_sfw;">
		<slices></slices>
		<sliceSourceBounds  bottomLeftOrigin="true" height="271.8" width="1852" x="0" y="-421.8"></sliceSourceBounds>
	</sfw>
</metadata>
<g>
	<g>
		<path class="st0" d="M18.1,0C8.1,0,0,8.1,0,18.1v235.5c0,10,8.1,18.1,18.1,18.1h439V0H18.1"/>
		<path class="st0" d="M1833.8,0h-488.4v271.8h488.4c10,0,18.1-8.1,18.1-18.1V18.1C1852,8.1,1843.8,0,1833.8,0"/>
		<path class="st1" d="M1833.8,0h-488.4v5.7h488.4c6.9,0,12.4,5.6,12.4,12.4v235.5c0,6.9-5.6,12.4-12.4,12.4h-488.4v5.7h488.4
			c10,0,18.1-8.1,18.1-18.1V18.1C1852,8.1,1843.8,0,1833.8,0"/>
		<path class="st1" d="M18.1,271.8h439v-5.7h-439c-6.9,0-12.4-5.6-12.4-12.4V18.1c0-6.9,5.6-12.4,12.4-12.4h439V0h-439
			C8.1,0,0,8.1,0,18.1v235.5C0,263.7,8.1,271.8,18.1,271.8"/>
	</g>
	<linearGradient id="SVGID_1_" gradientUnits="userSpaceOnUse" x1="901.829" y1="8.850098e-03" x2="901.829" y2="271.7088">
		<stop  offset="0" style="stop-color:#AE0019"/>
		<stop  offset="0.1" style="stop-color:#AE0019"/>
		<stop  offset="0.9" style="stop-color:#8D0000"/>
		<stop  offset="1" style="stop-color:#8D0000"/>
	</linearGradient>
	<polygon class="st2" points="1351.4,0 452.3,0 452.3,266.1 452.3,271.7 1351.4,271.7 	"/>
	<g>
		<path class="st0" d="M1286,118.7v80.3c-2.1,0.5-5.8,1-9.5,1c-7.6,0-10.8-2.6-10.8-7.9v-10.6c-11.9,12.7-26.2,20.1-45.2,20.1
			c-28.3,0-44.1-18.2-44.1-38.3c0-30.7,33-44.2,89.1-40.4v-3.4c0-19.6-6.4-31.2-31.2-31.2c-13,0-24,2.9-31.4,5.3
			c-4,1.1-6.9,2.1-9,2.1c-5.8,0-9.2-5.3-7.9-16.4c12.7-4.8,31.5-9,49.2-9C1272.2,70.3,1286,88.8,1286,118.7 M1265.4,162.8v-24.3
			c-36.5-1.6-67.9,1.8-67.9,24.6c0,11.1,9.5,21.4,26.4,21.4C1241.1,184.5,1255.6,175.8,1265.4,162.8"/>
		<path class="st0" d="M506.3,135.9c0-37.5,27.7-65.6,64.2-65.6c17.5,0,33,4.8,44.2,10.3c1,11.4-3.2,16.1-8.4,16.1
			c-7.4,0-15.6-8.2-34.9-8.2c-24.3,0-44.1,18.3-44.1,47.3c0,29.3,19.8,47.8,44.1,47.8c19.3,0,27.5-8.2,34.9-8.2
			c5.3,0,9.5,4.8,8.4,16.1c-11.1,5.3-26.7,10-44.2,10C534.1,201.7,506.3,173.4,506.3,135.9"/>
		<path class="st0" d="M951.1,144.3h-98.3c3.2,24.6,20.3,38.6,45.7,38.6c10.8,0,19.3-2.4,27.2-5c5.3-1.9,8.2-2.9,10.3-2.9
			c5.3,0,9.3,5,7.9,16.4c-11.1,5.1-28.3,10.3-46.3,10.3c-39.4,0-66.4-26.7-66.4-66.1c0-37.8,28.3-65.3,62.9-65.3
			c38.9,0,57.9,30.9,57.9,61C952.2,135.3,951.9,139.6,951.1,144.3 M852.8,127.2h79c-0.8-21.7-14.8-38.9-37.6-38.9
			C874.2,88.3,856.2,101.8,852.8,127.2"/>
		<path class="st0" d="M641,38.3c0-7.6,6.1-13.5,13.5-13.5c7.4,0,13.2,5.8,13.2,13.5c0,6.9-5.8,13.2-13.2,13.2
			C647.1,51.5,641,45.2,641,38.3 M643.9,199.1V79.9c0-4.8,2.6-7.9,11.1-7.9c3.4,0,7.4,0.8,9.5,1.3v119c0,5-2.9,7.9-11.1,7.9
			C650,200.1,646,199.6,643.9,199.1"/>
		<path class="st0" d="M1153.6,116.1v76.1c0,5-2.9,7.9-11.1,7.9c-3.4,0-7.4-0.5-9.5-1v-80.6c0-18.8-9-29.9-25.6-29.9
			c-14.3,0-26.4,10.3-31.2,20.6v83c0,5-2.6,7.9-10.8,7.9c-3.7,0-7.7-0.5-9.8-1v-80.6c0-18.8-8.7-29.9-25.7-29.9
			c-14.3,0-26.4,10.3-31.2,20.6v83c0,5-2.6,7.9-10.8,7.9c-3.7,0-7.7-0.5-9.5-1V73.2c2.1-0.5,6.1-1.3,9.5-1.3
			c7.9,0,10.6,3.2,10.6,8.5v9c8.2-10.9,20.9-19,36.5-19c16.7,0,29.9,8.7,36.5,23c8.7-12.7,22-23,40.7-23
			C1139.3,70.3,1153.6,90.9,1153.6,116.1"/>
		<path class="st0" d="M808.8,124.2v67.9c0,5-2.6,7.9-10.8,7.9c-3.5,0-7.4-0.5-9.5-1v-72.2c0-25.9-13-38.3-31.7-38.3
			c-15.1,0-31.2,10.6-37.8,22.7v80.9c0,5-2.6,7.9-10.8,7.9c-3.7,0-7.7-0.5-9.5-1V73.2c1.8-0.5,5.8-1.3,9.5-1.3
			c8.2,0,10.8,3.2,10.8,7.9v10.8c9.2-11.1,23.3-20.3,42.3-20.3C787.1,70.3,808.8,87,808.8,124.2"/>
	</g>
	<linearGradient id="SVGID_2_" gradientUnits="userSpaceOnUse" x1="237.6786" y1="26.2368" x2="237.6786" y2="245.2628">
		<stop  offset="0" style="stop-color:#AE0019"/>
		<stop  offset="0.1" style="stop-color:#AE0019"/>
		<stop  offset="0.9" style="stop-color:#8D0000"/>
		<stop  offset="1" style="stop-color:#8D0000"/>
	</linearGradient>
	<path class="st3" d="M169,158.5c0,0.1,0,0.3,0,0.4c0,0.1,0,0.3,0,0.5c0,0.1,0,0.2,0,0.3c0,0.3,0,0.5,0,0.8
		c0,21.2-13.9,36.7-42.1,39.8c-3,0.3-6.3,0.5-9.7,0.6c-11.6,0.5-24.6-0.1-35.7-0.9c-7.4-0.6-13.9-1.2-18.6-1.8L62,191
		c0-18.6,10-22.8,19.4-22.8c9.8,0,25.2,1.7,36.6,1.7c12.6,0,16.5-4.3,16.5-8.3c0-5.3-5.1-7.5-14.9-9.4l-3.3-0.6l-23.4-4.5
		c-22.3-4.3-34.1-19.6-34.1-36c0-19.9,14.1-36.5,41.7-39.5c5.9-0.6,12.1-0.9,18.4-0.9c15.9,0,31.9,1.7,41.9,2.9l0.8,7.1
		c0,18.5-9.7,22.5-19.2,22.5c-7.3,0-18.5-1.3-31.2-1.3c-13.1,0-18.4,3.6-18.4,8c0,4.7,5.1,6.6,13.3,8l25.5,4.8
		c20.7,3.8,32,13.9,35.9,27c0.8,2.6,1.3,5.3,1.5,8.2c0,0,0,0.1,0,0.1c0,0.2,0,0.4,0,0.5C169,158.4,169,158.4,169,158.5z M402.2,71.2
		c-0.3,0-0.6,0-0.9,0c-8.8,0-20.2,2.3-27.5,19.8L352.1,142l0,0l-0.8,2l-1.2-1.9l-42.9-69.7c-2.8-0.9-9.7-2.1-14.8-2.1
		c-15.5,0-24.2,5.7-33.2,15.5l-42.8,46.8l9.3,14.6l25.1,39.5c6.3,9.9,14.8,14.9,28.4,14.9c8.9,0,16.3-2,19.7-3.7l-34.7-52.3
		l-6.7-10.1l29.3-31.1l25,39.3l23.1,36.3l-29.3,61.9c2.9,1.5,8.9,3.3,16.5,3.5c0.4,0,0.7,0,1,0c2.3,0,4.4-0.1,6.3-0.5
		c0.1,0,0.2,0,0.3-0.1c0,0,0.1,0,0.1,0c8.2-1.7,13.3-6.6,17.4-15.6l39.6-88.4l29.7-66.1C413.7,73,407.4,71.3,402.2,71.2z
		 M180.2,49.7v99.2v51.8l8,0.6c22.3,0,26.7-6.6,26.7-18v-35.8V27.1l-8.3-0.8C184.1,26.2,180.2,38.2,180.2,49.7z"/>
	<path class="st4" d="M18.1,0C8.1,0,0,8.1,0,18.1v164.1c0-6.2,2.1-12,5.6-16.6v0c4.8-6.2,12.1-10.2,20.5-10.5l1325.3-52.8V0L18.1,0z
		"/>
	<g>
		<linearGradient id="SVGID_3_" gradientUnits="userSpaceOnUse" x1="1734.8235" y1="79.3424" x2="1734.8235" y2="202.0421">
			<stop  offset="0" style="stop-color:#AE0019"/>
			<stop  offset="0.1" style="stop-color:#AE0019"/>
			<stop  offset="0.9" style="stop-color:#8D0000"/>
			<stop  offset="1" style="stop-color:#8D0000"/>
		</linearGradient>
		<path class="st5" d="M1737,79.3c-33.3,0-58.7,25.7-58.7,60.6c0,36.7,25.4,62.1,61.8,62.1c17,0,33.3-5.2,43.6-9.8
			c1.3-10.6-2.5-15.5-7.6-15.5c-2,0-4.7,0.7-9.6,2.4c-7.6,2.5-15.5,4.9-25.4,4.9c-23.4,0-38.9-13.1-42.1-35.5h91.4
			c0.8-4.4,1-8.6,1-12.3C1791.4,107.9,1773.4,79.3,1737,79.3z M1699,132.1c3-23.2,19.2-35.5,38-35.5c20.9,0,33.7,15.5,34.5,35.5
			H1699z"/>
		<linearGradient id="SVGID_4_" gradientUnits="userSpaceOnUse" x1="1605.1974" y1="80.7142" x2="1605.1974" y2="201.7888">
			<stop  offset="0" style="stop-color:#AE0019"/>
			<stop  offset="0.1" style="stop-color:#AE0019"/>
			<stop  offset="0.9" style="stop-color:#8D0000"/>
			<stop  offset="1" style="stop-color:#8D0000"/>
		</linearGradient>
		<path class="st6" d="M1637.1,88.4v75c-6.2,11.1-20.7,20.5-34.5,20.5c-17.5,0-29.1-11.3-29.1-35V81.7c-2-0.5-5.9-1-9.3-1
			c-8.2,0-10.9,3-10.9,7.6v63.1c0,35,20,50.3,44.2,50.3c17.5,0,30.8-7.9,39.9-18v8.6c0,4.7,2.5,7.9,10.1,7.9c3.7,0,7.6-0.5,9.6-1
			V81.7c-2-0.5-5.9-1-9.4-1C1639.6,80.7,1637.1,83.7,1637.1,88.4z"/>
		<linearGradient id="SVGID_5_" gradientUnits="userSpaceOnUse" x1="1467.2908" y1="34.8621" x2="1467.2908" y2="201.8989">
			<stop  offset="0" style="stop-color:#AE0019"/>
			<stop  offset="0.1" style="stop-color:#AE0019"/>
			<stop  offset="0.9" style="stop-color:#8D0000"/>
			<stop  offset="1" style="stop-color:#8D0000"/>
		</linearGradient>
		<path class="st7" d="M1465.1,201.9c17.9,0,32.1-8.3,41-20.3v9.6c0,6.1,2.7,9.3,10.8,9.3c3.5,0,7.1-0.8,9.1-1.5V35.8
			c-1.9-0.5-5.3-1-8.9-1h-0.2c-8,0-10.7,3-10.7,7.6v57.9c-8.9-12-23.1-20.4-41-20.4c-29.7,0-56.4,22.8-56.4,60.8
			C1408.7,179.1,1435.4,201.9,1465.1,201.9z M1469,97.6c15.7,0,30.4,9.1,37.1,22.3v42c-6.7,13.2-21.4,22.3-37.1,22.3
			c-23.1,0-40-17.6-40-43.4C1429.1,115.3,1446,97.6,1469,97.6z"/>
	</g>
</g>
</svg>
