<?xml version="1.0" encoding="utf-8"?>
<!-- Generator: Adobe Illustrator 23.0.1, SVG Export Plug-In . SVG Version: 6.00 Build 0)  -->
<!DOCTYPE svg PUBLIC "-//W3C//DTD SVG 1.1//EN" "http://www.w3.org/Graphics/SVG/1.1/DTD/svg11.dtd" [
	<!ENTITY ns_extend "http://ns.adobe.com/Extensibility/1.0/">
	<!ENTITY ns_ai "http://ns.adobe.com/AdobeIllustrator/10.0/">
	<!ENTITY ns_graphs "http://ns.adobe.com/Graphs/1.0/">
	<!ENTITY ns_vars "http://ns.adobe.com/Variables/1.0/">
	<!ENTITY ns_imrep "http://ns.adobe.com/ImageReplacement/1.0/">
	<!ENTITY ns_sfw "http://ns.adobe.com/SaveForWeb/1.0/">
	<!ENTITY ns_custom "http://ns.adobe.com/GenericCustomNamespace/1.0/">
	<!ENTITY ns_adobe_xpath "http://ns.adobe.com/XPath/1.0/">
]>
<svg version="1.1" id="Livello_1" xmlns:x="&ns_extend;" xmlns:i="&ns_ai;" xmlns:graph="&ns_graphs;"
	 xmlns="http://www.w3.org/2000/svg" xmlns:xlink="http://www.w3.org/1999/xlink" x="0px" y="0px" viewBox="0 0 2159.7 250"
	 enable-background="new 0 0 2159.7 250" xml:space="preserve">
<metadata>
	<sfw  xmlns="&ns_sfw;">
		<slices></slices>
		<sliceSourceBounds  bottomLeftOrigin="true" height="250" width="2159.7" x="-52" y="-119"></sliceSourceBounds>
	</sfw>
</metadata>
<g>
	<g>
		<path fill="#FFFFFF" d="M16.7,0C7.5,0,0,7.5,0,16.7v216.7c0,9.2,7.5,16.7,16.7,16.7h403.8V0H16.7"/>
		<path fill="#FFFFFF" d="M2143.1,0h-903.9v250h903.9c9.2,0,16.7-7.5,16.7-16.7V16.7C2159.7,7.5,2152.3,0,2143.1,0"/>
		<path fill="#9D9D9C" d="M2143.1,0h-903.9v5.2h903.9c6.3,0,11.5,5.1,11.5,11.5v216.7c0,6.3-5.1,11.5-11.5,11.5h-903.9v5.2h903.9
			c9.2,0,16.7-7.5,16.7-16.7V16.7C2159.7,7.5,2152.3,0,2143.1,0"/>
		<path fill="#9D9D9C" d="M16.7,250h403.8v-5.2H16.7c-6.3,0-11.5-5.1-11.5-11.5V16.7c0-6.3,5.1-11.5,11.5-11.5h403.8V0H16.7
			C7.5,0,0,7.5,0,16.7v216.7C0,242.5,7.5,250,16.7,250"/>
	</g>
	
		<linearGradient id="SVGID_1_" gradientUnits="userSpaceOnUse" x1="572.6988" y1="442.428" x2="602.4518" y2="442.428" gradientTransform="matrix(0 8.4013 8.4013 0 -2887.3643 -4811.415)">
		<stop  offset="0" style="stop-color:#AE0019"/>
		<stop  offset="0.1" style="stop-color:#AE0019"/>
		<stop  offset="0.9" style="stop-color:#8D0000"/>
		<stop  offset="1" style="stop-color:#8D0000"/>
	</linearGradient>
	<rect x="416" y="0" fill="url(#SVGID_1_)" width="827.1" height="250"/>
	<g>
		<path fill="#FFFFFF" d="M1183,109.2v73.9c-1.9,0.5-5.3,1-8.7,1c-7.1,0-10-2.4-10-7.3v-9.7c-11,11.7-24.1,18.5-41.6,18.5
			c-26,0-40.6-16.8-40.6-35.3c0-28.2,30.4-40.6,82-37.2v-3.2c0-18-5.8-28.7-28.7-28.7c-11.9,0-22.1,2.7-29,4.8
			c-3.6,1-6.3,1.9-8.2,1.9c-5.4,0-8.5-4.8-7.3-15.1c11.7-4.4,29-8.3,45.2-8.3C1170.3,64.7,1183,81.7,1183,109.2 M1164,149.8v-22.4
			c-33.6-1.5-62.5,1.7-62.5,22.6c0,10.2,8.7,19.7,24.3,19.7C1141.6,169.7,1155,161.7,1164,149.8"/>
		<path fill="#FFFFFF" d="M465.8,125c0-34.5,25.5-60.3,59.1-60.3c16,0,30.4,4.4,40.6,9.5c1,10.5-2.9,14.8-7.8,14.8
			c-6.8,0-14.3-7.6-32.1-7.6c-22.4,0-40.6,16.8-40.6,43.5c0,27,18.2,44,40.6,44c17.8,0,25.3-7.5,32.1-7.5c4.9,0,8.7,4.4,7.8,14.8
			c-10.2,4.9-24.5,9.3-40.6,9.3C491.3,185.5,465.8,159.5,465.8,125"/>
		<path fill="#FFFFFF" d="M874.9,132.8h-90.5c2.9,22.6,18.7,35.5,42.1,35.5c10,0,17.7-2.2,25-4.6c4.9-1.7,7.5-2.7,9.5-2.7
			c4.9,0,8.5,4.6,7.3,15.1c-10.2,4.6-26,9.5-42.6,9.5c-36.2,0-61-24.6-61-60.8c0-34.8,26-60.1,57.9-60.1c35.7,0,53.2,28.4,53.2,56.2
			C875.9,124.5,875.7,128.4,874.9,132.8 M784.5,117h72.7c-0.7-19.9-13.6-35.7-34.5-35.7C804.2,81.2,787.6,93.6,784.5,117"/>
		<path fill="#FFFFFF" d="M589.6,35.3c0-7.1,5.6-12.4,12.4-12.4c6.8,0,12.1,5.4,12.1,12.4c0,6.3-5.3,12.1-12.1,12.1
			C595.2,47.4,589.6,41.6,589.6,35.3 M592.3,183.1V73.4c0-4.4,2.4-7.3,10.2-7.3c3.2,0,6.8,0.7,8.7,1.2v109.4c0,4.6-2.7,7.3-10.2,7.3
			C597.9,184.1,594.2,183.6,592.3,183.1"/>
		<path fill="#FFFFFF" d="M1061.2,106.8v70c0,4.6-2.7,7.3-10.2,7.3c-3.2,0-6.8-0.5-8.8-1V109c0-17.3-8.2-27.5-23.6-27.5
			c-13.1,0-24.3,9.5-28.7,19v76.3c0,4.6-2.4,7.3-10,7.3c-3.4,0-7.1-0.5-9-1V109c0-17.3-8-27.5-23.6-27.5c-13.2,0-24.3,9.5-28.7,19
			v76.3c0,4.6-2.4,7.3-10,7.3c-3.4,0-7-0.5-8.7-1V67.4c2-0.5,5.6-1.2,8.7-1.2c7.3,0,9.7,2.9,9.7,7.8v8.3c7.6-10,19.2-17.5,33.6-17.5
			c15.3,0,27.5,8,33.6,21.2c8-11.7,20.2-21.2,37.4-21.2C1048,64.7,1061.2,83.7,1061.2,106.8"/>
		<path fill="#FFFFFF" d="M744,114.3v62.5c0,4.6-2.4,7.3-10,7.3c-3.2,0-6.8-0.5-8.7-1v-66.4c0-23.8-11.9-35.3-29.2-35.3
			c-13.8,0-28.7,9.7-34.8,20.9v74.4c0,4.6-2.4,7.3-10,7.3c-3.4,0-7.1-0.5-8.7-1V67.4c1.7-0.5,5.3-1.2,8.7-1.2c7.5,0,10,2.9,10,7.3
			v10c8.5-10.2,21.4-18.7,38.9-18.7C724.1,64.7,744,80,744,114.3"/>
	</g>
	<linearGradient id="SVGID_2_" gradientUnits="userSpaceOnUse" x1="218.652" y1="225.6044" x2="218.652" y2="24.1326">
		<stop  offset="0" style="stop-color:#8D0000"/>
		<stop  offset="0.1" style="stop-color:#8D0000"/>
		<stop  offset="0.9" style="stop-color:#AE0019"/>
		<stop  offset="1" style="stop-color:#AE0019"/>
	</linearGradient>
	<path fill="url(#SVGID_2_)" d="M155.5,146.7c0,0.1,0,0.1,0,0.2c0,0.3,0,0.5,0,0.7c0,19.5-12.8,33.8-38.7,36.6
		c-6,0.6-12.9,0.8-19.8,0.7c-11.1-0.1-22.5-1-31.2-1.8c0,0-0.1,0-0.1,0c-0.3,0-0.7-0.1-0.9-0.1c-2.2-0.2-4.3-0.4-6.1-0.6
		c-0.2,0-0.4-0.1-0.7-0.1l-0.9-6.8c0-17.1,9.3-21,17.9-21c9,0,23.1,1.6,33.7,1.6c11.6,0,15.1-4,15.1-7.7c0-4.9-4.7-6.9-13.7-8.7
		l-3-0.6l-21.6-4.2c-20.4-3.9-31.4-18.1-31.4-33.1c0-18.3,12.9-33.6,38.3-36.4c5.4-0.6,11.2-0.8,16.9-0.8c14.7,0,29.3,1.5,38.6,2.7
		l0.7,6.6c0,17-9,20.7-17.7,20.7c-6.7,0-17-1.3-28.7-1.3c-12,0-17,3.3-17,7.4c0,4.3,4.7,6,12.2,7.4l23.5,4.3
		c19,3.5,29.5,12.8,33.1,24.8c0.7,2.5,1.2,5.1,1.3,7.8c0,0,0,0.1,0,0.1c0,0.2,0,0.4,0,0.6c0,0.1,0,0.1,0,0.2
		C155.5,146.4,155.5,146.6,155.5,146.7z M370,65.5c-0.3,0-0.6,0-0.9,0c-8.1,0-18.5,2.1-25.3,18.3l-20.6,48.7l-40.5-65.9
		c-2.6-0.8-9-1.9-13.7-1.9c-14.3,0-22.3,5.3-30.5,14.3l-39.3,43l31.6,49.8c5.8,9.1,13.5,13.7,26,13.7c8.2,0,15-1.8,18.2-3.4
		L237,124.6L264,96l44.3,69.5l-27,56.9c2.7,1.4,8.2,3,15.1,3.2c11.9,0.3,18.3-4.3,23.1-14.9l63.7-142.1
		C380.6,67.2,374.8,65.6,370,65.5z M165.8,45.7v91.3v47.7c2.3,0.3,4.6,0.5,7.4,0.5c20.4,0,24.5-6,24.5-16.5v-32.9V24.9l-7.6-0.8
		C169.4,24.1,165.8,35.2,165.8,45.7z"/>
	<path opacity="0.2" fill="#FFFFFF" enable-background="new    " d="M16.7,0C7.5,0,0,7.5,0,16.7v150.9c0-5.7,1.9-11,5.2-15.3v0
		c4.4-5.7,11.1-9.4,18.8-9.7L1243.1,94V0H16.7z"/>
	<g>
		
			<linearGradient id="SVGID_3_" gradientUnits="userSpaceOnUse" x1="575.8895" y1="546.9758" x2="583.6476" y2="546.9758" gradientTransform="matrix(0 10.5807 10.5807 0 -3841.9895 -6003.6089)">
			<stop  offset="0" style="stop-color:#AE0019"/>
			<stop  offset="0.1" style="stop-color:#AE0019"/>
			<stop  offset="0.9" style="stop-color:#8D0000"/>
			<stop  offset="1" style="stop-color:#8D0000"/>
		</linearGradient>
		<path fill="url(#SVGID_3_)" d="M1955.4,88.5c15,0,22.2,5.7,27.9,5.7c4.8,0,8.4-3.6,7.3-13.8c-9.5-4.6-21.3-8.2-35.2-8.2
			c-31.3,0-55.3,24-55.3,56.2c0,32.2,24,56.7,55.3,56.7c13.9,0,25.7-3.8,35.2-8.4c1.1-10.2-2.5-13.8-7.3-13.8
			c-5.7,0-12.9,5.7-27.9,5.7c-19.5,0-36.5-15.4-36.5-40.1S1935.9,88.5,1955.4,88.5z"/>
		
			<linearGradient id="SVGID_4_" gradientUnits="userSpaceOnUse" x1="575.8895" y1="488.6974" x2="583.6476" y2="488.6974" gradientTransform="matrix(0 10.5807 10.5807 0 -3841.9895 -6003.6089)">
			<stop  offset="0" style="stop-color:#AE0019"/>
			<stop  offset="0.1" style="stop-color:#AE0019"/>
			<stop  offset="0.9" style="stop-color:#8D0000"/>
			<stop  offset="1" style="stop-color:#8D0000"/>
		</linearGradient>
		<path fill="url(#SVGID_4_)" d="M1313.8,176.6v-62c8.6-19.5,26.1-23.6,38.6-23.6c6.6,0,9.7-1.8,9.7-8.8c0-2.9-0.4-6.1-0.7-7.7
			c-20.4-3.2-37.4,4.3-47.6,19V80.6c0-4.3-2.3-7-9.8-7c-3.2,0-6.8,0.5-8.6,0.9v108.2c1.8,0.4,5.4,0.9,8.6,0.9
			C1311.5,183.6,1313.8,181.1,1313.8,176.6z"/>
		
			<linearGradient id="SVGID_5_" gradientUnits="userSpaceOnUse" x1="575.8895" y1="557.1835" x2="583.6476" y2="557.1835" gradientTransform="matrix(0 10.5807 10.5807 0 -3841.9895 -6003.6089)">
			<stop  offset="0" style="stop-color:#AE0019"/>
			<stop  offset="0.1" style="stop-color:#AE0019"/>
			<stop  offset="0.9" style="stop-color:#8D0000"/>
			<stop  offset="1" style="stop-color:#8D0000"/>
		</linearGradient>
		<path fill="url(#SVGID_5_)" d="M2055.3,72.2c-30.6,0-53.9,23.6-53.9,55.8c0,33.8,23.3,57.1,56.9,57.1c15.6,0,30.6-4.7,40.1-9
			c1.1-9.8-2.3-14.3-7-14.3c-1.8,0-4.3,0.7-8.8,2.3c-7,2.3-14.3,4.6-23.4,4.6c-21.5,0-35.8-12.1-38.7-32.7h84.1
			c0.7-4,0.9-7.9,0.9-11.3C2105.4,98.5,2088.9,72.2,2055.3,72.2z M2020.4,120.7c2.7-21.3,17.7-32.6,34.9-32.6
			c19.3,0,31,14.3,31.7,32.6H2020.4z"/>
		
			<linearGradient id="SVGID_6_" gradientUnits="userSpaceOnUse" x1="575.8895" y1="497.1278" x2="583.6476" y2="497.1278" gradientTransform="matrix(0 10.5807 10.5807 0 -3841.9895 -6003.6089)">
			<stop  offset="0" style="stop-color:#AE0019"/>
			<stop  offset="0.1" style="stop-color:#AE0019"/>
			<stop  offset="0.9" style="stop-color:#8D0000"/>
			<stop  offset="1" style="stop-color:#8D0000"/>
		</linearGradient>
		<path fill="url(#SVGID_6_)" d="M1473.8,128.4c0-32.2-23.8-56.2-56-56.2c-31.9,0-55.7,24-55.7,56.2c0,32.1,23.8,56.6,55.7,56.6
			C1450,185.1,1473.8,160.6,1473.8,128.4z M1380.9,128.4c0-24.7,16.8-39.9,36.9-39.9c20.4,0,37.2,15.2,37.2,39.9
			c0,24.7-16.8,40.1-37.2,40.1C1397.7,168.5,1380.9,153.1,1380.9,128.4z"/>
		
			<linearGradient id="SVGID_7_" gradientUnits="userSpaceOnUse" x1="575.8895" y1="511.6064" x2="583.6476" y2="511.6064" gradientTransform="matrix(0 10.5807 10.5807 0 -3841.9895 -6003.6089)">
			<stop  offset="0" style="stop-color:#AE0019"/>
			<stop  offset="0.1" style="stop-color:#AE0019"/>
			<stop  offset="0.9" style="stop-color:#8D0000"/>
			<stop  offset="1" style="stop-color:#8D0000"/>
		</linearGradient>
		<path fill="url(#SVGID_7_)" d="M1504.1,73.6c-3.2,0-6.8,0.4-8.6,0.9v108.2c1.8,0.4,5.4,0.9,8.6,0.9c7.5,0,9.8-2.5,9.8-7.1v-70.7
			c4.1-8.6,14.3-17,26.3-17c12.9,0,21.8,9.3,21.8,25.2v68.7c1.8,0.4,5.5,0.9,8.6,0.9c7.5,0,9.8-2.5,9.8-7.1v-70.7
			c4.3-8.6,14.3-17,26.3-17c14.3,0,21.8,9.3,21.8,25.2v68.7c1.8,0.4,5.4,0.9,8.6,0.9c7.5,0,9.8-2.5,9.8-7.1v-64.8
			c0-22-12.3-39.5-36.7-39.5c-16.1,0-27.3,9.3-34,18.6c-6.1-11.8-17.2-18.6-31.8-18.6c-13.1,0-23.3,6.1-30.6,15.2v-6.3
			C1513.7,76.3,1511.4,73.6,1504.1,73.6z"/>
		
			<linearGradient id="SVGID_8_" gradientUnits="userSpaceOnUse" x1="575.8895" y1="536.2562" x2="583.6476" y2="536.2562" gradientTransform="matrix(0 10.5807 10.5807 0 -3841.9895 -6003.6089)">
			<stop  offset="0" style="stop-color:#AE0019"/>
			<stop  offset="0.1" style="stop-color:#AE0019"/>
			<stop  offset="0.9" style="stop-color:#8D0000"/>
			<stop  offset="1" style="stop-color:#8D0000"/>
		</linearGradient>
		<path fill="url(#SVGID_8_)" d="M1793.1,73.6c-3.4,0-7,0.4-8.8,0.9v108.2c1.8,0.4,5.4,0.9,8.6,0.9c7.5,0,9.8-2.7,9.8-7.1v-68.9
			c5.7-10.2,19-18.8,31.7-18.8c16.1,0,26.8,10.4,26.8,32.2v61.7c1.8,0.4,5.4,0.9,8.6,0.9c7.5,0,10-2.7,10-7.1v-58.1
			c0-32.2-18.4-46.3-40.6-46.3c-16.1,0-28.4,7.3-36.7,16.6v-7.9C1802.4,76.6,1800.1,73.6,1793.1,73.6z"/>
		
			<linearGradient id="SVGID_9_" gradientUnits="userSpaceOnUse" x1="575.8895" y1="525.1653" x2="583.6476" y2="525.1653" gradientTransform="matrix(0 10.5807 10.5807 0 -3841.9895 -6003.6089)">
			<stop  offset="0" style="stop-color:#AE0019"/>
			<stop  offset="0.1" style="stop-color:#AE0019"/>
			<stop  offset="0.9" style="stop-color:#8D0000"/>
			<stop  offset="1" style="stop-color:#8D0000"/>
		</linearGradient>
		<path fill="url(#SVGID_9_)" d="M1668.5,151.9c0,17.4,13.1,33.3,37.2,33.3c17,0,29.7-7.7,37.8-16.1h0.2v8.2c0,4.3,2.7,6.6,9,6.6
			c2.9,0,6.1-0.4,7.9-0.9V114c0-25.6-11.5-41.5-43-41.5c-15.2,0-31,3.6-41.2,7.7c-1.1,9,1.8,13.8,6.5,13.8c1.8,0,4.3-0.7,7.5-1.6
			c6.4-1.8,15.7-4.1,26.8-4.1c20.9,0,26.3,9.3,26.3,26.3v2.7C1696.2,114.3,1668.5,126.3,1668.5,151.9z M1743.5,151.4
			c-8.4,11.1-21.5,18.8-35.6,18.8c-13.8,0-22-8.4-22-17.9c0-19.3,26.7-22.6,57.6-21.3V151.4z"/>
	</g>
</g>
</svg>
