<?xml version="1.0" encoding="utf-8"?>
<!-- Generator: Adobe Illustrator 23.0.1, SVG Export Plug-In . SVG Version: 6.00 Build 0)  -->
<!DOCTYPE svg PUBLIC "-//W3C//DTD SVG 1.1//EN" "http://www.w3.org/Graphics/SVG/1.1/DTD/svg11.dtd" [
	<!ENTITY ns_extend "http://ns.adobe.com/Extensibility/1.0/">
	<!ENTITY ns_ai "http://ns.adobe.com/AdobeIllustrator/10.0/">
	<!ENTITY ns_graphs "http://ns.adobe.com/Graphs/1.0/">
	<!ENTITY ns_vars "http://ns.adobe.com/Variables/1.0/">
	<!ENTITY ns_imrep "http://ns.adobe.com/ImageReplacement/1.0/">
	<!ENTITY ns_sfw "http://ns.adobe.com/SaveForWeb/1.0/">
	<!ENTITY ns_custom "http://ns.adobe.com/GenericCustomNamespace/1.0/">
	<!ENTITY ns_adobe_xpath "http://ns.adobe.com/XPath/1.0/">
]>
<svg version="1.1" id="Livello_1" xmlns:x="&ns_extend;" xmlns:i="&ns_ai;" xmlns:graph="&ns_graphs;"
	 xmlns="http://www.w3.org/2000/svg" xmlns:xlink="http://www.w3.org/1999/xlink" x="0px" y="0px" viewBox="0 0 2260.2 250"
	 enable-background="new 0 0 2260.2 250" xml:space="preserve">
<metadata>
	<sfw  xmlns="&ns_sfw;">
		<slices></slices>
		<sliceSourceBounds  bottomLeftOrigin="true" height="250" width="2260.2" x="515.6" y="-56.8"></sliceSourceBounds>
	</sfw>
</metadata>
<g>
	<g>
		<path fill="#FFFFFF" d="M16.7,0C7.5,0,0,7.4,0,16.7v216.6c0,9.2,7.5,16.7,16.7,16.7h403.7V0H16.7"/>
		<path fill="#FFFFFF" d="M2243.5,0h-1006v250h1006c9.2,0,16.7-7.4,16.7-16.7V16.7C2260.2,7.4,2252.7,0,2243.5,0"/>
		<path fill="#9D9D9C" d="M2243.5,0h-1006v5.2h1006c6.3,0,11.4,5.1,11.4,11.4v216.6c0,6.3-5.1,11.5-11.4,11.5h-1006v5.2h1006
			c9.2,0,16.7-7.4,16.7-16.7V16.7C2260.2,7.4,2252.7,0,2243.5,0"/>
		<path fill="#9D9D9C" d="M16.7,250h403.7v-5.2H16.7c-6.3,0-11.4-5.1-11.4-11.4V16.7c0-6.3,5.1-11.5,11.4-11.5h403.7V0H16.7
			C7.5,0,0,7.5,0,16.7v216.6C0,242.5,7.5,250,16.7,250"/>
	</g>
	
		<linearGradient id="SVGID_1_" gradientUnits="userSpaceOnUse" x1="-28.8649" y1="607.7118" x2="1.6624" y2="607.7118" gradientTransform="matrix(0 8.1893 8.1893 0 -4147.229 236.3858)">
		<stop  offset="0" style="stop-color:#AE0019"/>
		<stop  offset="0.1" style="stop-color:#AE0019"/>
		<stop  offset="0.9" style="stop-color:#8D0000"/>
		<stop  offset="1" style="stop-color:#8D0000"/>
	</linearGradient>
	<polygon fill="url(#SVGID_1_)" points="1243,0 416,0 416,250 1237.5,250 1243,250 1243,0 	"/>
	<g>
		<path fill="#FFFFFF" d="M1182.8,109.2v73.9c-2,0.5-5.3,1-8.8,1c-7.1,0-10-2.4-10-7.3V167c-10.9,11.7-24.1,18.5-41.6,18.5
			c-26,0-40.6-16.8-40.6-35.3c0-28.2,30.4-40.6,81.9-37.2v-3.1c0-18-5.8-28.7-28.7-28.7c-11.9,0-22.1,2.7-28.9,4.9
			c-3.6,1-6.3,2-8.3,2c-5.3,0-8.5-4.9-7.3-15.1c11.7-4.4,28.9-8.3,45.2-8.3C1170.2,64.7,1182.8,81.7,1182.8,109.2 M1163.9,149.8
			v-22.4c-33.5-1.4-62.5,1.7-62.5,22.6c0,10.2,8.8,19.7,24.3,19.7C1141.5,169.7,1154.9,161.7,1163.9,149.8"/>
		<path fill="#FFFFFF" d="M465.7,125c0-34.5,25.5-60.3,59.1-60.3c16,0,30.4,4.4,40.6,9.5c1,10.5-2.9,14.8-7.8,14.8
			c-6.8,0-14.3-7.5-32.1-7.5c-22.3,0-40.6,16.8-40.6,43.5c0,27,18.3,44,40.6,44c17.8,0,25.3-7.5,32.1-7.5c4.9,0,8.8,4.4,7.8,14.8
			c-10.2,4.9-24.6,9.2-40.6,9.2C491.2,185.5,465.7,159.5,465.7,125"/>
		<path fill="#FFFFFF" d="M874.8,132.8h-90.4c2.9,22.6,18.7,35.5,42.1,35.5c10,0,17.7-2.2,25-4.6c4.9-1.7,7.5-2.7,9.5-2.7
			c4.9,0,8.5,4.6,7.3,15.1c-10.2,4.6-26,9.5-42.6,9.5c-36.2,0-61-24.5-61-60.8c0-34.8,26-60,57.9-60c35.7,0,53.2,28.4,53.2,56.2
			C875.8,124.5,875.6,128.4,874.8,132.8 M784.4,117h72.7c-0.7-19.9-13.6-35.7-34.5-35.7C804.1,81.2,787.6,93.6,784.4,117"/>
		<path fill="#FFFFFF" d="M589.6,35.3c0-7.1,5.6-12.4,12.4-12.4c6.8,0,12.2,5.3,12.2,12.4c0,6.3-5.3,12.2-12.2,12.2
			C595.1,47.4,589.6,41.6,589.6,35.3 M592.2,183.1V73.4c0-4.4,2.4-7.3,10.2-7.3c3.2,0,6.8,0.7,8.8,1.2v109.4c0,4.6-2.7,7.3-10.2,7.3
			C597.8,184.1,594.2,183.6,592.2,183.1"/>
		<path fill="#FFFFFF" d="M1061,106.7v70c0,4.6-2.7,7.3-10.2,7.3c-3.1,0-6.8-0.5-8.7-1v-74.1c0-17.3-8.3-27.5-23.6-27.5
			c-13.1,0-24.3,9.5-28.7,19v76.3c0,4.6-2.4,7.3-10,7.3c-3.4,0-7.1-0.5-9-1v-74.1c0-17.3-8-27.5-23.6-27.5c-13.1,0-24.3,9.5-28.7,19
			v76.3c0,4.6-2.4,7.3-10,7.3c-3.4,0-7.1-0.5-8.8-1V67.4c2-0.5,5.6-1.2,8.8-1.2c7.3,0,9.7,2.9,9.7,7.8v8.3
			c7.5-10,19.2-17.5,33.6-17.5c15.3,0,27.5,8,33.5,21.2c8-11.7,20.2-21.2,37.4-21.2C1047.9,64.7,1061,83.6,1061,106.7"/>
		<path fill="#FFFFFF" d="M743.9,114.3v62.5c0,4.6-2.4,7.3-10,7.3c-3.1,0-6.8-0.5-8.7-1v-66.4c0-23.8-11.9-35.3-29.2-35.3
			c-13.9,0-28.7,9.7-34.8,20.9v74.4c0,4.6-2.4,7.3-10,7.3c-3.4,0-7.1-0.5-8.7-1V67.4c1.7-0.5,5.3-1.2,8.7-1.2c7.5,0,10,2.9,10,7.3
			v10c8.5-10.2,21.4-18.7,38.9-18.7C724,64.7,743.9,80,743.9,114.3"/>
	</g>
	<linearGradient id="SVGID_2_" gradientUnits="userSpaceOnUse" x1="218.6231" y1="225.5801" x2="218.6231" y2="24.1486">
		<stop  offset="0" style="stop-color:#8D0000"/>
		<stop  offset="0.1" style="stop-color:#8D0000"/>
		<stop  offset="0.9" style="stop-color:#AE0019"/>
		<stop  offset="1" style="stop-color:#AE0019"/>
	</linearGradient>
	<path fill="url(#SVGID_2_)" d="M155.5,147.7c0,19.5-12.8,33.8-38.7,36.6c-5.2,0.5-11,0.8-16.9,0.8c-15.7,0-32.6-1.5-42-2.6
		l-0.9-6.8c0-17.1,9.2-21,17.9-21c9,0,23.1,1.6,33.6,1.6c11.6,0,15.1-4,15.1-7.7c0-4.9-4.7-6.9-13.6-8.7l-3-0.6H107l-21.5-4.1
		C65,131.2,54.1,117.1,54.1,102c0-18.3,12.9-33.5,38.3-36.4c5.4-0.5,11.2-0.8,16.9-0.8c14.6,0,29.3,1.6,38.6,2.7l0.7,6.6
		c0,17-9,20.7-17.6,20.7c-6.7,0-17-1.2-28.8-1.2c-12,0-17,3.3-17,7.4c0,4.3,4.7,6,12.2,7.3l23.5,4.4c19,3.5,29.5,12.8,33.1,24.8
		c0,0.2,0.1,0.3,0.1,0.4v0c0.1,0.2,0.1,0.4,0.1,0.6c0,0,0,0.1,0,0.1c0.1,0.2,0.1,0.5,0.2,0.7c0,0.1,0,0.2,0.1,0.2
		c0,0.2,0.1,0.3,0.1,0.4c0,0.2,0.1,0.3,0.1,0.4c0,0.1,0.1,0.2,0.1,0.3c0,0.2,0.1,0.3,0.1,0.4c0,0.1,0,0.2,0,0.2
		c0,0.2,0.1,0.3,0.1,0.4c0,0.1,0,0.2,0,0.3c0,0.1,0,0.3,0.1,0.4c0,0.1,0,0.2,0,0.3c0,0.3,0.1,0.5,0.1,0.9c0,0.1,0,0.1,0,0.2
		c0,0.1,0,0.2,0,0.4c0,0.1,0,0.2,0,0.3c0,0.1,0,0.2,0,0.4c0,0.1,0,0.2,0,0.4s0,0.2,0,0.3c0,0.1,0,0.3,0,0.4c0,0.1,0,0.2,0,0.3
		c0,0.2,0,0.3,0,0.5c0,0.1,0,0.2,0,0.2C155.5,147.2,155.5,147.4,155.5,147.7z M383.2,68.6c-2.6-1.4-8.4-3-13.2-3.1
		c-0.3,0-0.6,0-0.9,0c-8.1,0-18.5,2.1-25.3,18.3l-19.8,46.9l-0.8,1.8l-1.1-1.7l-39.3-64.2c-2.6-0.8-9-2-13.7-2
		c-14.3,0-22.3,5.3-30.5,14.3l-39.3,43l8.5,13.4l23.1,36.4c5.8,9.1,13.6,13.7,26.1,13.7c8.2,0,15-1.9,18.2-3.4l-32-48.1l0,0
		l-6.2-9.3l27-28.6l23,36.2h0l21.2,33.3l-27,56.9c2.7,1.4,8.2,3,15.1,3.2c0.3,0,0.6,0,0.9,0c11.3,0,17.5-4.6,22.2-14.9L383.2,68.6z
		 M165.8,45.7v91.2v47.7l7.4,0.5c20.4,0,24.5-6,24.5-16.5v-32.9V24.9l-7.7-0.8C169.4,24.1,165.8,35.1,165.8,45.7z"/>
	<path opacity="0.2" fill="#FFFFFF" enable-background="new    " d="M16.7,0C7.5,0,0,7.4,0,16.7v150.9c0-5.7,1.9-11.1,5.2-15.3v0
		c4.4-5.6,11.1-9.4,18.8-9.7L1243,94V0L16.7,0z"/>
	
		<linearGradient id="SVGID_3_" gradientUnits="userSpaceOnUse" x1="-9.5418" y1="672.1089" x2="-23.9555" y2="672.1089" gradientTransform="matrix(0 10.4808 10.4808 0 -5294.2192 283.3398)">
		<stop  offset="0" style="stop-color:#8D0000"/>
		<stop  offset="0.1" style="stop-color:#8D0000"/>
		<stop  offset="0.9" style="stop-color:#AE0019"/>
		<stop  offset="1" style="stop-color:#AE0019"/>
	</linearGradient>
	<path fill="url(#SVGID_3_)" d="M2204.4,119.2v58c0,4.3-2.5,7.1-10,7.1c-3.2,0-6.8-0.5-8.6-0.9v-61.7c0-21.8-10.7-32.2-26.7-32.2
		c-12.7,0-26.1,8.6-31.8,18.8v69c0,4.3-2.3,7.1-9.7,7.1c-3.2,0-6.8-0.5-8.6-0.9V75.2c1.8-0.4,5.4-0.9,8.9-0.9c7,0,9.3,2.9,9.3,7.3
		v7.9c8.4-9.3,20.6-16.6,36.8-16.6C2186,72.9,2204.4,86.9,2204.4,119.2z M1952.2,177.2V74.7c-1.8-0.5-5.5-0.9-8.6-0.9
		c-7.5,0-10,2.7-10,7.1v102.4c1.8,0.5,5.5,0.9,8.7,0.9C1949.7,184.2,1952.2,181.7,1952.2,177.2z M1788.4,89.2
		c14.9,0,22.2,5.7,27.9,5.7c4.8,0,8.4-3.6,7.3-13.8c-9.5-4.5-21.3-8.2-35.1-8.2c-31.3,0-55.4,24.1-55.4,56.3
		c0,32.2,24.1,56.7,55.4,56.7c13.8,0,25.6-3.8,35.1-8.4c1.1-10.2-2.5-13.8-7.3-13.8c-5.7,0-12.9,5.6-27.9,5.6
		c-19.5,0-36.5-15.4-36.5-40.1C1751.9,104.4,1768.9,89.2,1788.4,89.2z M1351,185.8c13.8,0,25.6-3.8,35.1-8.4
		c1.1-10.2-2.5-13.8-7.3-13.8c-5.7,0-12.9,5.6-27.9,5.6c-19.5,0-36.5-15.4-36.5-40.1c0-24.8,17-39.9,36.5-39.9
		c15,0,22.2,5.7,27.9,5.7c4.8,0,8.4-3.6,7.3-13.8c-9.5-4.5-21.3-8.2-35.1-8.2c-31.3,0-55.3,24.1-55.3,56.3
		C1295.7,161.3,1319.7,185.8,1351,185.8z M1720,136.5h-84.1c2.9,20.6,17.2,32.7,38.7,32.7c9.1,0,16.3-2.3,23.3-4.5
		c4.5-1.6,7-2.3,8.9-2.3c4.7,0,8.1,4.5,7,14.3c-9.5,4.3-24.5,9.1-40.1,9.1c-33.5,0-56.9-23.3-56.9-57.1c0-32.1,23.3-55.7,53.9-55.7
		c33.5,0,50.1,26.3,50.1,52.4C1720.9,128.6,1720.7,132.4,1720,136.5z M1702.5,121.4c-0.7-18.4-12.5-32.7-31.7-32.7
		c-17.2,0-32.2,11.3-34.9,32.7H1702.5z M1905.4,164.5c-5.2,0-11.8,4.5-22.7,4.5c-12.2,0-18.4-5.9-18.4-18.6v-59h37
		c4.3,0,6.8-2.3,6.8-8.8l-0.7-7.5h-43.1V49.7c-1.6-0.7-5.2-1.4-8.4-1.4c-7.5,0-10,2.7-10,7V152c0,21.1,13.2,33.8,34.7,33.8
		c11.1,0,22-2.9,31.5-7.5C1913.3,169.3,1910.6,164.5,1905.4,164.5z M2087.7,129.1c0,32.2-23.8,56.6-55.9,56.6
		c-31.9,0-55.7-24.5-55.7-56.6c0-32.1,23.8-56.2,55.7-56.2C2063.9,72.9,2087.7,96.9,2087.7,129.1z M2068.9,129.1
		c0-24.7-16.8-39.8-37.1-39.8c-20.1,0-36.9,15.1-36.9,39.8s16.8,40.1,36.9,40.1C2052.1,169.2,2068.9,153.8,2068.9,129.1z M1931,48.8
		c0,6.1,5.5,11.8,12.1,11.8c6.6,0,11.8-5.7,11.8-11.8c0-6.5-4.8-11.4-11-11.8h-1.6C1936.1,37.4,1931,42.3,1931,48.8z M1451.9,185.7
		c-31.9,0-55.7-24.5-55.7-56.6c0-32.1,23.8-56.2,55.7-56.2c32.2,0,56,24,56,56.2C1507.9,161.2,1484.1,185.7,1451.9,185.7z
		 M1451.9,169.2c20.4,0,37.2-15.4,37.2-40.1s-16.8-39.8-37.2-39.8c-20.1,0-36.9,15.1-36.9,39.8S1431.8,169.2,1451.9,169.2z
		 M1596.6,177.1V38.2c-1.8-0.4-5.2-1.1-8.4-1.1c-7.5,0-9.9,2.7-9.9,7v139.1c1.8,0.4,5.4,0.9,8.6,0.9
		C1594.3,184.1,1596.6,181.6,1596.6,177.1z M1547.7,177.1V38.2c-1.8-0.4-5.2-1.1-8.4-1.1c-7.5,0-10,2.7-10,7v139.1
		c1.8,0.4,5.4,0.9,8.6,0.9C1545.4,184.1,1547.7,181.6,1547.7,177.1z"/>
</g>
</svg>
