<?xml version="1.0" encoding="utf-8"?>
<!-- Generator: Adobe Illustrator 23.0.1, SVG Export Plug-In . SVG Version: 6.00 Build 0)  -->
<!DOCTYPE svg PUBLIC "-//W3C//DTD SVG 1.1//EN" "http://www.w3.org/Graphics/SVG/1.1/DTD/svg11.dtd" [
	<!ENTITY ns_extend "http://ns.adobe.com/Extensibility/1.0/">
	<!ENTITY ns_ai "http://ns.adobe.com/AdobeIllustrator/10.0/">
	<!ENTITY ns_graphs "http://ns.adobe.com/Graphs/1.0/">
	<!ENTITY ns_vars "http://ns.adobe.com/Variables/1.0/">
	<!ENTITY ns_imrep "http://ns.adobe.com/ImageReplacement/1.0/">
	<!ENTITY ns_sfw "http://ns.adobe.com/SaveForWeb/1.0/">
	<!ENTITY ns_custom "http://ns.adobe.com/GenericCustomNamespace/1.0/">
	<!ENTITY ns_adobe_xpath "http://ns.adobe.com/XPath/1.0/">
]>
<svg version="1.1" id="Livello_1" xmlns:x="&ns_extend;" xmlns:i="&ns_ai;" xmlns:graph="&ns_graphs;"
	 xmlns="http://www.w3.org/2000/svg" xmlns:xlink="http://www.w3.org/1999/xlink" x="0px" y="0px" viewBox="0 0 2116.6 250"
	 enable-background="new 0 0 2116.6 250" xml:space="preserve">
<metadata>
	<sfw  xmlns="&ns_sfw;">
		<slices></slices>
		<sliceSourceBounds  bottomLeftOrigin="true" height="250" width="2116.6" x="-211.7" y="-24.8"></sliceSourceBounds>
	</sfw>
</metadata>
<g>
	<g>
		<path fill="#FFFFFF" d="M16.7,0C7.5,0,0,7.5,0,16.7v216.7c0,9.2,7.5,16.7,16.7,16.7h403.8V0H16.7"/>
		<path fill="#FFFFFF" d="M2099.9,0h-860.8v250h860.8c9.2,0,16.7-7.5,16.7-16.7V16.7C2116.6,7.5,2109.1,0,2099.9,0"/>
		<path fill="#9D9D9C" d="M2099.9,0h-862.3v5.2h862.3c6.3,0,11.5,5.1,11.5,11.5v216.7c0,6.3-5.1,11.5-11.5,11.5h-862.3v5.2h862.3
			c9.2,0,16.7-7.5,16.7-16.7V16.7C2116.6,7.5,2109.1,0,2099.9,0"/>
		<path fill="#9D9D9C" d="M16.7,250h403.8v-5.2H16.7c-6.3,0-11.5-5.1-11.5-11.5V16.7c0-6.3,5.1-11.5,11.5-11.5h403.8V0H16.7
			C7.5,0,0,7.5,0,16.7v216.7C0,242.5,7.5,250,16.7,250"/>
	</g>
	<linearGradient id="SVGID_1_" gradientUnits="userSpaceOnUse" x1="1677.7222" y1="224.1011" x2="1677.7222" y2="70.1403">
		<stop  offset="0" style="stop-color:#8D0000"/>
		<stop  offset="0.1" style="stop-color:#8D0000"/>
		<stop  offset="0.9" style="stop-color:#AE0019"/>
		<stop  offset="1" style="stop-color:#AE0019"/>
	</linearGradient>
	<path fill="url(#SVGID_1_)" d="M1293.3,129c0-32,23.7-55.9,55-55.9c14.7,0,28.2,4,37.7,8.5c0.9,10.1-2.7,14.6-7.4,14.6
		c-6.5,0-13.3-7-29.5-7c-20.3,0-37,15.1-37,39.7c0,24.6,16.7,39.9,37,39.9c16.2,0,23-7,29.5-7c4.7,0,8.3,4.5,7.4,14.7
		c-9.5,4.7-23,8.8-37.7,8.8C1316.9,185.3,1293.3,161,1293.3,129 M1838.1,129c0,23.7,15.6,39.9,36.8,39.9c14.4,0,27.9-8.3,34-20.5
		v-38.5c-6.1-12.2-19.6-20.5-34-20.5C1853.7,89.3,1838.1,105.5,1838.1,129 M1908.9,38.6c0-4.3,2.5-7,9.9-7c3.4,0,6.5,0.4,8.3,0.9
		v149.9c-1.8,0.7-5.2,1.3-8.3,1.3c-7.4,0-9.9-2.9-9.9-8.5v-8.8c-8.1,11-21.2,18.7-37.6,18.7c-27.3,0-51.8-21-51.8-56.1
		c0-34.9,24.6-55.9,51.8-55.9c16.5,0,29.5,7.6,37.6,18.7V38.6 M1752.6,88.9c-16.7,0-31.8,11.3-34.7,32.5h66.2
		C1783.4,103.1,1771.7,88.9,1752.6,88.9 M1698.9,128.5c0-32,23.9-55.4,53.7-55.4c33.3,0,49.8,26.1,49.8,52.1c0,3.4-0.2,7.2-0.9,11.2
		h-83.6c2.9,20.5,17.1,32,38.5,32c9,0,16.2-1.8,23.2-4c4.5-1.6,7-2.7,8.8-2.7c4.7,0,8.1,4.5,7,14.7c-9.5,4.3-24.3,9-39.9,9
		C1721.9,185.3,1698.9,162.3,1698.9,128.5 M1609.9,92.7c-5.9-12.4-17.1-19.6-31.3-19.6c-13.3,0-24.1,7-31.1,16.2v-7.4
		c0-4.7-2.3-7.4-9.5-7.4c-3.2,0-6.8,0.4-8.6,0.9v107.5c1.8,0.4,5.4,0.9,8.6,0.9c7.4,0,9.7-2.5,9.7-7v-70.4
		c4.1-8.6,14.2-16.9,26.2-16.9c14.2,0,21.6,9.3,21.6,25v68.3c1.8,0.4,5.4,0.9,8.6,0.9c7.4,0,9.7-2.5,9.7-7v-70.4
		c4.3-8.6,14.2-16.9,26.2-16.9c14.2,0,21.6,9.3,21.6,25v68.3c1.8,0.4,5.4,0.9,8.6,0.9c7.4,0,9.7-2.5,9.7-7v-64.5
		c0-21.9-12.2-39.2-35.4-39.2C1628.5,73.1,1617.1,81.4,1609.9,92.7 M1418.1,129c0,24.6,16.7,39.9,36.8,39.9c20.3,0,37-15.3,37-39.9
		c0-24.6-16.7-39.7-37-39.7C1434.8,89.3,1418.1,104.4,1418.1,129 M1399.4,127.2c0.9-31.1,24.3-54.1,55.4-54.1
		c32,0,55.7,23.9,55.7,55.9s-23.7,56.3-55.7,56.3c-31.2,0-54.5-23.4-55.4-54.5V127.2 M2040.3,81.2l-34,78l-35.6-78
		c-2.2-5-4.7-6.8-10.1-6.8c-4.3,0-9.2,1.4-11.9,2.9l48,101.9l-20.3,41.9c2.9,1.4,7.9,2.9,11.8,2.9c5.4,0,7.6-1.8,9.9-6.5l64.2-140.2
		c-2.9-1.6-7.9-2.9-11.7-2.9C2044.8,74.4,2042.6,76.3,2040.3,81.2"/>
	
		<linearGradient id="SVGID_2_" gradientUnits="userSpaceOnUse" x1="780.101" y1="493.6135" x2="809.861" y2="493.6135" gradientTransform="matrix(0 8.4002 8.4002 0 -3316.8577 -6552.9653)">
		<stop  offset="0" style="stop-color:#AE0019"/>
		<stop  offset="0.1" style="stop-color:#AE0019"/>
		<stop  offset="0.9" style="stop-color:#8D0000"/>
		<stop  offset="1" style="stop-color:#8D0000"/>
	</linearGradient>
	<rect x="416" y="0" fill="url(#SVGID_2_)" width="827.1" height="250"/>
	<g>
		<path fill="#FFFFFF" d="M1182.9,109.2v73.9c-1.9,0.5-5.3,1-8.7,1c-7.1,0-10-2.4-10-7.3v-9.7c-11,11.7-24.1,18.5-41.6,18.5
			c-26,0-40.6-16.8-40.6-35.3c0-28.2,30.4-40.6,81.9-37.2v-3.2c0-18-5.8-28.7-28.7-28.7c-11.9,0-22.1,2.7-28.9,4.9
			c-3.7,1-6.3,1.9-8.3,1.9c-5.4,0-8.5-4.9-7.3-15.1c11.7-4.4,28.9-8.2,45.2-8.2C1170.3,64.7,1182.9,81.7,1182.9,109.2 M1164,149.8
			v-22.4c-33.6-1.5-62.5,1.7-62.5,22.6c0,10.2,8.7,19.7,24.3,19.7C1141.6,169.7,1155,161.7,1164,149.8"/>
		<path fill="#FFFFFF" d="M465.7,125c0-34.5,25.5-60.3,59.1-60.3c16,0,30.4,4.4,40.6,9.5c1,10.5-2.9,14.8-7.8,14.8
			c-6.8,0-14.3-7.5-32.1-7.5c-22.4,0-40.6,16.8-40.6,43.5c0,27,18.2,44,40.6,44c17.7,0,25.3-7.5,32.1-7.5c4.9,0,8.7,4.3,7.8,14.8
			c-10.2,4.8-24.6,9.2-40.6,9.2C491.3,185.5,465.7,159.5,465.7,125"/>
		<path fill="#FFFFFF" d="M874.9,132.8h-90.4c2.9,22.6,18.7,35.5,42.1,35.5c9.9,0,17.7-2.2,25-4.6c4.9-1.7,7.5-2.7,9.5-2.7
			c4.9,0,8.5,4.6,7.3,15.1c-10.2,4.6-26,9.5-42.6,9.5c-36.2,0-61-24.6-61-60.8c0-34.8,26-60.1,57.9-60.1c35.7,0,53.2,28.4,53.2,56.2
			C875.9,124.5,875.6,128.4,874.9,132.8 M784.5,117h72.7c-0.7-19.9-13.6-35.7-34.5-35.7C804.2,81.2,787.6,93.6,784.5,117"/>
		<path fill="#FFFFFF" d="M589.6,35.3c0-7.1,5.6-12.4,12.4-12.4s12.1,5.4,12.1,12.4c0,6.3-5.3,12.1-12.1,12.1S589.6,41.6,589.6,35.3
			 M592.3,183.1V73.4c0-4.4,2.4-7.3,10.2-7.3c3.2,0,6.8,0.7,8.7,1.2v109.4c0,4.6-2.7,7.3-10.2,7.3
			C597.9,184.1,594.2,183.6,592.3,183.1"/>
		<path fill="#FFFFFF" d="M1061.1,106.8v70c0,4.6-2.7,7.3-10.2,7.3c-3.2,0-6.8-0.5-8.7-1V109c0-17.3-8.3-27.5-23.6-27.5
			c-13.1,0-24.3,9.5-28.7,19v76.3c0,4.6-2.4,7.3-10,7.3c-3.4,0-7.1-0.5-9-1V109c0-17.3-8-27.5-23.6-27.5c-13.1,0-24.3,9.5-28.7,19
			v76.3c0,4.6-2.4,7.3-10,7.3c-3.4,0-7.1-0.5-8.7-1V67.4c1.9-0.5,5.6-1.2,8.7-1.2c7.3,0,9.7,2.9,9.7,7.8v8.3
			c7.5-10,19.2-17.5,33.6-17.5c15.3,0,27.5,8,33.5,21.1c8-11.7,20.2-21.1,37.4-21.1C1048,64.7,1061.1,83.7,1061.1,106.8"/>
		<path fill="#FFFFFF" d="M744,114.3v62.5c0,4.6-2.4,7.3-10,7.3c-3.2,0-6.8-0.5-8.7-1v-66.4c0-23.8-11.9-35.3-29.2-35.3
			c-13.8,0-28.7,9.7-34.8,20.9v74.4c0,4.6-2.4,7.3-10,7.3c-3.4,0-7.1-0.5-8.7-1V67.4c1.7-0.5,5.4-1.2,8.7-1.2c7.5,0,10,2.9,10,7.3
			v10c8.5-10.2,21.4-18.7,38.9-18.7C724.1,64.7,744,80,744,114.3"/>
	</g>
	<linearGradient id="SVGID_3_" gradientUnits="userSpaceOnUse" x1="218.6163" y1="225.6202" x2="218.6163" y2="24.1396">
		<stop  offset="0" style="stop-color:#8D0000"/>
		<stop  offset="0.1" style="stop-color:#8D0000"/>
		<stop  offset="0.9" style="stop-color:#AE0019"/>
		<stop  offset="1" style="stop-color:#AE0019"/>
	</linearGradient>
	<path fill="url(#SVGID_3_)" d="M155.4,145.8c0,0.2,0,0.3,0,0.5c0,0.1,0,0.2,0,0.4c0,0.1,0,0.2,0,0.3c0,0.2,0,0.5,0,0.7
		c0,19.6-12.8,33.8-38.7,36.6c-6,0.6-12.9,0.8-19.9,0.7c-7.5-0.1-15.2-0.5-22.1-1c-6.7-0.5-12.6-1.1-16.9-1.6l-0.9-6.8
		c0-17.1,9.3-21,17.9-21c9,0,23.2,1.6,33.7,1.6c11.5,0,15.1-4,15.1-7.7c0-4.9-4.6-6.9-13.7-8.6l-3-0.6l-21.5-4.2
		c-20.5-3.9-31.4-18.1-31.4-33.1c0-18.3,12.9-33.5,38.4-36.4c5.4-0.6,11.2-0.8,16.9-0.8c14.6,0,29.3,1.5,38.5,2.6l0.7,6.6
		c0,17.1-9,20.7-17.6,20.7c-6.7,0-17-1.2-28.7-1.2c-12,0-17,3.3-17,7.4c0,4.2,4.7,6,12.2,7.3l23.5,4.3c19,3.5,29.5,12.8,33.1,24.8
		c0.8,2.6,1.2,5.4,1.4,8.2C155.4,145.7,155.4,145.7,155.4,145.8z M165.8,45.7V137v47.6c2.3,0.3,4.6,0.6,7.4,0.6
		c20.4,0,24.6-6.1,24.6-16.5v-32.9V24.9l-7.7-0.8C169.4,24.1,165.8,35.2,165.8,45.7z M370,65.5c-0.3,0-0.6,0-0.9,0
		c-8.1,0-18.5,2.1-25.3,18.3l-19.9,46.9l-0.8,1.8l-1-1.7l-39.4-64.2c-2.6-0.8-9-1.9-13.7-1.9c-14.3,0-22.2,5.3-30.5,14.2l-39.3,43
		l8.5,13.4l23.1,36.4c5.9,9.1,13.6,13.7,26.1,13.7c8.2,0,15-1.9,18.1-3.4l-31.9-48.1l-6.2-9.3L264,96l23,36.2l21.2,33.3l-27,56.9
		c2.7,1.3,8.2,3,15.1,3.2c0.3,0,0.6,0,0.9,0c10.3,0,16.4-3.9,21-12.4c0.4-0.8,0.8-1.6,1.2-2.5l36.5-81.3l27.2-60.8
		C380.6,67.2,374.8,65.6,370,65.5z"/>
	<path opacity="0.2" fill="#FFFFFF" enable-background="new    " d="M16.7,0C7.5,0,0,7.5,0,16.7v150.9c0-5.7,1.9-11,5.2-15.3
		c4.3-5.7,11.1-9.4,18.8-9.7L1243.1,94V0L16.7,0z"/>
</g>
</svg>
