<?xml version="1.0" encoding="utf-8"?>
<!-- Generator: Adobe Illustrator 23.0.1, SVG Export Plug-In . SVG Version: 6.00 Build 0)  -->
<!DOCTYPE svg PUBLIC "-//W3C//DTD SVG 1.1//EN" "http://www.w3.org/Graphics/SVG/1.1/DTD/svg11.dtd" [
	<!ENTITY ns_extend "http://ns.adobe.com/Extensibility/1.0/">
	<!ENTITY ns_ai "http://ns.adobe.com/AdobeIllustrator/10.0/">
	<!ENTITY ns_graphs "http://ns.adobe.com/Graphs/1.0/">
	<!ENTITY ns_vars "http://ns.adobe.com/Variables/1.0/">
	<!ENTITY ns_imrep "http://ns.adobe.com/ImageReplacement/1.0/">
	<!ENTITY ns_sfw "http://ns.adobe.com/SaveForWeb/1.0/">
	<!ENTITY ns_custom "http://ns.adobe.com/GenericCustomNamespace/1.0/">
	<!ENTITY ns_adobe_xpath "http://ns.adobe.com/XPath/1.0/">
]>
<svg version="1.1" id="Livello_1" xmlns:x="&ns_extend;" xmlns:i="&ns_ai;" xmlns:graph="&ns_graphs;"
	 xmlns="http://www.w3.org/2000/svg" xmlns:xlink="http://www.w3.org/1999/xlink" x="0px" y="0px" viewBox="0 0 1699 250"
	 enable-background="new 0 0 1699 250" xml:space="preserve">
<metadata>
	<sfw  xmlns="&ns_sfw;">
		<slices></slices>
		<sliceSourceBounds  bottomLeftOrigin="true" height="250" width="1699" x="832.1" y="-28.4"></sliceSourceBounds>
	</sfw>
</metadata>
<g>
	<g>
		<path fill="#FFFFFF" d="M16.7,0C7.5,0,0,7.5,0,16.7v216.7c0,9.2,7.5,16.7,16.7,16.7h403.8V0H16.7"/>
		<path fill="#FFFFFF" d="M1682.3,0h-444.6v250h444.6c9.2,0,16.7-7.4,16.7-16.7V16.7C1699,7.5,1691.5,0,1682.3,0"/>
		<path fill="#9D9D9C" d="M1682.3,0h-444.6v5.2h444.6c6.3,0,11.5,5.1,11.5,11.5v216.7c0,6.3-5.1,11.5-11.5,11.5h-444.6v5.2h444.6
			c9.2,0,16.7-7.4,16.7-16.7V16.7C1699,7.5,1691.5,0,1682.3,0"/>
		<path fill="#9D9D9C" d="M16.7,250h403.8v-5.2H16.7c-6.3,0-11.5-5.1-11.5-11.5V16.7c0-6.3,5.1-11.5,11.5-11.5h403.8V0H16.7
			C7.5,0,0,7.5,0,16.7v216.7C0,242.5,7.5,250,16.7,250"/>
	</g>
	<linearGradient id="SVGID_1_" gradientUnits="userSpaceOnUse" x1="218.6486" y1="24.1389" x2="218.6486" y2="225.6053">
		<stop  offset="0" style="stop-color:#AE0019"/>
		<stop  offset="0.1" style="stop-color:#AE0019"/>
		<stop  offset="0.9" style="stop-color:#8D0000"/>
		<stop  offset="1" style="stop-color:#8D0000"/>
	</linearGradient>
	<path fill="url(#SVGID_1_)" d="M155.5,145.8c0,0.1,0,0.3,0,0.5c0,0.1,0,0.2,0,0.4c0,0.1,0,0.2,0,0.3c0,0.2,0,0.5,0,0.7
		c0,19.5-12.8,33.8-38.7,36.6c-5.1,0.5-10.9,0.7-16.9,0.7c-13,0-26.8-1-36.5-2c-2-0.2-3.8-0.4-5.4-0.6l-0.9-6.8
		c0-17.1,9.2-21,17.9-21c9,0,23.2,1.5,33.7,1.5c11.6,0,15.1-3.9,15.1-7.7c0-4.9-4.7-6.9-13.7-8.7l-3-0.6l-21.5-4.1
		c-20.5-3.9-31.4-18.1-31.4-33.1c0-18.3,12.9-33.6,38.4-36.4c5.4-0.6,11.2-0.8,16.9-0.8c14.7,0,29.3,1.5,38.6,2.6l0.7,6.6
		c0,17-9,20.7-17.6,20.7c-6.6,0-17-1.2-28.8-1.2c-12,0-17,3.3-17,7.4c0,4.3,4.7,6,12.2,7.3l23.5,4.3c19,3.5,29.5,12.8,33.1,24.8l0,0
		c0.2,0.6,0.3,1.1,0.5,1.7c0.4,1.9,0.7,3.8,0.9,5.9c0,0.2,0,0.4,0.1,0.6C155.5,145.7,155.5,145.7,155.5,145.8z M370,65.5
		c-0.3,0-0.6,0-0.9,0c-8.1,0-18.6,2.1-25.4,18.3l-19.9,46.8l-0.8,1.8l-1.1-1.7l-39.4-64.2c-2.6-0.8-9-2-13.6-2
		c-14.3,0-22.3,5.3-30.5,14.3l-39.3,43l8.5,13.4l23.1,36.4c5.9,9.1,13.6,13.7,26.1,13.7c8.2,0,15-1.9,18.1-3.4l-31.9-48.1l-6.2-9.3
		L264,96l23,36.1l21.2,33.4l-27,56.9c2.7,1.4,8.2,3,15.1,3.2c11.9,0.3,18.4-4.3,23.2-14.9l36.5-81.3l27.3-60.8
		C380.6,67.2,374.8,65.6,370,65.5z M165.8,45.7V137v47.6c2.3,0.4,4.6,0.5,7.3,0.5c20.4,0,24.6-6,24.6-16.5v-32.9V24.9l-7.7-0.8
		C169.4,24.1,165.8,35.2,165.8,45.7z"/>
	
		<linearGradient id="SVGID_2_" gradientUnits="userSpaceOnUse" x1="-181.5258" y1="585.4798" x2="-151.7655" y2="585.4798" gradientTransform="matrix(0 8.4003 8.4003 0 -4088.5874 1524.8738)">
		<stop  offset="0" style="stop-color:#AE0019"/>
		<stop  offset="0.1" style="stop-color:#AE0019"/>
		<stop  offset="0.9" style="stop-color:#8D0000"/>
		<stop  offset="1" style="stop-color:#8D0000"/>
	</linearGradient>
	<polygon fill="url(#SVGID_2_)" points="416.1,0 416.1,244.8 416.1,250 1243.1,250 1243.1,0 	"/>
	<g>
		<path fill="#FFFFFF" d="M1183,109.2v73.9c-1.9,0.5-5.3,1-8.7,1c-7.1,0-10-2.4-10-7.3v-9.7c-11,11.7-24.1,18.5-41.6,18.5
			c-26,0-40.6-16.8-40.6-35.3c0-28.2,30.4-40.6,81.9-37.2v-3.2c0-18-5.8-28.7-28.7-28.7c-11.9,0-22.1,2.7-28.9,4.8
			c-3.7,1-6.3,2-8.3,2c-5.4,0-8.5-4.9-7.3-15.1c11.7-4.4,28.9-8.3,45.2-8.3C1170.3,64.7,1183,81.7,1183,109.2 M1164,149.8v-22.4
			c-33.6-1.5-62.5,1.7-62.5,22.6c0,10.2,8.7,19.7,24.3,19.7C1141.6,169.7,1155,161.7,1164,149.8"/>
		<path fill="#FFFFFF" d="M465.8,125c0-34.5,25.5-60.3,59.1-60.3c16.1,0,30.4,4.4,40.6,9.5c1,10.5-2.9,14.8-7.8,14.8
			c-6.8,0-14.3-7.6-32.1-7.6c-22.4,0-40.6,16.8-40.6,43.5c0,27,18.2,44,40.6,44c17.7,0,25.3-7.6,32.1-7.6c4.9,0,8.8,4.4,7.8,14.9
			c-10.2,4.9-24.6,9.2-40.6,9.2C491.3,185.5,465.8,159.5,465.8,125"/>
		<path fill="#FFFFFF" d="M874.9,132.8h-90.4c2.9,22.6,18.7,35.5,42.1,35.5c10,0,17.8-2.2,25.1-4.6c4.9-1.7,7.5-2.7,9.5-2.7
			c4.9,0,8.5,4.6,7.3,15.1c-10.2,4.6-26,9.5-42.6,9.5c-36.2,0-61-24.6-61-60.8c0-34.8,26-60.1,57.9-60.1c35.7,0,53.2,28.5,53.2,56.2
			C875.9,124.5,875.7,128.4,874.9,132.8 M784.5,117h72.7c-0.7-19.9-13.6-35.7-34.5-35.7C804.2,81.2,787.6,93.6,784.5,117"/>
		<path fill="#FFFFFF" d="M589.6,35.3c0-7,5.6-12.4,12.4-12.4s12.1,5.4,12.1,12.4c0,6.3-5.3,12.2-12.1,12.2S589.6,41.6,589.6,35.3
			 M592.3,183.1V73.4c0-4.4,2.4-7.3,10.2-7.3c3.2,0,6.8,0.7,8.8,1.2v109.4c0,4.6-2.7,7.3-10.2,7.3
			C597.9,184.1,594.3,183.6,592.3,183.1"/>
		<path fill="#FFFFFF" d="M1061.2,106.8v70c0,4.6-2.7,7.3-10.2,7.3c-3.2,0-6.8-0.5-8.8-1V109c0-17.3-8.3-27.5-23.6-27.5
			c-13.1,0-24.3,9.5-28.7,19v76.3c0,4.6-2.4,7.3-10,7.3c-3.4,0-7.1-0.5-9-1V109c0-17.3-8-27.5-23.6-27.5c-13.1,0-24.3,9.5-28.7,19
			v76.3c0,4.6-2.4,7.3-10,7.3c-3.4,0-7.1-0.5-8.7-1V67.4c1.9-0.5,5.6-1.2,8.7-1.2c7.3,0,9.7,2.9,9.7,7.8v8.3
			c7.5-10,19.2-17.5,33.6-17.5c15.3,0,27.5,8,33.5,21.2c8-11.7,20.2-21.2,37.4-21.2C1048,64.7,1061.2,83.7,1061.2,106.8"/>
		<path fill="#FFFFFF" d="M744,114.3v62.5c0,4.6-2.4,7.3-10,7.3c-3.2,0-6.8-0.5-8.7-1v-66.4c0-23.8-11.9-35.3-29.2-35.3
			c-13.8,0-28.7,9.7-34.8,20.9v74.4c0,4.6-2.4,7.3-10,7.3c-3.4,0-7.1-0.5-8.8-1V67.4c1.7-0.5,5.4-1.2,8.8-1.2c7.5,0,10,2.9,10,7.3
			v10c8.5-10.2,21.4-18.7,38.9-18.7C724.1,64.7,744,80,744,114.3"/>
	</g>
	<path opacity="0.2" fill="#FFFFFF" enable-background="new    " d="M16.7,0C7.5,0,0,7.5,0,16.7v150.9c0-5.7,2-11,5.2-15.3v0
		c4.3-5.7,11.1-9.4,18.8-9.7L1243.1,94V0L16.7,0z"/>
	
		<linearGradient id="SVGID_3_" gradientUnits="userSpaceOnUse" x1="-285.4313" y1="168.7071" x2="-255.278" y2="168.7071" gradientTransform="matrix(0 -3.7907 -3.7907 0 2109.0044 -895.9253)">
		<stop  offset="0" style="stop-color:#8D0000"/>
		<stop  offset="0.1" style="stop-color:#8D0000"/>
		<stop  offset="0.9" style="stop-color:#AE0019"/>
		<stop  offset="1" style="stop-color:#AE0019"/>
	</linearGradient>
	<path fill="url(#SVGID_3_)" d="M1295.9,139.3V81.3c0-4.3,2.5-7,10-7c3.2,0,6.8,0.5,8.6,0.9v61.7c0,21.8,10.7,32.2,26.8,32.2
		c12.7,0,26.1-8.6,31.8-18.8v-69c0-4.3,2.3-7,9.8-7c3.2,0,6.8,0.5,8.6,0.9v108.2c-1.8,0.4-5.4,0.9-8.8,0.9c-7,0-9.3-2.9-9.3-7.3
		v-7.9c-8.4,9.3-20.6,16.5-36.8,16.5C1314.2,185.6,1295.9,171.5,1295.9,139.3z M1434.2,89.6v-7.9c0-4.3-2.2-7.3-9.3-7.3
		c-3.4,0-7,0.4-8.8,0.9v108.2c1.8,0.4,5.4,0.9,8.6,0.9c7.5,0,9.7-2.7,9.7-7v-69c5.7-10.2,19-18.8,31.8-18.8
		c16.1,0,26.8,10.4,26.8,32.2v61.7c1.8,0.4,5.4,0.9,8.6,0.9c7.5,0,10-2.7,10-7v-58.1c0-32.2-18.4-46.3-40.6-46.3h0
		C1454.9,73,1442.7,80.3,1434.2,89.6z M1643.1,129.2c0,32.2-23.8,56.6-56,56.6c-31.9,0-55.7-24.5-55.7-56.6s23.8-56.2,55.7-56.2
		C1619.4,73,1643.1,97,1643.1,129.2z M1624.4,129.2c0-24.7-16.8-39.8-37.2-39.8c-20.2,0-36.9,15.2-36.9,39.8
		c0,24.7,16.8,40.1,36.9,40.1C1607.6,169.3,1624.4,153.9,1624.4,129.2z"/>
</g>
</svg>
