<?xml version="1.0" encoding="utf-8"?>
<!-- Generator: Adobe Illustrator 23.0.1, SVG Export Plug-In . SVG Version: 6.00 Build 0)  -->
<!DOCTYPE svg PUBLIC "-//W3C//DTD SVG 1.1//EN" "http://www.w3.org/Graphics/SVG/1.1/DTD/svg11.dtd" [
	<!ENTITY ns_extend "http://ns.adobe.com/Extensibility/1.0/">
	<!ENTITY ns_ai "http://ns.adobe.com/AdobeIllustrator/10.0/">
	<!ENTITY ns_graphs "http://ns.adobe.com/Graphs/1.0/">
	<!ENTITY ns_vars "http://ns.adobe.com/Variables/1.0/">
	<!ENTITY ns_imrep "http://ns.adobe.com/ImageReplacement/1.0/">
	<!ENTITY ns_sfw "http://ns.adobe.com/SaveForWeb/1.0/">
	<!ENTITY ns_custom "http://ns.adobe.com/GenericCustomNamespace/1.0/">
	<!ENTITY ns_adobe_xpath "http://ns.adobe.com/XPath/1.0/">
]>
<svg version="1.1" id="Livello_1" xmlns:x="&ns_extend;" xmlns:i="&ns_ai;" xmlns:graph="&ns_graphs;"
	 xmlns="http://www.w3.org/2000/svg" xmlns:xlink="http://www.w3.org/1999/xlink" x="0px" y="0px" viewBox="0 0 2257.1 250"
	 enable-background="new 0 0 2257.1 250" xml:space="preserve">
<metadata>
	<sfw  xmlns="&ns_sfw;">
		<slices></slices>
		<sliceSourceBounds  bottomLeftOrigin="true" height="250" width="2257.1" x="26.1" y="167.8"></sliceSourceBounds>
	</sfw>
</metadata>
<g>
	<g>
		<path fill="#FFFFFF" d="M16.7,0C7.5,0,0,7.4,0,16.7v216.6c0,9.2,7.5,16.7,16.7,16.7h403.8V0H16.7"/>
		<path fill="#FFFFFF" d="M2240.4,0H1239.2v250h1001.2c9.2,0,16.7-7.4,16.7-16.7V16.7C2257.1,7.4,2249.6,0,2240.4,0"/>
		<path fill="#9D9D9C" d="M2240.4,0H1239.2v5.2h1001.2c6.3,0,11.5,5.1,11.5,11.5v216.6c0,6.3-5.1,11.5-11.5,11.5H1239.2v5.2h1001.2
			c9.2,0,16.7-7.4,16.7-16.7V16.7C2257.1,7.4,2249.6,0,2240.4,0"/>
		<path fill="#9D9D9C" d="M16.7,250h403.8v-5.2H16.7c-6.3,0-11.5-5.1-11.5-11.5V16.7c0-6.3,5.1-11.5,11.5-11.5h403.8V0H16.7
			C7.5,0,0,7.4,0,16.7v216.6C0,242.6,7.5,250,16.7,250"/>
	</g>
	
		<linearGradient id="SVGID_1_" gradientUnits="userSpaceOnUse" x1="408.487" y1="754.869" x2="443.752" y2="754.869" gradientTransform="matrix(0 7.0882 7.0882 0 -4521.022 -2895.4248)">
		<stop  offset="0" style="stop-color:#AE0019"/>
		<stop  offset="0.1" style="stop-color:#AE0019"/>
		<stop  offset="0.9" style="stop-color:#8D0000"/>
		<stop  offset="1" style="stop-color:#8D0000"/>
	</linearGradient>
	<polygon fill="url(#SVGID_1_)" points="1243.2,0 416.1,0 416.1,250 1243.2,250 	"/>
	<g>
		<path fill="#FFFFFF" d="M1183,109.2v73.9c-1.9,0.5-5.4,1-8.7,1c-7.1,0-10-2.4-10-7.3v-9.7c-10.9,11.6-24.1,18.5-41.6,18.5
			c-26,0-40.6-16.8-40.6-35.3c0-28.2,30.4-40.6,81.9-37.2v-3.1c0-18-5.8-28.7-28.7-28.7c-11.9,0-22.1,2.7-28.9,4.9
			c-3.6,1-6.3,1.9-8.3,1.9c-5.4,0-8.5-4.9-7.3-15.1c11.7-4.4,28.9-8.3,45.2-8.3C1170.3,64.7,1183,81.7,1183,109.2 M1164,149.8v-22.4
			c-33.5-1.5-62.5,1.7-62.5,22.6c0,10.2,8.7,19.7,24.3,19.7C1141.7,169.7,1155,161.7,1164,149.8"/>
		<path fill="#FFFFFF" d="M465.8,125c0-34.5,25.5-60.3,59.1-60.3c16,0,30.4,4.4,40.6,9.5c1,10.4-2.9,14.8-7.8,14.8
			c-6.8,0-14.4-7.5-32.1-7.5c-22.4,0-40.6,16.8-40.6,43.5c0,27,18.2,44,40.6,44c17.7,0,25.3-7.5,32.1-7.5c4.9,0,8.7,4.4,7.8,14.8
			c-10.2,4.9-24.6,9.3-40.6,9.3C491.3,185.6,465.8,159.5,465.8,125"/>
		<path fill="#FFFFFF" d="M875,132.8h-90.5c2.9,22.6,18.7,35.5,42.1,35.5c10,0,17.7-2.2,25-4.6c4.9-1.7,7.5-2.7,9.5-2.7
			c4.9,0,8.5,4.6,7.3,15.1c-10.2,4.6-26,9.5-42.6,9.5c-36.2,0-61-24.5-61-60.8c0-34.8,26-60.1,57.8-60.1c35.8,0,53.3,28.4,53.3,56.2
			C875.9,124.5,875.7,128.4,875,132.8 M784.5,117h72.7c-0.7-19.9-13.6-35.7-34.5-35.7C804.2,81.2,787.7,93.6,784.5,117"/>
		<path fill="#FFFFFF" d="M589.6,35.3c0-7,5.6-12.4,12.4-12.4c6.8,0,12.1,5.4,12.1,12.4c0,6.3-5.3,12.2-12.1,12.2
			C595.3,47.4,589.6,41.6,589.6,35.3 M592.3,183.1V73.4c0-4.4,2.4-7.3,10.2-7.3l8.7,1.2v109.4c0,4.6-2.7,7.3-10.2,7.3L592.3,183.1"
			/>
		<path fill="#FFFFFF" d="M1061.2,106.8v70c0,4.6-2.7,7.3-10.2,7.3l-8.7-1v-74.2c0-17.2-8.3-27.5-23.6-27.5
			c-13.2,0-24.3,9.5-28.7,19v76.4c0,4.6-2.4,7.3-10,7.3c-3.4,0-7.1-0.5-9-1v-74.2c0-17.2-8-27.5-23.6-27.5c-13.2,0-24.3,9.5-28.7,19
			v76.4c0,4.6-2.4,7.3-9.9,7.3c-3.4,0-7.1-0.5-8.8-1V67.4l8.8-1.2c7.3,0,9.7,2.9,9.7,7.8v8.3c7.5-10,19.2-17.5,33.6-17.5
			c15.3,0,27.5,8,33.5,21.2c8-11.7,20.2-21.2,37.5-21.2C1048.1,64.7,1061.2,83.7,1061.2,106.8"/>
		<path fill="#FFFFFF" d="M744,114.3v62.5c0,4.6-2.4,7.3-10,7.3l-8.7-1v-66.4c0-23.8-11.9-35.3-29.2-35.3
			c-13.9,0-28.7,9.7-34.8,20.9v74.4c0,4.6-2.4,7.3-9.9,7.3c-3.4,0-7.1-0.5-8.8-1V67.3c1.7-0.5,5.4-1.2,8.8-1.2
			c7.5,0,9.9,2.9,9.9,7.3v10c8.5-10.2,21.4-18.7,38.9-18.7C724.1,64.7,744,80,744,114.3"/>
	</g>
	<linearGradient id="SVGID_2_" gradientUnits="userSpaceOnUse" x1="218.6619" y1="240.1576" x2="218.6619" y2="32.1888">
		<stop  offset="0" style="stop-color:#8D0000"/>
		<stop  offset="0.1" style="stop-color:#8D0000"/>
		<stop  offset="0.9" style="stop-color:#AE0019"/>
		<stop  offset="1" style="stop-color:#AE0019"/>
	</linearGradient>
	<path fill="url(#SVGID_2_)" d="M155.5,146.2c0,0.1,0,0.3,0,0.5c0,0.1,0,0.1,0,0.2c0,0.2,0,0.5,0,0.7c0,19.5-12.8,33.8-38.7,36.6
		c-5.2,0.6-10.9,0.8-16.9,0.8c-15.7,0-32.6-1.6-41.9-2.6l-0.9-6.8c0-17.1,9.2-21,17.9-21c9,0,23.1,1.6,33.7,1.6
		c11.5,0,15.1-3.9,15.1-7.7c0-4.9-4.7-6.9-13.7-8.7l-3-0.6l-21.5-4.1C65,131.2,54.1,117.1,54.1,102c0-18.2,12.9-33.5,38.3-36.4
		c5.4-0.6,11.1-0.8,16.9-0.8c14.7,0,29.3,1.6,38.6,2.6l0.7,6.6c0,17-9,20.7-17.7,20.7c-6.6,0-17-1.2-28.7-1.2c-12,0-17,3.3-17,7.4
		c0,4.3,4.8,6,12.3,7.3l23.5,4.3c19,3.5,29.5,12.8,33.1,24.8c0.1,0.3,0.2,0.7,0.3,1c0,0,0,0.1,0,0.2c0,0.1,0,0.1,0,0.2
		c0.5,1.8,0.8,3.7,0.9,5.6c0,0.2,0,0.4,0,0.5c0,0.1,0,0.1,0,0.2c0,0.1,0,0.3,0,0.4c0,0.1,0,0.2,0,0.4
		C155.5,146,155.5,146.1,155.5,146.2z M165.8,45.7V137v47.6l7.3,0.6c20.4,0,24.5-6,24.5-16.5v-33V24.9l-7.7-0.8
		C169.4,24.1,165.8,35.1,165.8,45.7z M383.2,68.6c-2.6-1.4-8.4-3-13.2-3.1c-0.3,0-0.6,0-0.9,0c-8,0-18.5,2.2-25.3,18.3L324,130.6
		l-0.8,1.8l-1.1-1.8l-39.4-64.1c-2.6-0.8-9-2-13.7-2c-14.2,0-22.2,5.3-30.5,14.2l-39.3,43l8.5,13.4l23.1,36.4
		c5.8,9.1,13.5,13.7,26.1,13.7c8.2,0,15-1.8,18.2-3.3l-32-48.1l-6.1-9.3L264,96l23,36.2l21.2,33.4l-26.9,56.9
		c2.7,1.4,8.2,3,15.1,3.2c10.5,0.2,16.8-3.3,21.5-11.6c0.5-0.9,1-1.8,1.4-2.8c0.1-0.2,0.1-0.4,0.2-0.5l36.4-81.3l0,0L383.2,68.6z"/>
	<path opacity="0.2" fill="#FFFFFF" enable-background="new    " d="M16.7,0C7.5,0,0,7.4,0,16.7v150.9c0-5.7,1.9-11,5.2-15.3v0
		c4.4-5.6,11.1-9.4,18.8-9.7L1243.2,94V0L16.7,0z"/>
	<linearGradient id="SVGID_3_" gradientUnits="userSpaceOnUse" x1="1749.0903" y1="211.4701" x2="1749.0903" y2="76.1228">
		<stop  offset="0" style="stop-color:#8D0000"/>
		<stop  offset="0.1" style="stop-color:#8D0000"/>
		<stop  offset="0.9" style="stop-color:#AE0019"/>
		<stop  offset="1" style="stop-color:#AE0019"/>
	</linearGradient>
	<path fill="url(#SVGID_3_)" d="M1885.7,183.6c-3.2,0-6.8-0.5-8.6-1V74.5c1.8-0.4,5.4-0.9,8.8-0.9c7.1,0,9.3,2.9,9.3,7.2v7.9
		c8.4-9.3,20.6-16.5,36.8-16.5c22.2,0,40.6,14.1,40.6,46.3v58.1c0,4.3-2.5,7-10,7c-3.2,0-6.8-0.5-8.6-1V121
		c0-21.8-10.7-32.2-26.8-32.2c-12.7,0-26.1,8.6-31.8,18.8v69C1895.5,180.9,1893.2,183.6,1885.7,183.6z M2202.7,124.6
		c0,3.4-0.2,7.2-0.9,11.3h-84.1c2.9,20.6,17.2,32.6,38.8,32.6c9,0,16.3-2.3,23.3-4.5c4.5-1.6,7.1-2.3,8.9-2.3c4.8,0,8.2,4.5,7,14.2
		c-9.5,4.3-24.5,9.1-40.1,9.1c-33.5,0-56.9-23.3-56.9-57.1c0-32.2,23.3-55.8,54-55.8C2186.2,72.2,2202.7,98.5,2202.7,124.6z
		 M2184.4,120.7c-0.7-18.4-12.5-32.7-31.7-32.7c-17.2,0-32.2,11.3-34.9,32.7H2184.4z M1805.9,72.2c33.5,0,50,26.3,50,52.4
		c0,3.4-0.2,7.2-0.9,11.3h-84.1c3,20.6,17.2,32.6,38.8,32.6c9.1,0,16.3-2.3,23.3-4.5c4.5-1.6,7-2.3,8.9-2.3c4.8,0,8.1,4.5,7,14.2
		c-9.5,4.3-24.5,9.1-40.1,9.1c-33.5,0-56.9-23.3-56.9-57.1C1751.9,95.8,1775.3,72.2,1805.9,72.2z M1770.9,120.7h66.6
		c-0.7-18.4-12.4-32.7-31.7-32.7C1788.6,88.1,1773.7,99.4,1770.9,120.7z M1639.2,224.2c-3.4,0-6.8-0.5-8.6-1.2V74.5
		c1.8-0.4,5.3-0.9,8.6-0.9c7.5,0,9.7,2.8,9.7,7.1v10.4c8-11.1,21.3-18.8,37.9-18.8c27.4,0,52.4,21.1,52.4,56.3
		c0,35.4-24.9,56.5-52.4,56.5c-16.6,0-29.9-7.7-37.9-18.8v51C1649,221.5,1646.7,224.2,1639.2,224.2z M1649,147.5
		c5.9,12.5,19.5,21.1,34.2,21.1c21.3,0,37-16.4,37-40.2c0-23.6-15.7-39.9-37-39.9c-14.7,0-28.3,8.6-34.2,21.1V147.5z M1995.5,103
		c0,13.2,8.4,23.6,29.9,29.5l19,5.2c17,4.8,19.7,9.7,19.7,15.9c0,8.6-7,15.2-25.6,15.2c-17.6,0-30.3-5.6-35.8-5.6c-5,0-8.1,5-7,14.5
		c10.7,4.1,28.1,7.7,42.4,7.7c31.7,0,45.1-15.4,45.1-32.6c0-14.1-9.1-24.3-31-30.4l-19.8-5.4c-15.6-4.5-18.1-9.3-18.1-14.7
		c0-8.1,6.6-14.3,23.6-14.3c16.3,0,28.1,5.4,33.1,5.4c4.8,0,7.7-5,6.6-14.3c-10-3.9-26.5-6.8-39.7-6.8
		C2008.4,72.2,1995.5,86.7,1995.5,103z M1522.3,103c0,13.2,8.4,23.6,29.9,29.5l19,5.2c17,4.8,19.7,9.7,19.7,15.9
		c0,8.6-7.1,15.2-25.6,15.2c-17.7,0-30.4-5.6-35.8-5.6c-5,0-8.2,5-7.1,14.5c10.7,4.1,28.1,7.7,42.4,7.7c31.7,0,45.1-15.4,45.1-32.6
		c0-14.1-9-24.3-31-30.4l-19.7-5.4c-15.6-4.5-18.1-9.3-18.1-14.7c0-8.1,6.6-14.3,23.6-14.3c16.3,0,28.1,5.4,33.1,5.4
		c4.8,0,7.7-5,6.6-14.3c-9.9-3.9-26.5-6.8-39.7-6.8C1535.2,72.2,1522.3,86.7,1522.3,103z M1446.7,184.9c16.1,0,28.3-7.3,36.7-16.5
		v7.9c0,4.3,2.3,7.2,9.3,7.2c3.4,0,7-0.5,8.9-0.9V74.4l-8.6-0.9c-7.5,0-9.7,2.7-9.7,7v69c-5.7,10.2-19,18.9-31.7,18.9
		c-16.1,0-26.8-10.4-26.8-32.2V74.4c-1.8-0.5-5.5-0.9-8.6-0.9c-7.5,0-9.9,2.7-9.9,7v58.1C1406.1,170.8,1424.4,184.9,1446.7,184.9z
		 M1295.5,103c0,13.2,8.4,23.6,29.9,29.5l19,5.2c17,4.8,19.7,9.7,19.7,15.9c0,8.6-7,15.2-25.6,15.2c-17.7,0-30.3-5.6-35.8-5.6
		c-5,0-8.1,5-7,14.5c10.6,4.1,28.1,7.7,42.4,7.7c31.7,0,45.1-15.4,45.1-32.6c0-14.1-9.1-24.3-31-30.4l-19.8-5.4
		c-15.6-4.5-18.1-9.3-18.1-14.7c0-8.1,6.6-14.3,23.6-14.3c16.3,0,28.1,5.4,33,5.4c4.8,0,7.7-5,6.6-14.3c-10-3.9-26.5-6.8-39.6-6.8
		C1308.4,72.2,1295.5,86.7,1295.5,103z"/>
</g>
</svg>
