<?xml version="1.0" encoding="utf-8"?>
<!-- Generator: Adobe Illustrator 23.0.1, SVG Export Plug-In . SVG Version: 6.00 Build 0)  -->
<!DOCTYPE svg PUBLIC "-//W3C//DTD SVG 1.1//EN" "http://www.w3.org/Graphics/SVG/1.1/DTD/svg11.dtd" [
	<!ENTITY ns_extend "http://ns.adobe.com/Extensibility/1.0/">
	<!ENTITY ns_ai "http://ns.adobe.com/AdobeIllustrator/10.0/">
	<!ENTITY ns_graphs "http://ns.adobe.com/Graphs/1.0/">
	<!ENTITY ns_vars "http://ns.adobe.com/Variables/1.0/">
	<!ENTITY ns_imrep "http://ns.adobe.com/ImageReplacement/1.0/">
	<!ENTITY ns_sfw "http://ns.adobe.com/SaveForWeb/1.0/">
	<!ENTITY ns_custom "http://ns.adobe.com/GenericCustomNamespace/1.0/">
	<!ENTITY ns_adobe_xpath "http://ns.adobe.com/XPath/1.0/">
]>
<svg version="1.1" id="Livello_1" xmlns:x="&ns_extend;" xmlns:i="&ns_ai;" xmlns:graph="&ns_graphs;"
	 xmlns="http://www.w3.org/2000/svg" xmlns:xlink="http://www.w3.org/1999/xlink" x="0px" y="0px" viewBox="0 0 1935.4 250"
	 enable-background="new 0 0 1935.4 250" xml:space="preserve">
<metadata>
	<sfw  xmlns="&ns_sfw;">
		<slices></slices>
		<sliceSourceBounds  bottomLeftOrigin="true" height="250" width="1935.4" x="581.3" y="-431.9"></sliceSourceBounds>
	</sfw>
</metadata>
<g>
	<g>
		<path fill="#FFFFFF" d="M1921.4,247.4c6.3,0,11.5-5.2,11.5-11.7V14.3c0-6.5-5.2-11.7-11.5-11.7l-682.3,0v244.7L1921.4,247.4"/>
		<path fill="#9D9D9C" d="M1918.7,0h-679.6v5.2h679.6c6.3,0,11.5,5.1,11.5,11.5v216.7c0,6.3-5.1,11.5-11.5,11.5h-679.6v5.2h679.6
			c9.2,0,16.7-7.4,16.7-16.7V16.7C1935.4,7.5,1927.9,0,1918.7,0"/>
	</g>
	<linearGradient id="SVGID_1_" gradientUnits="userSpaceOnUse" x1="1588.2056" y1="224.21" x2="1588.2056" y2="31.3077">
		<stop  offset="0" style="stop-color:#8D0000"/>
		<stop  offset="0.1" style="stop-color:#8D0000"/>
		<stop  offset="0.9" style="stop-color:#AE0019"/>
		<stop  offset="1" style="stop-color:#AE0019"/>
	</linearGradient>
	<path fill="url(#SVGID_1_)" d="M1400.2,152c0-18.9,26-21.9,56.7-20.5v20.1c-7.9,10.9-20.6,18.3-34.8,18.3
		C1408.2,169.8,1400.2,161.2,1400.2,152 M1389.2,80.5c-1.1,9.9,1.8,14.9,7,14.9c2.1,0,4.5-0.9,7.9-1.8c6.5-2,15.8-4.5,26.6-4.5
		c20.8,0,26.2,9.5,26.2,26v2.9c-47.9-3.2-75.8,8.4-75.8,34.6c0,17.1,13.5,32.9,37.7,32.9c16.2,0,28.4-6.5,38.4-17.6v9
		c0,4.5,2.9,7,9.7,7c3.4,0,6.8-0.5,8.6-0.9v-68.4c0-25.7-12-41.7-43.8-41.7C1416.3,72.8,1400.2,76.4,1389.2,80.5 M1312.3,68.1V78
		h-10.2c-4,0-6.8,2.2-6.8,8.8c0,2.7,0.2,6.1,0.7,7.4h16.3v88.7c1.8,0.4,5.4,0.9,8.5,0.9c7.7,0,9.9-2.5,9.9-7V94.2h30.7
		c4.1,0,6.8-2.3,6.8-8.8c0-2.7-0.5-5.9-0.7-7.4h-36.8V66.9c0-13.7,6.8-19.2,17.8-19.2c10.1,0,16.5,2.9,19.4,2.9
		c3.6,0,6.6-2.9,6.6-9.9l-0.4-4.8c-6.1-2.4-16.9-4.7-26.4-4.7C1327.4,31.3,1312.3,43,1312.3,68.1 M1677.3,81.4v101.5
		c1.8,0.4,5.4,0.9,8.6,0.9c7.4,0,9.9-2.5,9.9-7V75.3c-1.8-0.5-5.4-0.9-8.6-0.9C1679.8,74.4,1677.3,77.1,1677.3,81.4 M1674.8,45.7
		c0,6.1,5.4,11.7,11.9,11.7c6.6,0,11.8-5.7,11.8-11.7c0-6.8-5.2-11.8-11.8-11.8C1680.2,34,1674.8,39,1674.8,45.7 M1727,38.5v144.4
		c1.8,0.4,5.4,0.9,8.6,0.9c7.4,0,9.7-2.5,9.7-7V32.4c-1.8-0.5-5.2-0.9-8.4-0.9C1729.5,31.5,1727,34.2,1727,38.5 M1580.3,92.7
		c-5.9-12.4-17.1-19.6-31.4-19.6c-13.3,0-24.1,7-31.1,16.2v-7.4c0-4.8-2.2-7.5-9.5-7.5c-3.2,0-6.8,0.4-8.6,0.9v107.6
		c1.8,0.4,5.4,0.9,8.6,0.9c7.4,0,9.7-2.5,9.7-7v-70.4c4.1-8.5,14.2-16.9,26.2-16.9c14.2,0,21.6,9.2,21.6,25v68.4
		c1.8,0.4,5.4,0.9,8.6,0.9c7.4,0,9.7-2.5,9.7-7v-70.4c4.3-8.5,14.2-16.9,26.2-16.9c14.2,0,21.6,9.2,21.6,25v68.4
		c1.8,0.4,5.4,0.9,8.6,0.9c7.4,0,9.7-2.5,9.7-7v-64.5c0-21.9-12.2-39.3-35.4-39.3C1599,73,1587.5,81.4,1580.3,92.7 M1859.1,81.2
		l-34.1,78.1l-35.6-78.1c-2.3-5-4.7-6.8-10.2-6.8c-4.3,0-9.3,1.4-11.9,2.9l48,102l-20.3,42c2.9,1.4,7.9,2.9,11.7,2.9
		c5.4,0,7.7-1.8,9.9-6.6L1881,77.3c-2.9-1.6-7.9-2.9-11.8-2.9C1863.7,74.4,1861.4,76.2,1859.1,81.2"/>
	<g>
		<path fill="#FFFFFF" d="M14,2.6C7.6,2.6,2.4,7.9,2.4,14.3v221.3c0,6.5,5.2,11.7,11.5,11.7l406.5,0V2.7L14,2.6"/>
		<path fill="#9D9D9C" d="M16.7,250h403.8v-5.2H16.7c-6.3,0-11.5-5.1-11.5-11.5V16.7c0-6.3,5.1-11.5,11.5-11.5h403.8V0H16.7
			C7.5,0,0,7.5,0,16.7v216.7C0,242.5,7.5,250,16.7,250"/>
	</g>
	
		<linearGradient id="SVGID_2_" gradientUnits="userSpaceOnUse" x1="232.2365" y1="169.6739" x2="261.9946" y2="169.6739" gradientTransform="matrix(0 8.4004 8.4004 0 -595.7499 -1950.8911)">
		<stop  offset="0" style="stop-color:#AE0019"/>
		<stop  offset="0.1" style="stop-color:#AE0019"/>
		<stop  offset="0.9" style="stop-color:#8D0000"/>
		<stop  offset="1" style="stop-color:#8D0000"/>
	</linearGradient>
	<polygon fill="url(#SVGID_2_)" points="1243.1,0 416.1,0 416.1,250 1243.1,250 	"/>
	<g>
		<path fill="#FFFFFF" d="M1182.9,109.2v73.9c-1.9,0.5-5.3,1-8.7,1c-7.1,0-10-2.4-10-7.3v-9.7c-11,11.7-24.1,18.5-41.6,18.5
			c-26,0-40.6-16.8-40.6-35.3c0-28.2,30.4-40.6,82-37.2v-3.2c0-18-5.8-28.7-28.7-28.7c-11.9,0-22.1,2.7-28.9,4.9c-3.7,1-6.3,2-8.3,2
			c-5.4,0-8.5-4.9-7.3-15.1c11.7-4.4,28.9-8.3,45.2-8.3C1170.3,64.7,1182.9,81.7,1182.9,109.2 M1164,149.8v-22.4
			c-33.6-1.5-62.5,1.7-62.5,22.6c0,10.2,8.7,19.7,24.3,19.7C1141.6,169.7,1155,161.7,1164,149.8"/>
		<path fill="#FFFFFF" d="M465.7,125c0-34.5,25.5-60.3,59.1-60.3c16.1,0,30.4,4.4,40.6,9.5c1,10.5-2.9,14.8-7.8,14.8
			c-6.8,0-14.3-7.5-32.1-7.5c-22.4,0-40.6,16.8-40.6,43.5c0,27,18.2,44,40.6,44c17.7,0,25.3-7.5,32.1-7.5c4.9,0,8.7,4.4,7.8,14.8
			c-10.2,4.9-24.6,9.2-40.6,9.2C491.3,185.5,465.7,159.5,465.7,125"/>
		<path fill="#FFFFFF" d="M874.9,132.8h-90.4c2.9,22.6,18.7,35.5,42.1,35.5c9.9,0,17.7-2.2,25-4.6c4.9-1.7,7.5-2.7,9.5-2.7
			c4.9,0,8.5,4.6,7.3,15.1c-10.2,4.6-26,9.5-42.6,9.5c-36.2,0-61-24.6-61-60.8c0-34.8,26-60.1,57.9-60.1c35.7,0,53.2,28.5,53.2,56.2
			C875.9,124.5,875.6,128.4,874.9,132.8 M784.5,117h72.7c-0.7-19.9-13.6-35.7-34.5-35.7C804.2,81.2,787.6,93.6,784.5,117"/>
		<path fill="#FFFFFF" d="M589.6,35.3c0-7,5.6-12.4,12.4-12.4c6.8,0,12.1,5.4,12.1,12.4c0,6.3-5.3,12.2-12.1,12.2
			C595.2,47.4,589.6,41.6,589.6,35.3 M592.3,183.1V73.4c0-4.4,2.4-7.3,10.2-7.3c3.2,0,6.8,0.7,8.7,1.2v109.4c0,4.6-2.7,7.3-10.2,7.3
			C597.9,184.1,594.2,183.6,592.3,183.1"/>
		<path fill="#FFFFFF" d="M1061.1,106.8v70c0,4.6-2.7,7.3-10.2,7.3c-3.2,0-6.8-0.5-8.7-1V109c0-17.3-8.3-27.5-23.6-27.5
			c-13.1,0-24.3,9.5-28.7,19v76.4c0,4.6-2.4,7.3-10,7.3c-3.4,0-7.1-0.5-9-1V109c0-17.3-8-27.5-23.6-27.5c-13.1,0-24.3,9.5-28.7,19
			v76.4c0,4.6-2.4,7.3-10,7.3c-3.4,0-7.1-0.5-8.7-1V67.4c1.9-0.5,5.6-1.2,8.7-1.2c7.3,0,9.7,2.9,9.7,7.8v8.3
			c7.5-10,19.2-17.5,33.5-17.5c15.3,0,27.5,8,33.6,21.2c8-11.7,20.2-21.2,37.4-21.2C1048,64.7,1061.1,83.7,1061.1,106.8"/>
		<path fill="#FFFFFF" d="M744,114.3v62.5c0,4.6-2.4,7.3-10,7.3c-3.2,0-6.8-0.5-8.7-1v-66.4c0-23.8-11.9-35.3-29.2-35.3
			c-13.8,0-28.7,9.7-34.8,20.9v74.4c0,4.6-2.4,7.3-10,7.3c-3.4,0-7.1-0.5-8.7-1V67.4c1.7-0.5,5.4-1.2,8.7-1.2c7.5,0,10,2.9,10,7.3
			v9.9c8.5-10.2,21.4-18.7,38.9-18.7C724.1,64.7,744,80,744,114.3"/>
	</g>
	<linearGradient id="SVGID_3_" gradientUnits="userSpaceOnUse" x1="218.6192" y1="-17.1528" x2="218.6192" y2="418.7205">
		<stop  offset="0" style="stop-color:#AE0019"/>
		<stop  offset="0.1" style="stop-color:#AE0019"/>
		<stop  offset="0.9" style="stop-color:#8D0000"/>
		<stop  offset="1" style="stop-color:#8D0000"/>
	</linearGradient>
	<path fill="url(#SVGID_3_)" d="M155.5,145.7c0,0.2,0,0.4,0,0.5c0,0.1,0,0.2,0,0.3c0,0.1,0,0.2,0,0.4c0,0.2,0,0.5,0,0.7
		c0,19.5-12.8,33.8-38.7,36.6c-18.8,2-46-0.4-58.9-1.8l-0.8-6.8c0-17.1,9.2-21,17.9-21c9,0,23.2,1.6,33.7,1.6
		c11.5,0,15.1-4,15.1-7.7c0-4.9-4.6-6.9-13.7-8.7l-2.8-0.5l-0.2,0l-21.5-4.2c-20.5-3.9-31.4-18.1-31.4-33.1
		c0-18.3,12.9-33.6,38.4-36.4c5.4-0.6,11.2-0.8,16.9-0.8c14.6,0,29.3,1.5,38.5,2.7l0.7,6.5c0,17-9,20.7-17.6,20.7
		c-6.7,0-17-1.2-28.8-1.2c-12,0-16.9,3.3-16.9,7.4c0,4.3,4.7,6,12.2,7.4l23.5,4.3c19,3.5,29.5,12.8,33.1,24.8
		C154.8,140,155.3,142.8,155.5,145.7C155.5,145.7,155.5,145.7,155.5,145.7z M370,65.5c-0.3,0-0.6,0-0.9,0c-8.1,0-18.5,2.1-25.3,18.3
		l-19.9,46.9l-0.7,1.8l-1.1-1.8l0,0l-39.4-64.2c-2.6-0.8-9-1.9-13.7-1.9c-14.3,0-22.2,5.3-30.5,14.3l-39.3,43l8.5,13.4l23.1,36.4
		c5.9,9.1,13.6,13.7,26.1,13.7c8.2,0,15-1.8,18.2-3.4l-31.9-48.1l-6.2-9.3L264,96l23,36.2l21.2,33.4l-27,56.9
		c2.7,1.4,8.2,3,15.1,3.2c0.3,0,0.6,0,0.9,0c2.5,0,4.7-0.2,6.7-0.7c7.2-1.6,11.9-6.2,15.5-14.3l36.5-81.3l27.2-60.8
		C380.6,67.2,374.8,65.6,370,65.5z M165.8,45.7V137v47.7c2.3,0.3,4.6,0.5,7.4,0.5c20.4,0,24.6-6,24.6-16.5v-32.9V24.9l-7.6-0.8
		C169.4,24.2,165.8,35.2,165.8,45.7z"/>
	<path opacity="0.2" fill="#FFFFFF" enable-background="new    " d="M16.7,0C7.5,0,0,7.5,0,16.7v150.9c0-5.7,1.9-11,5.2-15.3v0
		c4.4-5.7,11.1-9.4,18.8-9.7L1243.1,94V0L16.7,0z M602,47.4c-6.8,0-12.4-5.9-12.4-12.2c0-7.1,5.6-12.4,12.4-12.4
		c6.8,0,12.2,5.4,12.2,12.4C614.2,41.6,608.8,47.4,602,47.4z"/>
</g>
</svg>
