<?xml version="1.0" encoding="utf-8"?>
<!-- Generator: Adobe Illustrator 23.0.1, SVG Export Plug-In . SVG Version: 6.00 Build 0)  -->
<!DOCTYPE svg PUBLIC "-//W3C//DTD SVG 1.1//EN" "http://www.w3.org/Graphics/SVG/1.1/DTD/svg11.dtd" [
	<!ENTITY ns_extend "http://ns.adobe.com/Extensibility/1.0/">
	<!ENTITY ns_ai "http://ns.adobe.com/AdobeIllustrator/10.0/">
	<!ENTITY ns_graphs "http://ns.adobe.com/Graphs/1.0/">
	<!ENTITY ns_vars "http://ns.adobe.com/Variables/1.0/">
	<!ENTITY ns_imrep "http://ns.adobe.com/ImageReplacement/1.0/">
	<!ENTITY ns_sfw "http://ns.adobe.com/SaveForWeb/1.0/">
	<!ENTITY ns_custom "http://ns.adobe.com/GenericCustomNamespace/1.0/">
	<!ENTITY ns_adobe_xpath "http://ns.adobe.com/XPath/1.0/">
]>
<svg version="1.1" id="Livello_1" xmlns:x="&ns_extend;" xmlns:i="&ns_ai;" xmlns:graph="&ns_graphs;"
	 xmlns="http://www.w3.org/2000/svg" xmlns:xlink="http://www.w3.org/1999/xlink" x="0px" y="0px" viewBox="0 0 1725.1 272"
	 enable-background="new 0 0 1725.1 272" xml:space="preserve">
<metadata>
	<sfw  xmlns="&ns_sfw;">
		<slices></slices>
		<sliceSourceBounds  bottomLeftOrigin="true" height="272" width="1725.1" x="0" y="0"></sliceSourceBounds>
	</sfw>
</metadata>
<g>
	<g>
		<path fill="#FFFFFF" d="M1706.9,266.3c6.9,0,12.5-5.6,12.5-12.5V18.1c0-6.9-5.6-12.4-12.5-12.4h-544.2v260.7H1706.9"/>
		<path fill="#999999" d="M1706.9,0h-544.2v5.6h544.2c6.9,0,12.5,5.6,12.5,12.5v235.7c0,6.9-5.6,12.5-12.5,12.5h-544.2v5.6h544.2
			c10,0,18.1-8.1,18.1-18.1V18.1C1725.1,8.1,1716.9,0,1706.9,0"/>
	</g>
	
		<linearGradient id="SVGID_1_" gradientUnits="userSpaceOnUse" x1="554.3808" y1="566.698" x2="592.6854" y2="566.698" gradientTransform="matrix(0 -10.4468 -10.4468 0 6727.9258 6134.6113)">
		<stop  offset="0" style="stop-color:#A80002"/>
		<stop  offset="1" style="stop-color:#EA021A"/>
	</linearGradient>
	<rect x="452.7" fill="url(#SVGID_1_)" width="710.1" height="271.9"/>
	
		<linearGradient id="SVGID_2_" gradientUnits="userSpaceOnUse" x1="557.1361" y1="620.8058" x2="593.1036" y2="620.8058" gradientTransform="matrix(0 -10.4468 -10.4468 0 6711.7612 6134.6113)">
		<stop  offset="0" style="stop-color:#00043B"/>
		<stop  offset="1" style="stop-color:#002672"/>
	</linearGradient>
	<path fill="url(#SVGID_2_)" d="M0,253.8V18.1C0,8.1,8.1,0,18.1,0h434.6v271.9H18.1C8.1,271.9,0,263.8,0,253.8z"/>
	<g>
		<path fill="#FFFFFF" d="M306,242c2.9,1.5,8.9,3.3,16.5,3.5c12.9,0.3,19.9-4.7,25.1-16.3l69.3-154.6c-2.8-1.5-9.2-3.2-14.4-3.4
			c-8.9-0.1-20.9,1.7-28.5,19.9l-22.4,52.9l-44-71.7c-2.8-0.9-9.7-2.1-14.9-2.1c-15.5,0-24.2,5.8-33.2,15.5l-42.8,46.8l34.4,54.2
			c6.4,9.9,14.7,14.9,28.3,14.9c8.9,0,16.3-2,19.7-3.7l-41.4-62.5l29.4-31.1l48.2,75.6L306,242 M215.1,183.5c0,11.4-4.5,18-26.7,18
			l-8-0.6V49.7c0-11.5,3.9-23.5,26.4-23.5l8.3,0.8V183.5 M169.2,160.7c0,21.3-13.9,36.8-42.1,39.9c-20.5,2.2-50-0.4-64.1-2l-0.9-7.4
			c0-18.6,10.1-22.8,19.5-22.8c9.8,0,25.2,1.7,36.7,1.7c12.6,0,16.4-4.3,16.4-8.3c0-5.4-5.1-7.6-14.9-9.4L93,147
			c-22.3-4.2-34.2-19.6-34.2-36c0-19.9,14.1-36.5,41.7-39.6c20.9-2.3,46.4,0.3,60.4,2l0.8,7.2c0,18.5-9.8,22.5-19.2,22.5
			c-7.2,0-18.5-1.4-31.3-1.4c-13,0-18.5,3.6-18.5,8c0,4.6,5.1,6.5,13.3,8l25.6,4.7C157.9,127.4,169.2,142.3,169.2,160.7"/>
		<path fill="#FFFFFF" d="M508.3,193.4c-1.3-10.6,2.1-16.4,7.7-16.4c6.1,0,20.9,6.9,41.8,6.9c22.2,0,30.7-8.2,30.7-18.5
			c0-7.1-3.2-13.2-23.6-18.8l-22.8-6.3c-24.3-6.6-34.1-18.8-34.1-34.1c0-18.5,14.8-35.7,48.9-35.7c15.4,0,34.4,3.7,45.8,8.2
			c1.3,10.3-2.1,15.9-7.2,15.9c-5.5,0-19.6-6.3-38.6-6.3c-20.4,0-28,7.4-28,17.2c0,6.3,2.9,12.2,21.4,17.4l23,6.4
			c25.7,7.1,36,19.3,36,35.4c0,19.9-15.6,37.6-52.1,37.6C540.6,202.2,520.5,198.2,508.3,193.4"/>
		<path fill="#FFFFFF" d="M759.1,136c0,41-28.8,65.9-61.1,65.9c-19.6,0-35.2-9-44.5-22.2v55.6c0,4.7-2.6,7.9-10.8,7.9
			c-3.7,0-7.7-0.5-9.5-1V73.3c1.9-0.5,5.8-1.3,9.5-1.3c8.2,0,10.8,3.2,10.8,7.9v12.7c9.3-13.2,24.9-22.2,44.5-22.2
			C730.3,70.4,759.1,95.3,759.1,136 M738.2,136c0-28.1-18.8-47.3-43.9-47.3c-17.4,0-33.6,10-40.8,24.6v46
			c7.2,14.6,23.3,24.6,40.8,24.6C719.4,183.9,738.2,164.6,738.2,136"/>
		<path fill="#FFFFFF" d="M779.4,136c0-37.5,27.8-65.6,65.1-65.6c37.3,0,65.1,28.1,65.1,65.6c0,37.8-27.8,65.9-65.1,65.9
			C807.2,201.9,779.4,173.8,779.4,136 M888.7,136c0-29.1-19.9-47.3-44.2-47.3c-24.4,0-44.2,18.2-44.2,47.3
			c0,29.3,19.9,47.9,44.2,47.9C868.8,183.9,888.7,165.4,888.7,136"/>
		<path fill="#FFFFFF" d="M1011.3,81.8c0,7.7-3.5,9.5-10.8,9.5c-14.6,0-35.2,4.7-45.5,28v73c0,5-2.6,7.9-10.8,7.9
			c-3.7,0-7.7-0.5-9.5-1V73.3c1.9-0.5,5.8-1.3,9.5-1.3c8.2,0,10.8,3.2,10.8,7.9v15.3c11.7-16.7,31.8-25.9,55.6-21.9L1011.3,81.8"/>
		<path fill="#FFFFFF" d="M1108.5,193.4c-10.9,5.3-23.6,8.5-36.5,8.5c-24.9,0-39.9-14.3-39.9-38.9V49.7c0-4.7,2.6-7.9,10.8-7.9
			c3.7,0,7.7,0.8,9.5,1.6v29.9h50.5l0.8,8.2c0,7.4-3.2,9.8-7.7,9.8h-43.6v70.1c0,15.4,7.4,22,21.7,22c12.9,0,20.6-5,26.7-5
			C1106.6,178.3,1109.5,183.6,1108.5,193.4"/>
	</g>
	<path opacity="0.15" fill="#FFFFFF" d="M18.1,0C8.1,0,0,8.1,0,18.1v164.2c0-14.6,11.5-26.6,26.1-27.2l1136.7-45.3V0H18.1z"/>
	<path fill="#FF1E00" d="M1319.6,146l-56.4,54.7h-71.9l89.5-88.8c33.2-32.9,49.3-38.3,106-38.3h224l-48.6,47.6h-169
		C1350.8,121.1,1341.8,124.4,1319.6,146 M1554.9,128.7h-160.7c-42.7,0-49.3,3.3-68.7,22.6l-49.3,49.3h66.7l15.9-15.9
		c10.5-10.5,15.2-11.5,36.3-11.5h115.3L1554.9,128.7z M1572.3,200.7l127.5-127.1h-79.2l-127.1,127.1H1572.3z"/>
</g>
</svg>
