<?xml version="1.0" encoding="utf-8"?>
<!-- Generator: Adobe Illustrator 23.0.1, SVG Export Plug-In . SVG Version: 6.00 Build 0)  -->
<!DOCTYPE svg PUBLIC "-//W3C//DTD SVG 1.1//EN" "http://www.w3.org/Graphics/SVG/1.1/DTD/svg11.dtd" [
	<!ENTITY ns_extend "http://ns.adobe.com/Extensibility/1.0/">
	<!ENTITY ns_ai "http://ns.adobe.com/AdobeIllustrator/10.0/">
	<!ENTITY ns_graphs "http://ns.adobe.com/Graphs/1.0/">
	<!ENTITY ns_vars "http://ns.adobe.com/Variables/1.0/">
	<!ENTITY ns_imrep "http://ns.adobe.com/ImageReplacement/1.0/">
	<!ENTITY ns_sfw "http://ns.adobe.com/SaveForWeb/1.0/">
	<!ENTITY ns_custom "http://ns.adobe.com/GenericCustomNamespace/1.0/">
	<!ENTITY ns_adobe_xpath "http://ns.adobe.com/XPath/1.0/">
]>
<svg version="1.1" id="Livello_1" xmlns:x="&ns_extend;" xmlns:i="&ns_ai;" xmlns:graph="&ns_graphs;"
	 xmlns="http://www.w3.org/2000/svg" xmlns:xlink="http://www.w3.org/1999/xlink" x="0px" y="0px" viewBox="0 0 1980.8 272"
	 enable-background="new 0 0 1980.8 272" xml:space="preserve">
<metadata>
	<sfw  xmlns="&ns_sfw;">
		<slices></slices>
		<sliceSourceBounds  bottomLeftOrigin="true" height="272" width="1980.8" x="4018" y="-1129.3"></sliceSourceBounds>
	</sfw>
</metadata>
<g>
	<g>
		<path fill="#FFFFFF" d="M1162.7,272h799.9c10,0,18.1-8.1,18.1-18.1V18.1c0-10-8.1-18.1-18.1-18.1h-799.9V272"/>
		<path fill="#999999" d="M1962.7,0h-799.9v5.7h799.9c6.9,0,12.5,5.6,12.5,12.5v235.7c0,6.9-5.6,12.5-12.5,12.5h-799.9v5.6h799.9
			c10,0,18.1-8.1,18.1-18.1V18.1C1980.8,8.1,1972.7,0,1962.7,0"/>
	</g>
	
		<linearGradient id="SVGID_1_" gradientUnits="userSpaceOnUse" x1="-394.7354" y1="-1083.8291" x2="-358.6577" y2="-1083.8291" gradientTransform="matrix(0 -11.3125 -11.3125 0 -11453.1357 -4122.459)">
		<stop  offset="0" style="stop-color:#A80002"/>
		<stop  offset="1" style="stop-color:#EA021A"/>
	</linearGradient>
	<rect x="452.6" y="0" fill="url(#SVGID_1_)" width="710.1" height="272"/>
	
		<linearGradient id="SVGID_2_" gradientUnits="userSpaceOnUse" x1="-392.2003" y1="-1033.9839" x2="-358.9872" y2="-1033.9839" gradientTransform="matrix(0 -11.3125 -11.3125 0 -11470.6396 -4122.459)">
		<stop  offset="0" style="stop-color:#00043B"/>
		<stop  offset="1" style="stop-color:#002672"/>
	</linearGradient>
	<path fill="url(#SVGID_2_)" d="M0,253.9V18.2C0,8.1,8.1,0,18.1,0h434.5v272H18.1C8.1,272,0,263.9,0,253.9z"/>
	<g>
		<path fill="#FFFFFF" d="M306,241.9c2.9,1.5,8.9,3.3,16.4,3.5c12.9,0.3,19.9-4.7,25.2-16.2l69.3-154.6c-2.9-1.6-9.2-3.3-14.4-3.4
			c-8.9-0.1-20.9,1.7-28.5,19.9l-22.5,53l-44-71.7c-2.8-0.9-9.8-2.1-14.8-2.1c-15.5,0-24.2,5.7-33.2,15.5l-42.8,46.8l34.4,54.2
			c6.3,9.9,14.7,14.9,28.4,14.9c8.9,0,16.3-2,19.7-3.7l-41.4-62.5l29.4-31.1l48.2,75.6L306,241.9 M215.1,183.5
			c0,11.4-4.5,18-26.7,18l-8-0.6V49.7c0-11.5,3.9-23.5,26.4-23.5l8.3,0.9V183.5 M169.2,160.7c0,21.3-13.9,36.8-42.1,39.8
			c-20.4,2.2-50-0.4-64.1-2l-0.9-7.4c0-18.6,10-22.8,19.5-22.8c9.8,0,25.1,1.7,36.6,1.7c12.6,0,16.4-4.3,16.4-8.3
			c0-5.3-5.1-7.6-14.8-9.4L93,147c-22.3-4.3-34.1-19.7-34.1-36c0-19.9,14-36.5,41.7-39.6c20.9-2.3,46.4,0.3,60.3,2l0.8,7.1
			c0,18.5-9.8,22.6-19.2,22.6c-7.3,0-18.5-1.4-31.3-1.4c-13.1,0-18.5,3.6-18.5,8c0,4.6,5.1,6.5,13.3,8l25.6,4.7
			C157.9,127.4,169.2,142.3,169.2,160.7"/>
		<path fill="#FFFFFF" d="M508.3,193.4c-1.3-10.6,2.1-16.4,7.7-16.4c6.1,0,20.9,6.9,41.8,6.9c22.2,0,30.7-8.2,30.7-18.5
			c0-7.1-3.2-13.2-23.5-18.8l-22.8-6.3c-24.3-6.6-34.1-18.8-34.1-34.1c0-18.5,14.8-35.7,48.9-35.7c15.3,0,34.4,3.7,45.8,8.2
			c1.3,10.3-2.1,15.9-7.1,15.9c-5.5,0-19.6-6.3-38.6-6.3c-20.4,0-28,7.4-28,17.2c0,6.3,2.9,12.2,21.4,17.4l23,6.4
			c25.7,7.1,36,19.3,36,35.4c0,19.8-15.6,37.6-52.1,37.6C540.6,202.1,520.5,198.1,508.3,193.4"/>
		<path fill="#FFFFFF" d="M759,136c0,41-28.8,65.9-61.1,65.9c-19.6,0-35.2-9-44.4-22.2v55.6c0,4.7-2.6,7.9-10.8,7.9
			c-3.7,0-7.7-0.5-9.5-1.1V73.3c1.9-0.5,5.8-1.3,9.5-1.3c8.2,0,10.8,3.2,10.8,7.9v12.7c9.3-13.2,24.9-22.2,44.4-22.2
			C730.2,70.4,759,95.2,759,136 M738.1,136c0-28-18.8-47.4-43.9-47.4c-17.5,0-33.6,10.1-40.8,24.6v46c7.1,14.5,23.3,24.6,40.8,24.6
			C719.4,183.9,738.1,164.6,738.1,136"/>
		<path fill="#FFFFFF" d="M779.4,136c0-37.6,27.8-65.6,65.1-65.6c37.3,0,65.1,28,65.1,65.6c0,37.8-27.8,65.9-65.1,65.9
			C807.1,201.9,779.4,173.8,779.4,136 M888.6,136c0-29.1-19.8-47.4-44.2-47.4c-24.3,0-44.2,18.3-44.2,47.4
			c0,29.4,19.8,47.9,44.2,47.9C868.8,183.9,888.6,165.4,888.6,136"/>
		<path fill="#FFFFFF" d="M1011.3,81.8c0,7.7-3.5,9.5-10.8,9.5c-14.6,0-35.2,4.7-45.5,28v73c0,5-2.7,7.9-10.9,7.9
			c-3.7,0-7.7-0.5-9.5-1.1V73.3c1.9-0.5,5.8-1.3,9.5-1.3c8.2,0,10.9,3.2,10.9,7.9v15.3c11.6-16.7,31.7-25.9,55.5-22
			C1010.8,74.9,1011.3,78.6,1011.3,81.8"/>
		<path fill="#FFFFFF" d="M1108.4,193.4c-10.8,5.3-23.5,8.5-36.5,8.5c-24.9,0-40-14.3-40-38.9V49.7c0-4.7,2.7-7.9,10.9-7.9
			c3.7,0,7.7,0.8,9.5,1.6v29.9h50.5c0.3,1.6,0.8,5,0.8,8.2c0,7.4-3.2,9.8-7.7,9.8h-43.6v70.1c0,15.3,7.4,22,21.7,22
			c13,0,20.6-5,26.7-5C1106.5,178.3,1109.4,183.6,1108.4,193.4"/>
	</g>
	<path opacity="0.15" fill="#FFFFFF" d="M18.1,0C8.1,0,0,8.1,0,18.2v164.2c0-14.6,11.6-26.6,26.1-27.2l1136.6-45.3V0H18.1z"/>
	<g>
		<path fill="#131780" d="M1270.6,203.6c-7.3,0-15.4-0.7-24.2-2c-9-1.5-18.2-3.9-27.2-7.2l-1.1-0.4l-0.1-1.2
			c-0.3-4.6,0.5-8,2.6-10.6c2.2-2.6,5.1-4,8.6-4c2,0,4.4,0.4,7.3,1.2c2.6,0.7,5.6,1.5,9,2.4c3.6,0.9,7.4,1.7,11.7,2.4
			c4.6,0.7,9.7,1.1,15.1,1.1c6.5,0,12.2-0.8,16.9-2.3c4.7-1.5,8.5-3.6,11.2-6c2.9-2.5,4.9-5.3,6.3-8.7c1.4-3.3,2.1-6.8,2.1-10.5
			c0-7.3-2.4-12.9-7-16.6c-4.8-3.8-11.4-6.8-20.2-9.2l-21.7-6.3c-7.4-2.1-13.9-4.7-19.1-7.7c-5.2-3-9.5-6.4-12.8-10.2
			c-3.2-3.7-5.6-7.9-7.2-12.4c-1.6-4.8-2.3-9.4-2.3-14.2c0-4.9,0.8-9.8,2.6-15c1.8-5.3,4.8-9.9,9.1-14c4.2-4.1,9.8-7.5,16.7-10.2
			c6.9-2.7,15.5-4,25.7-4c7.8,0,15.7,0.7,23.7,2c7.8,1.4,15.9,3.7,24.7,7l1.1,0.4l0.1,1.2c0.3,4.6-0.5,8-2.6,10.6
			c-2.2,2.6-5.1,4-8.6,4c-1.7,0-3.7-0.4-6.3-1.2l-0.3-0.1c-2.2-0.7-4.7-1.4-7.7-2.2c-3.3-0.9-7-1.6-10.9-2.3
			c-4.3-0.7-9-1.1-13.9-1.1c-6.4,0-11.7,0.8-16.1,2.3c-4.2,1.5-7.6,3.4-10.3,5.9c-2.6,2.5-4.4,5.1-5.3,7.9c-1.1,3-1.6,5.9-1.6,8.5
			c0,6.3,1.9,11.2,5.8,15c4.1,3.9,11.6,7.4,22.2,10.3l22.2,6.3c14,4,24,9.6,30.7,16.9c6.6,7.5,10,16.5,10,27c0,7-1.2,13.2-3.6,19.2
			c-2.5,5.9-6.2,10.9-11,14.9c-5,4.1-11,7.3-18.5,9.6C1289.5,202.5,1280.8,203.6,1270.6,203.6"/>
		<path fill="#131780" d="M1457,149h-90.8c3.2,22.3,18.6,35.3,41.9,35.3c9.8,0,17.7-2.5,25.2-4.9c4.9-1.7,7.6-2.5,9.6-2.5
			c5.2,0,8.8,4.9,7.6,15.4c-10.3,4.7-26.5,9.8-43.4,9.8c-36.3,0-61.5-25.2-61.5-61.8c0-34.8,25.2-60.3,58.3-60.3
			c36.3,0,54.2,28.4,54.2,56.6C1458,140.4,1457.7,144.6,1457,149 M1366.2,132.5h72.1c-0.7-19.9-13.5-35.3-34.3-35.3
			C1385.2,97.3,1369.1,109.5,1366.2,132.5"/>
		<path fill="#131780" d="M1554.4,90.8c0,7.6-3.4,9.6-10.5,9.6c-13.5,0-32.4,4.4-41.7,25.5v67c0,4.9-2.4,7.6-10.6,7.6
			c-3.4,0-7.4-0.5-9.3-1v-117c2-0.5,5.9-1,9.3-1c8.1,0,10.6,2.9,10.6,7.6v14c11-16,29.4-24.1,51.5-20.6
			C1553.9,84.2,1554.4,87.7,1554.4,90.8"/>
		<path fill="#131780" d="M1566.9,53.6c0-7.8,6-13.1,13.1-13.1c7.2,0,13.1,5.4,13.1,13.1c0,6.6-6,13.1-13.1,13.1
			C1572.8,66.1,1566.9,60.1,1566.9,53.6 M1569.8,200.3V88.2c0-4.8,3-7.8,10.7-7.8c3.6,0,7.8,0.6,9.5,1.2v112.1c0,4.8-3,7.8-10.7,7.8
			C1575.8,201.5,1571.6,200.9,1569.8,200.3"/>
		<path fill="#131780" d="M1727.9,149H1637c3.2,22.3,18.6,35.3,41.9,35.3c9.8,0,17.7-2.5,25.2-4.9c4.9-1.7,7.6-2.5,9.6-2.5
			c5.2,0,8.8,4.9,7.6,15.4c-10.3,4.7-26.5,9.8-43.4,9.8c-36.3,0-61.5-25.2-61.5-61.8c0-34.8,25.2-60.3,58.3-60.3
			c36.3,0,54.2,28.4,54.2,56.6C1728.9,140.4,1728.6,144.6,1727.9,149 M1637,132.5h72.1c-0.7-19.9-13.5-35.3-34.3-35.3
			C1656.1,97.3,1639.9,109.5,1637,132.5"/>
		<path fill="#131780" d="M1915.7,202.3c-2.4,0-4.6-0.5-6.6-1.4c-2.3-1-4.1-3-5-5.7l-15.5-43h-64.9l-15.3,43c-1,2.8-2.7,4.7-5,5.7
			c-2.1,0.8-4.3,1.2-6.6,1.2c-1.6,0-3.3-0.2-5-0.7c-1.5-0.4-3.1-0.8-4.4-1.4l-1.5-0.7l0.6-1.6l57.2-156.4l0.9-0.2
			c3.9-1,7.8-1.5,11.8-1.5c5.3,0,9,0.8,11.3,2.6c2.3,1.7,4.2,4.7,5.4,8.6l53.3,148.5l-1.3,0.8c-1.3,0.8-2.8,1.3-4.5,1.6
			C1918.7,202.2,1917.2,202.3,1915.7,202.3 M1830.2,133.7h52.2l-26-73.1L1830.2,133.7z"/>
	</g>
</g>
</svg>
