<?xml version="1.0" encoding="utf-8"?>
<!-- Generator: Adobe Illustrator 23.0.1, SVG Export Plug-In . SVG Version: 6.00 Build 0)  -->
<!DOCTYPE svg PUBLIC "-//W3C//DTD SVG 1.1//EN" "http://www.w3.org/Graphics/SVG/1.1/DTD/svg11.dtd" [
	<!ENTITY ns_extend "http://ns.adobe.com/Extensibility/1.0/">
	<!ENTITY ns_ai "http://ns.adobe.com/AdobeIllustrator/10.0/">
	<!ENTITY ns_graphs "http://ns.adobe.com/Graphs/1.0/">
	<!ENTITY ns_vars "http://ns.adobe.com/Variables/1.0/">
	<!ENTITY ns_imrep "http://ns.adobe.com/ImageReplacement/1.0/">
	<!ENTITY ns_sfw "http://ns.adobe.com/SaveForWeb/1.0/">
	<!ENTITY ns_custom "http://ns.adobe.com/GenericCustomNamespace/1.0/">
	<!ENTITY ns_adobe_xpath "http://ns.adobe.com/XPath/1.0/">
]>
<svg version="1.1" id="Livello_1" xmlns:x="&ns_extend;" xmlns:i="&ns_ai;" xmlns:graph="&ns_graphs;"
	 xmlns="http://www.w3.org/2000/svg" xmlns:xlink="http://www.w3.org/1999/xlink" x="0px" y="0px" viewBox="0 0 1839.9 272"
	 enable-background="new 0 0 1839.9 272" xml:space="preserve">
<metadata>
	<sfw  xmlns="&ns_sfw;">
		<slices></slices>
		<sliceSourceBounds  bottomLeftOrigin="true" height="272" width="1839.9" x="0" y="0"></sliceSourceBounds>
	</sfw>
</metadata>
<g>
	<g>
		<path fill="#FFFFFF" d="M1821.8,266.3c6.9,0,12.5-5.6,12.5-12.5V18.1c0-6.9-5.6-12.5-12.5-12.5h-659.6v260.6H1821.8"/>
		<path fill="#999999" d="M1821.8,0h-659.6v5.7h659.6c6.9,0,12.5,5.6,12.5,12.5v235.7c0,6.9-5.6,12.5-12.5,12.5h-659.6v5.7h659.6
			c10,0,18.1-8.1,18.1-18.2V18.1C1839.9,8.1,1831.8,0,1821.8,0"/>
	</g>
	
		<linearGradient id="SVGID_1_" gradientUnits="userSpaceOnUse" x1="599.2466" y1="560.6525" x2="635.2771" y2="560.6525" gradientTransform="matrix(0 -11.316 -11.316 0 7152.0352 7124.1191)">
		<stop  offset="0" style="stop-color:#A80002"/>
		<stop  offset="1" style="stop-color:#EA021A"/>
	</linearGradient>
	<rect x="452.7" y="0" fill="url(#SVGID_1_)" width="710.1" height="271.9"/>
	
		<linearGradient id="SVGID_2_" gradientUnits="userSpaceOnUse" x1="601.7866" y1="610.4811" x2="634.9897" y2="610.4811" gradientTransform="matrix(0 -11.316 -11.316 0 7134.5259 7124.1191)">
		<stop  offset="0" style="stop-color:#00043B"/>
		<stop  offset="1" style="stop-color:#002672"/>
	</linearGradient>
	<path fill="url(#SVGID_2_)" d="M0,253.8V18.1C0,8.1,8.1,0,18.1,0h434.5v271.9H18.1C8.1,271.9,0,263.8,0,253.8z"/>
	<g>
		<path fill="#FFFFFF" d="M306,241.9c2.9,1.5,8.9,3.3,16.4,3.5c12.9,0.3,20-4.7,25.2-16.2l69.3-154.6c-2.9-1.5-9.2-3.3-14.3-3.4
			c-8.9-0.2-20.9,1.7-28.5,19.9l-22.4,53l-44-71.7c-2.8-0.9-9.8-2.1-14.8-2.1c-15.5,0-24.2,5.7-33.2,15.5l-42.8,46.8l34.4,54.2
			c6.4,9.9,14.7,14.9,28.4,14.9c8.9,0,16.3-2,19.8-3.7l-41.4-62.5l29.4-31.1l48.2,75.6L306,241.9 M215.1,183.5
			c0,11.4-4.4,18-26.7,18l-8-0.6V49.7c0-11.5,3.9-23.4,26.4-23.4l8.3,0.8V183.5 M169.2,160.7c0,21.3-13.9,36.8-42.1,39.8
			c-20.4,2.2-50-0.4-64-2l-0.9-7.4c0-18.6,10-22.8,19.5-22.8c9.8,0,25.2,1.7,36.6,1.7c12.6,0,16.4-4.3,16.4-8.3
			c0-5.3-5.1-7.6-14.9-9.4L93,147.1c-22.2-4.3-34.1-19.7-34.1-36c0-19.9,14-36.5,41.7-39.6c20.9-2.3,46.4,0.3,60.3,2l0.8,7.2
			c0,18.5-9.8,22.5-19.2,22.5c-7.2,0-18.5-1.4-31.3-1.4c-13,0-18.5,3.6-18.5,8c0,4.6,5.1,6.6,13.3,8l25.6,4.7
			C157.9,127.4,169.2,142.3,169.2,160.7"/>
		<path fill="#FFFFFF" d="M508.3,193.4c-1.3-10.6,2.1-16.4,7.7-16.4c6.1,0,20.9,6.9,41.8,6.9c22.2,0,30.7-8.2,30.7-18.5
			c0-7.1-3.2-13.2-23.5-18.8l-22.7-6.3c-24.3-6.6-34.1-18.8-34.1-34.1c0-18.5,14.8-35.7,48.9-35.7c15.3,0,34.4,3.7,45.8,8.2
			c1.3,10.3-2.1,15.9-7.1,15.9c-5.5,0-19.6-6.4-38.6-6.4c-20.4,0-28.1,7.4-28.1,17.2c0,6.3,2.9,12.2,21.4,17.5l23,6.3
			c25.6,7.1,36,19.3,36,35.5c0,19.8-15.6,37.6-52.1,37.6C540.6,202.1,520.5,198.2,508.3,193.4"/>
		<path fill="#FFFFFF" d="M759.1,136c0,41-28.9,65.9-61.1,65.9c-19.6,0-35.2-9-44.4-22.2v55.6c0,4.8-2.7,7.9-10.9,7.9
			c-3.7,0-7.7-0.5-9.5-1.1V73.3c1.9-0.5,5.8-1.3,9.5-1.3c8.2,0,10.9,3.2,10.9,7.9v12.7c9.2-13.2,24.9-22.2,44.4-22.2
			C730.2,70.4,759.1,95.2,759.1,136 M738.1,136c0-28-18.8-47.3-43.9-47.3c-17.4,0-33.6,10.1-40.7,24.6v46
			c7.1,14.5,23.3,24.6,40.7,24.6C719.4,183.9,738.1,164.6,738.1,136"/>
		<path fill="#FFFFFF" d="M779.4,136c0-37.6,27.8-65.6,65-65.6c37.3,0,65.1,28.1,65.1,65.6c0,37.8-27.8,65.9-65.1,65.9
			C807.1,201.9,779.4,173.8,779.4,136 M888.6,136c0-29.1-19.9-47.3-44.2-47.3s-44.2,18.3-44.2,47.3c0,29.4,19.8,47.9,44.2,47.9
			S888.6,165.3,888.6,136"/>
		<path fill="#FFFFFF" d="M1011.3,81.8c0,7.7-3.5,9.5-10.9,9.5c-14.5,0-35.2,4.7-45.5,28v73c0,5-2.7,7.9-10.9,7.9
			c-3.7,0-7.7-0.5-9.5-1.1V73.3c1.8-0.5,5.8-1.3,9.5-1.3c8.2,0,10.9,3.2,10.9,7.9v15.3c11.7-16.7,31.7-25.9,55.5-21.9
			C1010.8,74.9,1011.3,78.6,1011.3,81.8"/>
		<path fill="#FFFFFF" d="M1108.4,193.4c-10.9,5.3-23.5,8.5-36.5,8.5c-24.8,0-39.9-14.3-39.9-38.9V49.7c0-4.7,2.6-7.9,10.8-7.9
			c3.7,0,7.7,0.8,9.5,1.6v29.9h50.5c0.3,1.6,0.8,5,0.8,8.2c0,7.4-3.2,9.8-7.7,9.8h-43.6v70.1c0,15.3,7.4,21.9,21.7,21.9
			c13,0,20.7-5,26.7-5C1106.5,178.3,1109.5,183.6,1108.4,193.4"/>
	</g>
	<path opacity="0.15" fill="#FFFFFF" d="M18.1,0C8.1,0,0,8.1,0,18.1v164.2c0-14.6,11.6-26.6,26.1-27.2l1136.6-45.3V0H18.1z"/>
	<g>
		<path fill="#131780" d="M1785,125.3v74.5c-2,0.5-5.4,1-8.6,1c-6.9,0-9.8-2.5-9.8-7.1v-8.8h-0.2c-8.8,9.1-22.5,17.4-40.9,17.4
			c-26,0-40.2-17.2-40.2-36c0-27.7,29.9-40.7,81.1-37.3v-3c0-18.4-5.9-28.4-28.4-28.4c-12,0-22.1,2.5-28.9,4.4
			c-3.5,1-6.1,1.7-8.1,1.7c-5.1,0-8.3-5.1-7.1-14.9c11-4.4,28.2-8.3,44.6-8.3C1772.6,80.4,1785,97.6,1785,125.3 M1766.4,165.7v-22
			c-33.3-1.5-62.3,2.2-62.3,23c0,10.3,8.8,19.4,23.8,19.4C1743.1,186.1,1757.4,177.8,1766.4,165.7"/>
		<path fill="#131780" d="M1317.4,125.3v74.5c-2,0.5-5.4,1-8.6,1c-6.9,0-9.8-2.5-9.8-7.1v-8.8h-0.2c-8.8,9.1-22.5,17.4-40.9,17.4
			c-26,0-40.2-17.2-40.2-36c0-27.7,29.9-40.7,81.1-37.3v-3c0-18.4-5.9-28.4-28.4-28.4c-12,0-22.1,2.5-28.9,4.4
			c-3.5,1-6.1,1.7-8.1,1.7c-5.1,0-8.3-5.1-7.1-14.9c11-4.4,28.2-8.3,44.6-8.3C1304.9,80.4,1317.4,97.6,1317.4,125.3 M1298.8,165.7
			v-22c-33.3-1.5-62.3,2.2-62.3,23c0,10.3,8.8,19.4,23.8,19.4C1275.5,186.1,1289.7,177.8,1298.8,165.7"/>
		<path fill="#131780" d="M1418.6,90.8c0,7.6-3.4,9.6-10.6,9.6c-13.5,0-32.4,4.4-41.7,25.5v67c0,4.9-2.5,7.6-10.6,7.6
			c-3.4,0-7.4-0.5-9.3-1V82.5c2-0.5,5.9-1,9.3-1c8.1,0,10.6,3,10.6,7.6v14c11.1-16,29.5-24.1,51.6-20.6
			C1418.1,84.2,1418.6,87.6,1418.6,90.8"/>
		<path fill="#131780" d="M1559,199.5v-117c2-0.5,5.9-1,9.6-1c7.6,0,10.1,3.2,10.1,7.8v8.6c9.1-10.1,22.3-17.9,39.7-17.9
			c24,0,43.9,15.2,43.9,50v62.8c0,4.6-2.7,7.6-10.8,7.6c-3.4,0-7.3-0.5-9.3-1v-66.7c0-23.5-11.6-34.8-29-34.8
			c-13.7,0-28.2,9.3-34.3,20.4v74.5c0,4.6-2.5,7.6-10.5,7.6C1564.9,200.4,1561,199.9,1559,199.5"/>
		<path fill="#131780" d="M1535.3,148.9h-91c3.2,22.3,18.6,35.3,41.9,35.3c9.8,0,17.7-2.5,25.2-4.9c4.9-1.7,7.6-2.5,9.6-2.5
			c5.2,0,8.8,4.9,7.6,15.4c-10.3,4.6-26.5,9.8-43.4,9.8c-36.3,0-61.5-25.2-61.5-61.8c0-34.8,25.2-60.3,58.3-60.3
			c36.3,0,54.2,28.4,54.2,56.6C1536.3,140.3,1536.1,144.5,1535.3,148.9 M1444.4,132.5h72.1c-0.7-19.9-13.5-35.3-34.3-35.3
			C1463.5,97.2,1447.3,109.5,1444.4,132.5"/>
	</g>
</g>
</svg>
