<?xml version="1.0" encoding="utf-8"?>
<!-- Generator: Adobe Illustrator 23.0.1, SVG Export Plug-In . SVG Version: 6.00 Build 0)  -->
<!DOCTYPE svg PUBLIC "-//W3C//DTD SVG 1.1//EN" "http://www.w3.org/Graphics/SVG/1.1/DTD/svg11.dtd" [
	<!ENTITY ns_extend "http://ns.adobe.com/Extensibility/1.0/">
	<!ENTITY ns_ai "http://ns.adobe.com/AdobeIllustrator/10.0/">
	<!ENTITY ns_graphs "http://ns.adobe.com/Graphs/1.0/">
	<!ENTITY ns_vars "http://ns.adobe.com/Variables/1.0/">
	<!ENTITY ns_imrep "http://ns.adobe.com/ImageReplacement/1.0/">
	<!ENTITY ns_sfw "http://ns.adobe.com/SaveForWeb/1.0/">
	<!ENTITY ns_custom "http://ns.adobe.com/GenericCustomNamespace/1.0/">
	<!ENTITY ns_adobe_xpath "http://ns.adobe.com/XPath/1.0/">
]>
<svg  version="1.1" id="Livello_1" xmlns:x="&ns_extend;" xmlns:i="&ns_ai;" xmlns:graph="&ns_graphs;"
	 xmlns="http://www.w3.org/2000/svg" xmlns:xlink="http://www.w3.org/1999/xlink" x="0px" y="0px" viewBox="0 0 1462.6 272"
	 enable-background="new 0 0 1462.6 272" xml:space="preserve">
<metadata>
	<sfw  xmlns="&ns_sfw;">
		<slices></slices>
		<sliceSourceBounds  bottomLeftOrigin="true" height="272" width="1462.6" x="4553.3" y="-380.2"></sliceSourceBounds>
	</sfw>
</metadata>
<g>
	<path fill="#FFFFFF" d="M1444.5,266.3c6.9,0,12.5-5.6,12.5-12.5V18.1c0-6.9-5.6-12.5-12.5-12.5H784.8v260.7H1444.5"/>
	<path fill="#999999" d="M1444.5,0H784.8v5.7h659.7c6.9,0,12.5,5.6,12.5,12.5v235.7c0,6.9-5.6,12.5-12.5,12.5H784.8v5.6h659.7
		c10,0,18.1-8.1,18.1-18.1V18.1C1462.6,8.1,1454.5,0,1444.5,0"/>
	
		<linearGradient id="SVGID_1_" gradientUnits="userSpaceOnUse" x1="-870.4989" y1="-566.0386" x2="-834.792" y2="-566.0386" gradientTransform="matrix(0 -11.3158 -11.3158 0 -5597.4126 -9507.3008)">
		<stop  offset="0" style="stop-color:#A80002"/>
		<stop  offset="1" style="stop-color:#EA021A"/>
	</linearGradient>
	<rect x="452.6" y="0" fill="url(#SVGID_1_)" width="710.2" height="272"/>
	
		<linearGradient id="SVGID_2_" gradientUnits="userSpaceOnUse" x1="-867.9606" y1="-516.2042" x2="-834.7536" y2="-516.2042" gradientTransform="matrix(0 -11.3158 -11.3158 0 -5614.9214 -9507.3008)">
		<stop  offset="0" style="stop-color:#00043B"/>
		<stop  offset="1" style="stop-color:#002672"/>
	</linearGradient>
	<path fill="url(#SVGID_2_)" d="M0,18.1v235.7c0,10,8.1,18.1,18.1,18.1h434.5V0H18.1C8.1,0,0,8.1,0,18.1z"/>
	<path fill="#FFFFFF" d="M306,242c2.9,1.5,8.9,3.3,16.4,3.5c12.9,0.3,20-4.6,25.2-16.2l69.3-154.6c-2.9-1.5-9.2-3.3-14.4-3.4
		c-8.9-0.2-20.9,1.6-28.5,19.9l-22.4,53l-44-71.7c-2.8-0.9-9.8-2.1-14.8-2.1c-15.5,0-24.2,5.7-33.2,15.5l-42.8,46.8l34.4,54.2
		c6.4,9.9,14.7,14.9,28.4,14.9c8.9,0,16.3-2,19.8-3.7l-41.4-62.5l29.4-31.1l48.2,75.6L306,242 M215.1,183.5c0,11.4-4.4,18-26.7,18
		l-8-0.6V49.7c0-11.5,3.9-23.4,26.4-23.4l8.3,0.8V183.5 M169.2,160.7c0,21.3-13.9,36.8-42.1,39.8c-20.4,2.2-50-0.4-64.1-2l-0.9-7.4
		c0-18.6,10.1-22.8,19.5-22.8c9.8,0,25.2,1.7,36.6,1.7c12.6,0,16.4-4.3,16.4-8.3c0-5.3-5.1-7.6-14.9-9.4L93,147.1
		c-22.3-4.3-34.2-19.7-34.2-36c0-19.9,14-36.5,41.7-39.6c20.9-2.3,46.4,0.3,60.3,2l0.8,7.2c0,18.5-9.8,22.5-19.2,22.5
		c-7.2,0-18.5-1.4-31.3-1.4c-13.1,0-18.5,3.6-18.5,8c0,4.6,5.2,6.6,13.3,8l25.6,4.7C157.9,127.4,169.2,142.3,169.2,160.7"/>
	<g>
		<path fill="#FFFFFF" d="M508.3,193.4c-1.3-10.6,2.1-16.4,7.7-16.4c6.1,0,20.9,6.9,41.8,6.9c22.2,0,30.7-8.2,30.7-18.5
			c0-7.1-3.2-13.2-23.5-18.8l-22.7-6.3c-24.3-6.6-34.1-18.8-34.1-34.1c0-18.5,14.8-35.7,48.9-35.7c15.3,0,34.4,3.7,45.8,8.2
			c1.3,10.3-2.1,15.9-7.1,15.9c-5.5,0-19.6-6.4-38.6-6.4c-20.4,0-28.1,7.4-28.1,17.2c0,6.3,2.9,12.2,21.5,17.5l23,6.3
			c25.6,7.1,36,19.3,36,35.5c0,19.8-15.6,37.6-52.1,37.6C540.6,202.1,520.5,198.2,508.3,193.4"/>
		<path fill="#FFFFFF" d="M759.1,136c0,41-28.8,65.9-61.1,65.9c-19.6,0-35.2-9-44.4-22.2v55.6c0,4.7-2.7,7.9-10.9,7.9
			c-3.7,0-7.7-0.5-9.5-1.1V73.3c1.9-0.5,5.8-1.3,9.5-1.3c8.2,0,10.9,3.2,10.9,7.9v12.7c9.2-13.2,24.9-22.2,44.4-22.2
			C730.2,70.4,759.1,95.3,759.1,136 M738.2,136c0-28-18.8-47.4-43.9-47.4c-17.4,0-33.6,10.1-40.7,24.6v46
			c7.1,14.5,23.3,24.6,40.7,24.6C719.4,183.9,738.2,164.6,738.2,136"/>
		<path fill="#FFFFFF" d="M779.4,136c0-37.6,27.8-65.6,65.1-65.6c37.3,0,65.1,28.1,65.1,65.6c0,37.8-27.8,65.9-65.1,65.9
			C807.2,201.9,779.4,173.8,779.4,136 M888.7,136c0-29.1-19.9-47.4-44.2-47.4s-44.2,18.3-44.2,47.4c0,29.4,19.8,47.9,44.2,47.9
			S888.7,165.4,888.7,136"/>
		<path fill="#FFFFFF" d="M1011.4,81.8c0,7.7-3.5,9.5-10.9,9.5c-14.5,0-35.2,4.7-45.5,28v73c0,5-2.7,7.9-10.8,7.9
			c-3.7,0-7.7-0.5-9.5-1.1V73.3c1.8-0.5,5.8-1.3,9.5-1.3c8.2,0,10.8,3.2,10.8,7.9v15.3c11.7-16.7,31.7-25.9,55.6-21.9
			C1010.8,74.9,1011.4,78.6,1011.4,81.8"/>
		<path fill="#FFFFFF" d="M1108.5,193.4c-10.9,5.3-23.5,8.5-36.5,8.5c-24.8,0-39.9-14.3-39.9-38.9V49.7c0-4.7,2.6-7.9,10.8-7.9
			c3.7,0,7.7,0.8,9.5,1.6v29.9h50.5c0.2,1.6,0.8,5,0.8,8.2c0,7.4-3.2,9.8-7.7,9.8h-43.6v70.1c0,15.3,7.4,22,21.7,22
			c13,0,20.7-5,26.7-5C1106.6,178.3,1109.5,183.6,1108.5,193.4"/>
	</g>
	<path opacity="0.15" fill="#FFFFFF" d="M18.1,0C8.1,0,0,8.1,0,18.1v164.2c0-14.6,11.5-26.6,26.1-27.2l1136.7-45.3V0H18.1z"/>
	<path fill="#131780" d="M1299.8,190.9c0.2,2.9-0.7,6.1-2.9,8.2c-1.8,1.6-4.1,2.3-6.6,2.3h-94.7l-0.5-2.5c-0.2-0.7-0.2-1.8-0.5-2.9
		c-0.2-1.4-0.2-2.7-0.2-4.1c0-2.3,0.5-4.5,1.1-6.6c0.9-2.7,2.3-5,4.3-6.8l49.6-45.3c3.6-3.4,7.3-6.8,10.4-10
		c2.9-2.9,5.7-6.1,8.2-9.5c2-2.9,3.9-6.1,5.2-9.5c1.1-3.2,1.8-6.6,1.8-10c0-8.6-2.7-15-7.9-19.9S1254,67,1244.3,67
		c-4.5,0-8.8,0.5-13.1,1.8c-3.4,1.1-6.8,2.5-10.2,4.1c-2.9,1.6-5.4,2.9-7.7,4.1c-6.8,4.1-11.8,2.7-14.7-1.8
		c-1.8-2.7-2.7-5.9-2.9-9.1l-0.2-1.8l1.4-1.1c2.7-2,5.4-4.1,8.4-5.7c7.5-4.3,15.6-7.5,24-9.3c4.8-1.1,9.7-1.6,14.7-1.6
		c7.5,0,14.7,0.9,22,3.4c6.1,2,11.8,5.2,16.8,9.7c4.5,4.1,8.2,9.3,10.7,15c2.5,6.1,3.9,12.5,3.9,19c0,5.2-0.9,10.7-2.7,15.6
		c-1.8,4.8-4.3,9.3-7.3,13.6c-3.2,4.3-6.6,8.6-10.4,12.2c-3.9,3.9-7.9,7.7-12,11.3l-38.5,34.7h72.5l0.5,2.5c0.2,0.9,0.2,1.8,0.5,3.2
		C1299.8,188.2,1299.8,189.6,1299.8,190.9z M1426.3,152.4c0-1.1-0.2-2.3-0.5-3.4l-0.5-2.5h-23.6V49.1h-20.4l-71.2,96.5
		c-1.4,1.8-2.3,3.6-2.9,5.9c-0.5,1.8-0.9,3.9-0.7,5.7c0,1.4,0.2,2.7,0.2,3.9c0.2,1.1,0.2,2.3,0.5,2.9l0.5,2.5h72.8v34.2l2,0.7
		c1.4,0.5,2.7,0.7,4.3,0.7c1.6,0,2.7,0.2,4.1,0.2c10,0,11.1-6.1,11.1-8.8v-27.2h15.4c2.3,0,4.5-0.9,6.3-2.5c2-2,2.9-5,2.7-7.7
		C1426.3,154.9,1426.3,153.8,1426.3,152.4L1426.3,152.4z M1380.5,84v62.8h-46.7L1380.5,84z"/>
</g>
</svg>
