<?xml version="1.0" encoding="utf-8"?>
<!-- Generator: Adobe Illustrator 23.0.1, SVG Export Plug-In . SVG Version: 6.00 Build 0)  -->
<!DOCTYPE svg PUBLIC "-//W3C//DTD SVG 1.1//EN" "http://www.w3.org/Graphics/SVG/1.1/DTD/svg11.dtd" [
	<!ENTITY ns_extend "http://ns.adobe.com/Extensibility/1.0/">
	<!ENTITY ns_ai "http://ns.adobe.com/AdobeIllustrator/10.0/">
	<!ENTITY ns_graphs "http://ns.adobe.com/Graphs/1.0/">
	<!ENTITY ns_vars "http://ns.adobe.com/Variables/1.0/">
	<!ENTITY ns_imrep "http://ns.adobe.com/ImageReplacement/1.0/">
	<!ENTITY ns_sfw "http://ns.adobe.com/SaveForWeb/1.0/">
	<!ENTITY ns_custom "http://ns.adobe.com/GenericCustomNamespace/1.0/">
	<!ENTITY ns_adobe_xpath "http://ns.adobe.com/XPath/1.0/">
]>
<svg version="1.1" id="Livello_1" xmlns:x="&ns_extend;" xmlns:i="&ns_ai;" xmlns:graph="&ns_graphs;"
	 xmlns="http://www.w3.org/2000/svg" xmlns:xlink="http://www.w3.org/1999/xlink" x="0px" y="0px" viewBox="0 0 1625.6 272"
	 enable-background="new 0 0 1625.6 272" xml:space="preserve">
<metadata>
	<sfw  xmlns="&ns_sfw;">
		<slices></slices>
		<sliceSourceBounds  bottomLeftOrigin="true" height="272" width="1625.6" x="0" y="0"></sliceSourceBounds>
	</sfw>
</metadata>
<g>
	<g>
		<path fill="#FFFFFF" d="M1607.5,266.3c6.9,0,12.5-5.6,12.5-12.5V18.1c0-6.9-5.6-12.5-12.5-12.5h-444.7v260.7H1607.5"/>
		<path fill="#999999" d="M1607.5,0h-444.7v5.7h444.7c6.9,0,12.5,5.6,12.5,12.5v235.7c0,6.9-5.6,12.5-12.5,12.5h-444.7v5.6h444.7
			c10,0,18.1-8.1,18.1-18.1V18.1C1625.6,8.1,1617.5,0,1607.5,0"/>
	</g>
	
		<linearGradient id="SVGID_1_" gradientUnits="userSpaceOnUse" x1="485.2428" y1="563.097" x2="519.6755" y2="563.097" gradientTransform="matrix(0 -11.3128 -11.3128 0 7177.9624 5832.4912)">
		<stop  offset="0" style="stop-color:#A80002"/>
		<stop  offset="1" style="stop-color:#EA021A"/>
	</linearGradient>
	<rect x="452.7" fill="url(#SVGID_1_)" width="710.1" height="272"/>
	
		<linearGradient id="SVGID_2_" gradientUnits="userSpaceOnUse" x1="487.7788" y1="612.9427" x2="520.9924" y2="612.9427" gradientTransform="matrix(0 -11.3128 -11.3128 0 7160.458 5832.4912)">
		<stop  offset="0" style="stop-color:#00043B"/>
		<stop  offset="1" style="stop-color:#002672"/>
	</linearGradient>
	<path fill="url(#SVGID_2_)" d="M0,253.9V18.1C0,8.1,8.1,0,18.1,0h434.5v272H18.1C8.1,272,0,263.9,0,253.9z"/>
	<g>
		<path fill="#FFFFFF" d="M306,242c2.9,1.5,8.9,3.3,16.4,3.5c12.9,0.3,20-4.7,25.2-16.2l69.3-154.6c-2.9-1.6-9.2-3.3-14.3-3.4
			c-8.9-0.1-20.9,1.7-28.5,19.9l-22.4,53l-44-71.7c-2.8-0.9-9.8-2.1-14.8-2.1c-15.5,0-24.2,5.7-33.2,15.5l-42.8,46.8l34.4,54.2
			c6.3,9.9,14.7,14.9,28.4,14.9c8.9,0,16.3-2,19.7-3.7l-41.4-62.5l29.4-31.1l48.2,75.6L306,242 M215.1,183.5c0,11.4-4.5,18-26.7,18
			l-8-0.6V49.7c0-11.5,3.9-23.4,26.4-23.4l8.3,0.9V183.5 M169.2,160.7c0,21.3-13.9,36.8-42.1,39.8c-20.5,2.2-50.1-0.4-64.1-2
			l-0.9-7.4c0-18.6,10-22.8,19.5-22.8c9.8,0,25.1,1.7,36.6,1.7c12.6,0,16.4-4.3,16.4-8.3c0-5.3-5.1-7.6-14.8-9.4L93,147.1
			c-22.3-4.3-34.1-19.7-34.1-36c0-19.9,14-36.5,41.7-39.6c20.9-2.3,46.4,0.3,60.3,2l0.8,7.1c0,18.5-9.8,22.6-19.2,22.6
			c-7.3,0-18.5-1.4-31.3-1.4c-13.1,0-18.5,3.6-18.5,8c0,4.6,5.1,6.5,13.3,8l25.6,4.7C157.9,127.4,169.2,142.3,169.2,160.7"/>
		<path fill="#FFFFFF" d="M508.3,193.4c-1.3-10.6,2.1-16.4,7.7-16.4c6.1,0,20.9,6.9,41.8,6.9c22.2,0,30.7-8.2,30.7-18.5
			c0-7.1-3.2-13.2-23.5-18.8l-22.8-6.3c-24.3-6.6-34.1-18.8-34.1-34.1c0-18.5,14.8-35.7,48.9-35.7c15.3,0,34.4,3.7,45.8,8.2
			c1.3,10.3-2.1,15.9-7.1,15.9c-5.5,0-19.6-6.3-38.6-6.3c-20.4,0-28,7.4-28,17.2c0,6.3,2.9,12.2,21.4,17.4l23,6.4
			c25.7,7.1,36,19.3,36,35.4c0,19.8-15.6,37.6-52.1,37.6C540.6,202.1,520.5,198.2,508.3,193.4"/>
		<path fill="#FFFFFF" d="M759.1,136c0,41-28.8,65.9-61.1,65.9c-19.6,0-35.2-9-44.4-22.2v55.6c0,4.8-2.6,7.9-10.8,7.9
			c-3.7,0-7.7-0.5-9.5-1.1V73.3c1.9-0.5,5.8-1.3,9.5-1.3c8.2,0,10.8,3.2,10.8,7.9v12.7c9.3-13.3,24.9-22.2,44.4-22.2
			C730.2,70.4,759.1,95.3,759.1,136 M738.2,136c0-28-18.8-47.4-43.9-47.4c-17.5,0-33.6,10.1-40.8,24.6v46
			c7.1,14.5,23.3,24.6,40.8,24.6C719.4,183.9,738.2,164.6,738.2,136"/>
		<path fill="#FFFFFF" d="M779.4,136c0-37.6,27.8-65.6,65.1-65.6c37.3,0,65.1,28,65.1,65.6c0,37.8-27.8,65.9-65.1,65.9
			C807.2,201.9,779.4,173.8,779.4,136 M888.6,136c0-29.1-19.8-47.4-44.2-47.4c-24.3,0-44.2,18.3-44.2,47.4
			c0,29.4,19.8,47.9,44.2,47.9C868.8,183.9,888.6,165.4,888.6,136"/>
		<path fill="#FFFFFF" d="M1011.3,81.8c0,7.7-3.5,9.5-10.9,9.5c-14.5,0-35.2,4.7-45.5,28v73c0,5-2.6,7.9-10.8,7.9
			c-3.7,0-7.7-0.5-9.5-1.1V73.3c1.9-0.5,5.8-1.3,9.5-1.3c8.2,0,10.8,3.2,10.8,7.9v15.3c11.7-16.6,31.8-25.9,55.6-22
			C1010.8,74.9,1011.3,78.6,1011.3,81.8"/>
		<path fill="#FFFFFF" d="M1108.4,193.4c-10.8,5.3-23.5,8.5-36.5,8.5c-24.9,0-40-14.3-40-38.9V49.7c0-4.7,2.7-7.9,10.9-7.9
			c3.7,0,7.7,0.8,9.5,1.6v29.9h50.6c0.3,1.6,0.8,5,0.8,8.2c0,7.4-3.2,9.8-7.7,9.8h-43.7v70.1c0,15.3,7.4,22,21.7,22
			c13,0,20.6-5,26.7-5C1106.6,178.3,1109.5,183.6,1108.4,193.4"/>
	</g>
	<path opacity="0.15" fill="#FFFFFF" d="M18.1,0C8.1,0,0,8.1,0,18.1v164.2c0-14.6,11.6-26.6,26.1-27.2l1136.7-45.3V0H18.1z"/>
	<g>
		<path fill="#1E428A" d="M1354.6,236.8h-23.7V35.2h36.7l24.6,166.4c-3.7-39.6-8.5-103.4-8.5-137V35.2h23.7v201.7h-33.6l-22.6-161.5
			c2,36.1,3.4,79.3,3.4,103.7V236.8z"/>
		<path fill="#1E428A" d="M1448.1,149.3v62.1h4.5c8.5,0,11-4.8,11-14.4v-34.2c0-9.9-3.1-13.6-12.2-13.6H1448.1z M1448.1,60.6v66.7
			h3.4c9.6,0,12.2-3.7,12.2-14.7V74.2c0-9.3-2.8-13.6-11-13.6H1448.1z M1421,236.8V35.2h33.6c22.3,0,36.1,12.2,36.1,40.4v29.7
			c0,18.4-5.6,27.7-13.6,32.5c7.9,5.1,13.6,14.1,13.6,29.7v29.4c0,27.7-14.7,40.1-36.1,40.1H1421z"/>
		<path fill="#1E428A" d="M1525.7,176.1h14.4l-2.3-37c-0.8-14.7-3.1-61.3-4.8-86.4h-1.1l-4,86.4L1525.7,176.1z M1541.5,199h-16.9
			l-2.3,37.9h-27.4l19.8-201.7h38.4l19.2,201.7h-28.5L1541.5,199z"/>
		<path fill="#FFFFFF" d="M1283.9,30h-49.7c-12.1,0-22,9.9-22,22V220c0,12.1,9.9,22,22,22h49.6c12.1,0,22-9.9,22-22V51.9
			C1305.8,39.9,1295.9,30,1283.9,30"/>
		<path fill="#C8102E" d="M1271.5,68.9l0.1,0.7l3.8,2.6c4.1,2.6,9,7.1,8.4,22.7c1.1,3.4,1.7,10.1,2.7,12.3c2.1,4.2,3.5,6.9,4.2,10.9
			l1.4,6.6c4.2,0.9,3,1.4,3.6,2.1l3.1,3.1l1.9,3.5V51.9c0-9.2-7.5-16.7-16.7-16.7h-16l4.9,3.7c2.1,0.2,4.5,4.8,0.7,11.7l-0.9,4.8
			l-1.9,1.7c-1.5,3.1-3.2,6-4.6,6.2l-0.1,2.4L1271.5,68.9"/>
		<path fill="#C8102E" d="M1300.6,144.2c-2.2,5.5-7.6,9.4-13.9,9.4c-8.3,0-15-6.7-15-14.9c0-7.1,4.8-13,11.5-14.6
			c-1.7-4.3-5.4-11.3-6.4-13.6l-4-19.3l-6.5,4l-4.9,12.4l-0.1,1.9c0,0,2.2,0.3,3.4,4c1.2,3.8,5,17.4,5,17.4l-1.1,1
			c4.7,15.8,3.1,22.6,5.2,27.3c2.7,6.5,3.4,5.7,5.6,11.2c1.7,4,3.5,19.8,4.1,20.5c2.6,3.2,3.9,5.7,3.9,7.6c0,1.9-2.2,7.3-1.4,10.4
			l1.6,6.8l0.4,2.3l-0.2,0.9c1.4,5,5.9,13.5-1.4,17.9h0.1c8-1.2,14.1-8.1,14.1-16.6V144.2z"/>
		<path fill="#1E428A" d="M1281.7,216.8l-1-4.4c-1.8-7.3-7.6-11.8-4.6-14.2l-2.2-5.5c-9.1-5.2-16.8-13.7-18.1-14.9l-4.8-4.9
			c-2.2-2-12.9-17.2-15.4-22.8l-4.4-0.6c-2-8.1-8.6-14.8-8.7-23c-0.1-3.1,1.4-9.6,1.9-10.9l3.1-3.5V110c-9.5,0.3-6.7-0.7-8.4-4.4
			l0.1-4.9c1.3-5.2,5.5-13.3,7.2-17l2.4-6.3c7-14.4,9.7-13.4,18.1-14.1l0.4-0.6c8.4-0.4,7-1,8.2-9.1l-1.6-2.5
			c-0.7-4.6,1.3-3.8,2.2-3.8c0.2-7.6,1-10,6.4-12.1h-28.3c-9.3,0-16.8,7.5-16.8,16.8V220c0,9.3,7.5,16.8,16.8,16.8h49.6
			C1278.2,233.8,1281.5,227.9,1281.7,216.8"/>
	</g>
</g>
</svg>
