<?xml version="1.0" encoding="utf-8"?>
<!-- Generator: Adobe Illustrator 23.0.1, SVG Export Plug-In . SVG Version: 6.00 Build 0)  -->
<!DOCTYPE svg PUBLIC "-//W3C//DTD SVG 1.1//EN" "http://www.w3.org/Graphics/SVG/1.1/DTD/svg11.dtd" [
	<!ENTITY ns_extend "http://ns.adobe.com/Extensibility/1.0/">
	<!ENTITY ns_ai "http://ns.adobe.com/AdobeIllustrator/10.0/">
	<!ENTITY ns_graphs "http://ns.adobe.com/Graphs/1.0/">
	<!ENTITY ns_vars "http://ns.adobe.com/Variables/1.0/">
	<!ENTITY ns_imrep "http://ns.adobe.com/ImageReplacement/1.0/">
	<!ENTITY ns_sfw "http://ns.adobe.com/SaveForWeb/1.0/">
	<!ENTITY ns_custom "http://ns.adobe.com/GenericCustomNamespace/1.0/">
	<!ENTITY ns_adobe_xpath "http://ns.adobe.com/XPath/1.0/">
]>
<svg version="1.1" id="Livello_1" xmlns:x="&ns_extend;" xmlns:i="&ns_ai;" xmlns:graph="&ns_graphs;"
	 xmlns="http://www.w3.org/2000/svg" xmlns:xlink="http://www.w3.org/1999/xlink" x="0px" y="0px" viewBox="0 0 2076.3 272"
	 enable-background="new 0 0 2076.3 272" xml:space="preserve">
<metadata>
	<sfw  xmlns="&ns_sfw;">
		<slices></slices>
		<sliceSourceBounds  bottomLeftOrigin="true" height="272" width="2076.3" x="0" y="0"></sliceSourceBounds>
	</sfw>
</metadata>
<g>
	<g>
		<path fill="#FFFFFF" d="M18.1,272h2040.1c10,0,18.1-8.1,18.1-18.1V18.1c0-10-8.1-18.1-18.1-18.1H18.1C8.1,0,0,8.1,0,18.1v235.7
			C0,263.9,8.1,272,18.1,272"/>
		<path fill="#FFFFFF" d="M2058.2,266.3c6.9,0,12.5-5.6,12.5-12.5V18.1c0-6.9-5.6-12.5-12.5-12.5h-895.4v260.7H2058.2"/>
		<path fill="#999999" d="M2058.2,0h-895.4v5.7h895.4c6.9,0,12.5,5.6,12.5,12.5v235.7c0,6.9-5.6,12.5-12.5,12.5h-895.4v5.6h895.4
			c10,0,18.1-8.1,18.1-18.1V18.1C2076.3,8.1,2068.2,0,2058.2,0"/>
		<path fill="#131780" d="M1919.7,123.9v74.5c-2,0.5-5.4,1-8.6,1c-6.9,0-9.8-2.4-9.8-7.1v-8.8h-0.2c-8.8,9.1-22.6,17.4-40.9,17.4
			c-26,0-40.2-17.2-40.2-36c0-27.7,29.9-40.7,81.1-37.3v-3c0-18.4-5.9-28.4-28.4-28.4c-12,0-22.1,2.5-28.9,4.4
			c-3.4,1-6.1,1.7-8.1,1.7c-5.1,0-8.3-5.1-7.1-15c11.1-4.4,28.2-8.3,44.6-8.3C1907.2,79.1,1919.7,96.2,1919.7,123.9 M1901.1,164.4
			v-22c-33.3-1.5-62.3,2.2-62.3,23c0,10.3,8.8,19.4,23.8,19.4C1877.8,184.7,1892,176.4,1901.1,164.4"/>
		<path fill="#131780" d="M1305.7,44.5c0,7.8-3.2,11-7.1,11c-3.7,0-12-3.7-23-3.7c-12.3,0-19.6,5.9-19.6,20.8v10.8h39.9
			c0.2,1.7,0.7,5.1,0.7,8.3c0,7.1-2.9,9.6-7.3,9.6H1256v90.3c0,4.9-2.4,7.6-10.8,7.6c-3.4,0-7.3-0.5-9.3-1v-96.9h-17.6
			c-0.5-1.7-0.7-5.1-0.7-8.3c0-7.1,2.9-9.5,7.3-9.5h11v-9.6c0-27.4,16.4-40.2,38.7-40.2c10.3,0,24,2.7,30.6,5.6L1305.7,44.5"/>
		<path fill="#131780" d="M1444.4,139.5c0-34.8,25.7-60.8,60.3-60.8c34.8,0,60.6,26,60.6,60.8c0,34.8-25.8,61.3-60.6,61.3
			C1470.1,200.8,1444.4,174.3,1444.4,139.5 M1544.9,139.5c0-26.7-18.1-43.2-40.2-43.2c-21.8,0-40,16.4-40,43.2
			c0,26.7,18.1,43.4,40,43.4C1526.8,182.9,1544.9,166.2,1544.9,139.5"/>
		<path fill="#131780" d="M1800.9,139.6c0,38.3-27,61.1-56.7,61.1c-17.9,0-32.4-8.3-41-20.4v9.6c0,6.1-2.7,9.3-10.6,9.3
			c-3.5,0-7.4-0.7-9.3-1.5V46.3c0-4.6,2.7-7.6,11.1-7.6c3.4,0,6.9,0.5,8.8,1v59.4c8.6-12.1,23.1-20.4,41-20.4
			C1773.9,78.7,1800.9,101.5,1800.9,139.6 M1780.3,139.6c0-25.5-16.9-43.2-40-43.2c-16,0-30.7,9.3-37.1,22.8v41
			c6.4,13.5,21.1,22.8,37.1,22.8C1763.3,183.1,1780.3,165.4,1780.3,139.6"/>
		<path fill="#131780" d="M1950.7,198.1V46.5c0-4.6,2.7-7.6,10.8-7.6c3.5,0,7.1,0.7,9.1,1.2v151.3c0,4.9-2.5,7.6-10.5,7.6
			C1956.6,199,1952.7,198.6,1950.7,198.1"/>
		<path fill="#131780" d="M2001.7,198.1V46.5c0-4.6,2.7-7.6,10.8-7.6c3.5,0,7.1,0.7,9.1,1.2v151.3c0,4.9-2.5,7.6-10.5,7.6
			C2007.5,199,2003.6,198.6,2001.7,198.1"/>
		<path fill="#131780" d="M1662.1,192.8c-10.3,4.9-22.1,8.1-34.1,8.1c-23.3,0-37.6-13.7-37.6-36.6V59.7c0-4.7,2.7-7.6,10.8-7.6
			c3.4,0,7.3,0.7,9.1,1.5v27.6h46.6l0.7,8.1c0,7.1-2.7,9.6-7.4,9.6h-40v63.8c0,13.7,6.6,20.1,19.9,20.1c11.8,0,18.9-4.9,24.5-4.9
			S1663.3,183,1662.1,192.8"/>
		<path fill="#131780" d="M1303.2,139.5c0-34.8,25.7-60.8,60.3-60.8c34.8,0,60.6,26,60.6,60.8c0,34.8-25.8,61.3-60.6,61.3
			C1328.9,200.8,1303.2,174.3,1303.2,139.5 M1403.7,139.5c0-26.7-18.1-43.2-40.2-43.2c-21.8,0-40,16.4-40,43.2
			c0,26.7,18.1,43.4,40,43.4C1385.6,182.9,1403.7,166.2,1403.7,139.5"/>
	</g>
	
		<linearGradient id="SVGID_1_" gradientUnits="userSpaceOnUse" x1="715.8425" y1="583.0022" x2="751.453" y2="583.0022" gradientTransform="matrix(0 -11.3141 -11.3141 0 7403.8926 8442.1523)">
		<stop  offset="0" style="stop-color:#A80002"/>
		<stop  offset="1" style="stop-color:#EA021A"/>
	</linearGradient>
	<rect x="452.7" y="0" fill="url(#SVGID_1_)" width="710.2" height="272"/>
	
		<linearGradient id="SVGID_2_" gradientUnits="userSpaceOnUse" x1="718.3788" y1="632.8422" x2="751.5885" y2="632.8422" gradientTransform="matrix(0 -11.3141 -11.3141 0 7386.3862 8442.1523)">
		<stop  offset="0" style="stop-color:#00043B"/>
		<stop  offset="1" style="stop-color:#002672"/>
	</linearGradient>
	<path fill="url(#SVGID_2_)" d="M0,253.9V18.1C0,8.1,8.1,0,18.1,0h434.5v272H18.1C8.1,272,0,263.9,0,253.9z"/>
	<g>
		<path fill="#FFFFFF" d="M306,242c2.9,1.5,8.9,3.3,16.4,3.5c12.9,0.3,20-4.6,25.2-16.2l69.3-154.6c-2.9-1.5-9.2-3.2-14.4-3.4
			c-8.9-0.2-20.9,1.7-28.5,19.9l-22.4,53l-44-71.7c-2.9-0.9-9.8-2.1-14.9-2.1c-15.5,0-24.2,5.7-33.2,15.5l-42.8,46.8l34.4,54.2
			c6.3,9.9,14.7,14.9,28.4,14.9c8.9,0,16.3-2.1,19.8-3.7l-41.4-62.5l29.4-31.1l48.2,75.6L306,242 M215.1,183.5
			c0,11.4-4.5,18-26.7,18l-8-0.6V49.7c0-11.5,3.9-23.4,26.4-23.4l8.3,0.8V183.5 M169.2,160.7c0,21.3-13.9,36.8-42.1,39.9
			c-20.4,2.2-50-0.4-64.1-2l-0.9-7.4c0-18.6,10.1-22.8,19.5-22.8c9.8,0,25.2,1.7,36.6,1.7c12.6,0,16.4-4.3,16.4-8.3
			c0-5.3-5.1-7.6-14.9-9.4L93,147.1c-22.3-4.3-34.2-19.7-34.2-36c0-19.9,14.1-36.5,41.7-39.6c20.9-2.3,46.4,0.3,60.3,2l0.8,7.2
			c0,18.5-9.8,22.5-19.2,22.5c-7.2,0-18.5-1.3-31.3-1.3c-13.1,0-18.4,3.6-18.4,8c0,4.6,5.1,6.5,13.3,8l25.6,4.7
			C157.9,127.4,169.2,142.3,169.2,160.7"/>
		<path fill="#FFFFFF" d="M508.3,193.4c-1.3-10.6,2.1-16.4,7.7-16.4c6.1,0,20.9,6.9,41.8,6.9c22.2,0,30.7-8.2,30.7-18.5
			c0-7.1-3.2-13.2-23.5-18.8l-22.7-6.3c-24.3-6.6-34.1-18.8-34.1-34.1c0-18.5,14.8-35.7,49-35.7c15.3,0,34.4,3.7,45.8,8.2
			c1.3,10.3-2.1,15.9-7.1,15.9c-5.6,0-19.6-6.3-38.6-6.3c-20.4,0-28.1,7.4-28.1,17.2c0,6.4,2.9,12.2,21.5,17.5l23,6.3
			c25.6,7.1,36,19.3,36,35.5c0,19.8-15.6,37.6-52.1,37.6C540.6,202.1,520.5,198.2,508.3,193.4"/>
		<path fill="#FFFFFF" d="M759,136c0,41-28.8,65.9-61.1,65.9c-19.6,0-35.2-9-44.4-22.2v55.7c0,4.7-2.7,7.9-10.9,7.9
			c-3.7,0-7.7-0.5-9.5-1V73.3c1.8-0.5,5.8-1.3,9.5-1.3c8.2,0,10.9,3.2,10.9,7.9v12.7c9.3-13.3,24.9-22.2,44.4-22.2
			C730.2,70.4,759,95.2,759,136 M738.1,136c0-28-18.8-47.4-43.9-47.4c-17.5,0-33.6,10.1-40.7,24.6v46c7.1,14.5,23.3,24.6,40.7,24.6
			C719.4,183.9,738.1,164.6,738.1,136"/>
		<path fill="#FFFFFF" d="M779.4,136c0-37.6,27.8-65.6,65.1-65.6c37.3,0,65.1,28,65.1,65.6c0,37.8-27.8,65.9-65.1,65.9
			C807.2,201.9,779.4,173.8,779.4,136 M888.6,136c0-29.1-19.8-47.4-44.2-47.4c-24.3,0-44.2,18.3-44.2,47.4
			c0,29.4,19.8,47.9,44.2,47.9C868.8,183.9,888.6,165.4,888.6,136"/>
		<path fill="#FFFFFF" d="M1011.3,81.8c0,7.7-3.5,9.5-10.9,9.5c-14.5,0-35.2,4.7-45.5,28v73c0,5-2.6,7.9-10.8,7.9
			c-3.7,0-7.7-0.5-9.5-1.1V73.3c1.9-0.5,5.8-1.3,9.5-1.3c8.2,0,10.8,3.2,10.8,7.9v15.3c11.7-16.7,31.7-25.9,55.6-21.9
			C1010.8,74.9,1011.3,78.6,1011.3,81.8"/>
		<path fill="#FFFFFF" d="M1108.4,193.4c-10.9,5.3-23.5,8.5-36.5,8.5c-24.9,0-40-14.3-40-38.9V49.7c0-4.8,2.7-7.9,10.9-7.9
			c3.7,0,7.7,0.8,9.5,1.6v29.9h50.5c0.3,1.6,0.8,5,0.8,8.2c0,7.4-3.2,9.8-7.7,9.8h-43.6v70.1c0,15.3,7.4,22,21.7,22
			c13,0,20.7-5,26.7-5C1106.6,178.3,1109.5,183.6,1108.4,193.4"/>
	</g>
	<path opacity="0.15" fill="#FFFFFF" d="M18.1,0C8.1,0,0,8.1,0,18.1v164.2c0-14.6,11.5-26.6,26.1-27.2l1136.7-45.2V0H18.1z"/>
</g>
</svg>
