<?xml version="1.0" encoding="utf-8"?>
<!-- Generator: Adobe Illustrator 23.0.1, SVG Export Plug-In . SVG Version: 6.00 Build 0)  -->
<!DOCTYPE svg PUBLIC "-//W3C//DTD SVG 1.1//EN" "http://www.w3.org/Graphics/SVG/1.1/DTD/svg11.dtd" [
	<!ENTITY ns_extend "http://ns.adobe.com/Extensibility/1.0/">
	<!ENTITY ns_ai "http://ns.adobe.com/AdobeIllustrator/10.0/">
	<!ENTITY ns_graphs "http://ns.adobe.com/Graphs/1.0/">
	<!ENTITY ns_vars "http://ns.adobe.com/Variables/1.0/">
	<!ENTITY ns_imrep "http://ns.adobe.com/ImageReplacement/1.0/">
	<!ENTITY ns_sfw "http://ns.adobe.com/SaveForWeb/1.0/">
	<!ENTITY ns_custom "http://ns.adobe.com/GenericCustomNamespace/1.0/">
	<!ENTITY ns_adobe_xpath "http://ns.adobe.com/XPath/1.0/">
]>
<svg version="1.1" id="Livello_1" xmlns:x="&ns_extend;" xmlns:i="&ns_ai;" xmlns:graph="&ns_graphs;"
	 xmlns="http://www.w3.org/2000/svg" xmlns:xlink="http://www.w3.org/1999/xlink" x="0px" y="0px" viewBox="0 0 1602.8 272"
	 enable-background="new 0 0 1602.8 272" xml:space="preserve">
<metadata>
	<sfw  xmlns="&ns_sfw;">
		<slices></slices>
		<sliceSourceBounds  bottomLeftOrigin="true" height="272" width="1602.8" x="0" y="0"></sliceSourceBounds>
	</sfw>
</metadata>
<g>
	<g>
		<path fill="#FFFFFF" d="M18.1,272h1566.6c10,0,18.1-8.1,18.1-18.1V18.2c0-10-8.1-18.1-18.1-18.1H18.1C8.1,0,0,8.1,0,18.2v235.7
			C0,263.9,8.1,272,18.1,272"/>
	</g>
	<g>
		<path fill="#FFFFFF" d="M1584.7,266.3c6.9,0,12.5-5.6,12.5-12.5V18.1c0-6.9-5.6-12.5-12.5-12.5h-422v260.7H1584.7"/>
		<path fill="#999999" d="M1584.7,0h-422v5.7h422c6.9,0,12.5,5.6,12.5,12.5v235.7c0,6.9-5.6,12.5-12.5,12.5h-422v5.6h422
			c10,0,18.1-8.1,18.1-18.1V18.1C1602.8,8.2,1594.7,0,1584.7,0"/>
	</g>
	
		<linearGradient id="SVGID_1_" gradientUnits="userSpaceOnUse" x1="466.7678" y1="538.3077" x2="501.4036" y2="538.3077" gradientTransform="matrix(0 -11.3158 -11.3158 0 6899.0454 5624.9126)">
		<stop  offset="0" style="stop-color:#A80002"/>
		<stop  offset="1" style="stop-color:#EA021A"/>
	</linearGradient>
	<rect x="452.6" fill="url(#SVGID_1_)" width="710.1" height="271.9"/>
	
		<linearGradient id="SVGID_2_" gradientUnits="userSpaceOnUse" x1="469.3086" y1="588.1373" x2="502.5125" y2="588.1373" gradientTransform="matrix(0 -11.3158 -11.3158 0 6881.5366 5624.9126)">
		<stop  offset="0" style="stop-color:#00043B"/>
		<stop  offset="1" style="stop-color:#002672"/>
	</linearGradient>
	<path fill="url(#SVGID_2_)" d="M0,253.8V18.1C0,8.1,8.1,0,18.1,0h434.5v271.9H18.1C8.1,271.9,0,263.8,0,253.8z"/>
	<g>
		<path fill="#FFFFFF" d="M306,242c2.9,1.5,8.9,3.3,16.4,3.5c12.9,0.3,20-4.7,25.2-16.3l69.3-154.6c-2.9-1.5-9.2-3.3-14.4-3.4
			c-8.9-0.2-20.9,1.6-28.5,19.9l-22.4,53l-44-71.7c-2.8-0.9-9.8-2.1-14.8-2.1c-15.5,0-24.2,5.7-33.2,15.5l-42.8,46.8l34.4,54.2
			c6.4,9.9,14.7,14.9,28.4,14.9c8.9,0,16.3-2,19.8-3.7l-41.4-62.5l29.4-31.1l48.2,75.6L306,242 M215.1,183.5c0,11.4-4.4,18-26.7,18
			l-8-0.6V49.7c0-11.5,3.9-23.4,26.4-23.4l8.3,0.8V183.5 M169.2,160.7c0,21.3-13.9,36.8-42.1,39.8c-20.4,2.2-50-0.4-64.1-2l-0.9-7.4
			c0-18.6,10-22.8,19.5-22.8c9.8,0,25.2,1.7,36.6,1.7c12.6,0,16.4-4.3,16.4-8.3c0-5.3-5.1-7.6-14.9-9.4L93,147.1
			c-22.2-4.3-34.1-19.7-34.1-36c0-19.9,14-36.5,41.7-39.6c20.9-2.3,46.4,0.3,60.3,2l0.8,7.2c0,18.5-9.8,22.5-19.2,22.5
			c-7.2,0-18.5-1.4-31.3-1.4c-13,0-18.5,3.6-18.5,8c0,4.6,5.1,6.6,13.3,8l25.6,4.7C157.9,127.4,169.2,142.3,169.2,160.7"/>
		<path fill="#FFFFFF" d="M508.3,193.4c-1.3-10.6,2.1-16.4,7.7-16.4c6.1,0,20.9,6.9,41.8,6.9c22.2,0,30.7-8.2,30.7-18.5
			c0-7.1-3.2-13.2-23.5-18.8l-22.7-6.3c-24.3-6.6-34.1-18.8-34.1-34.1c0-18.5,14.8-35.7,48.9-35.7c15.3,0,34.4,3.7,45.8,8.2
			c1.3,10.3-2.1,15.9-7.1,15.9c-5.5,0-19.6-6.4-38.6-6.4c-20.4,0-28,7.4-28,17.2c0,6.3,2.9,12.2,21.4,17.5l23,6.3
			c25.7,7.1,36,19.3,36,35.5c0,19.8-15.6,37.6-52.1,37.6C540.6,202.1,520.5,198.2,508.3,193.4"/>
		<path fill="#FFFFFF" d="M759,136c0,41-28.9,65.9-61.1,65.9c-19.6,0-35.2-9-44.4-22.2v55.6c0,4.7-2.7,7.9-10.9,7.9
			c-3.7,0-7.7-0.5-9.5-1.1V73.3c1.9-0.5,5.8-1.3,9.5-1.3c8.2,0,10.9,3.2,10.9,7.9v12.7c9.2-13.2,24.9-22.2,44.4-22.2
			C730.2,70.4,759,95.3,759,136 M738.1,136c0-28-18.8-47.3-43.9-47.3c-17.4,0-33.6,10.1-40.7,24.6v46c7.1,14.5,23.3,24.6,40.7,24.6
			C719.4,183.9,738.1,164.6,738.1,136"/>
		<path fill="#FFFFFF" d="M779.4,136c0-37.6,27.8-65.6,65-65.6c37.3,0,65.1,28.1,65.1,65.6c0,37.8-27.8,65.9-65.1,65.9
			C807.1,201.9,779.4,173.8,779.4,136 M888.6,136c0-29.1-19.9-47.3-44.2-47.3c-24.3,0-44.2,18.3-44.2,47.3
			c0,29.4,19.9,47.9,44.2,47.9C868.7,183.9,888.6,165.4,888.6,136"/>
		<path fill="#FFFFFF" d="M1011.3,81.8c0,7.7-3.5,9.5-10.9,9.5c-14.5,0-35.2,4.7-45.5,28v73c0,5-2.7,7.9-10.8,7.9
			c-3.7,0-7.7-0.5-9.5-1.1V73.3c1.9-0.5,5.8-1.3,9.5-1.3c8.2,0,10.8,3.2,10.8,7.9v15.3c11.7-16.7,31.7-25.9,55.6-21.9
			C1010.8,74.9,1011.3,78.6,1011.3,81.8"/>
		<path fill="#FFFFFF" d="M1108.4,193.4c-10.9,5.3-23.5,8.5-36.5,8.5c-24.9,0-39.9-14.3-39.9-38.9V49.7c0-4.7,2.6-7.9,10.8-7.9
			c3.7,0,7.7,0.8,9.5,1.6v29.9h50.5c0.3,1.6,0.8,5,0.8,8.2c0,7.4-3.2,9.8-7.7,9.8h-43.6v70.1c0,15.3,7.4,21.9,21.7,21.9
			c13,0,20.7-5,26.7-5C1106.5,178.3,1109.5,183.6,1108.4,193.4"/>
	</g>
	<path opacity="0.15" fill="#FFFFFF" d="M18.1,0C8.1,0,0,8.1,0,18.1v164.2c0-14.6,11.5-26.6,26.1-27.2l1136.6-45.3V0H18.1z"/>
	<g>
		<g>
			<g>
				<g>
					<path fill="#D90042" d="M1565.4,131.3h-3.6l-2,9.3h-1.4l2-9.3h-3.5l0.2-1.2h8.5L1565.4,131.3z"/>
					<path fill="#D90042" d="M1566.9,130.1h1.9l1.4,9l0,0l5.2-9h1.9l-2.2,10.5h-1.3l2.1-9.2l0,0l-5.3,9.2h-1.3l-1.3-9.2l0,0
						l-1.8,9.2h-1.3L1566.9,130.1z"/>
				</g>
			</g>
			<g>
				<g>
					<path fill-rule="evenodd" clip-rule="evenodd" d="M1229.7,48.9c5.4-10.2,18-18.3,28.1-18.3h70.9l-47.5,89.8H1192L1229.7,48.9z"
						/>
					<path fill-rule="evenodd" clip-rule="evenodd" d="M1374.4,75.5c3.8-7.1,12.7-12.9,19.8-12.9h48.5l-23.4,44.8
						c-3.8,7.1-12.7,12.9-19.8,12.9H1351L1374.4,75.5z"/>
					<path fill-rule="evenodd" clip-rule="evenodd" d="M1455.7,37.6c2.1-3.8,6.7-6.8,10.6-6.8h25.4l-13.6,25.3
						c-2.1,3.8-6.7,6.8-10.6,6.8h-25.4L1455.7,37.6z"/>
					<polygon fill-rule="evenodd" clip-rule="evenodd" points="1281.1,120.3 1351.2,120.3 1313.7,190.2 1243.7,190.2 					"/>
					<path fill-rule="evenodd" clip-rule="evenodd" d="M1313.7,190.2h49.1l-22.4,41.7c-2.8,5.2-9.4,9.5-14.6,9.5h-39.6L1313.7,190.2
						z"/>
				</g>
				<path fill="#D90042" d="M1446.7,142.6l-13.4,25.3c-0.9,1.7,0.2,2.9,1.9,3c1.2,0.1,2.5,0,4.1-0.7l-5.4,10.2
					c-1.9,0.5-2.9,0.8-4.8,0.8c-7.9,0-11.7-5.4-8.2-12.1l22.6-42.5c1.5-2.8,4.9-5,7.7-5h6.6l-5.3,10h6.8l-5.8,11L1446.7,142.6z
					 M1378.7,144.5l-0.2,0.5l-5.6,10.5l-10.4,19.6c-0.9,1.7-2.5,3.1-4.2,4c-1.2,0.6-2.5,1-3.6,1h-6.7l13.1-24.7l5.8-11
					c0-0.2,0.1-0.3,0.2-0.4c0.6-1.5-0.1-2.6-1.6-2.6c-1.7,0-3.7,1.3-4.7,3l-5.8,11l-10.4,19.6c-1.5,2.8-5,5.1-7.8,5.1h-6.7l19-35.6
					c4-8.3,8.8-14,22.5-14h17.9c6.8,0,12.5,4,7.2,14l-16.3,30.6c-1.5,2.8-5,5.1-7.8,5.1h-6.7l13.1-24.7l5.8-11c0.9-1.7,0.2-3-1.4-3
					C1381.7,141.5,1379.7,142.8,1378.7,144.5z M1518.9,142.3l-4.2,7.9h-11.4l3.4-6.4c0.9-1.7,0.2-3-1.4-3c-1.7,0-3.7,1.3-4.6,3
					l-11.5,21.6l-1,1.9c-0.9,1.7-0.2,3,1.4,3c1.7,0,3.7-1.1,5.5-4.7l1.6-2.9h-2.9l4.6-8.7h14.3l-7.9,14.8l-0.1,0.2
					c-3.6,6.7-12.9,12.1-20.9,12.1c-7.9,0-11.6-5.4-8-12.1l1.9-3.7L1490,142c3.6-6.7,12.9-12.1,20.9-12.1c8,0,11.6,5.4,8,12.1
					L1518.9,142.3z M1454.7,167.4c-0.9,1.7-0.2,3,1.4,3s3.7-1.3,4.6-3l12.5-23.4c0.9-1.7,0.2-3-1.4-3s-3.7,1.3-4.6,3L1454.7,167.4z
					 M1485.4,142.5l-14.1,26.4l-0.1,0.2c-3.6,6.7-12.9,12.1-20.9,12.1c-7.9,0-11.6-5.4-8-12.1l14.3-26.9
					c3.6-6.7,12.9-12.1,20.9-12.1c8,0,11.6,5.4,8,12.1L1485.4,142.5z M1400.6,167.4c-0.9,1.7-0.2,3,1.4,3s3.7-1.3,4.6-3l12.5-23.4
					c0.9-1.7,0.2-3-1.4-3s-3.7,1.3-4.6,3L1400.6,167.4z M1430.8,142.5l-14.1,26.4l-0.1,0.2c-3.6,6.7-12.9,12.1-20.9,12.1
					c-7.9,0-11.6-5.4-8-12.1l14.4-26.9c3.6-6.7,12.9-12.1,20.9-12.1c8,0,11.6,5.4,8,12.1L1430.8,142.5z M1534,143.9l-0.6,1l-5,9.4h2
					c2.2,0,5-1.8,6.2-4l3.4-6.4c0.9-1.7,0.2-3-1.4-3C1537,140.9,1534.9,142.3,1534,143.9z M1522.8,165l-5.4,10.2
					c-1.5,2.8-4.9,5-7.7,5h-6.7l14.4-27.1l4.4-8.2c6.2-12.1,13.7-14.7,22.5-14.7c10,0,11.3,6.6,6.9,14.8l-0.3,0.6l-3.8,7.1l-0.2,0.5
					c-3.6,6.7-13.1,12.2-21.3,12.2C1524.6,165.2,1523.7,165.1,1522.8,165z"/>
			</g>
		</g>
	</g>
</g>
</svg>
