<?xml version="1.0" encoding="utf-8"?>
<!-- Generator: Adobe Illustrator 23.0.1, SVG Export Plug-In . SVG Version: 6.00 Build 0)  -->
<!DOCTYPE svg PUBLIC "-//W3C//DTD SVG 1.1//EN" "http://www.w3.org/Graphics/SVG/1.1/DTD/svg11.dtd" [
	<!ENTITY ns_extend "http://ns.adobe.com/Extensibility/1.0/">
	<!ENTITY ns_ai "http://ns.adobe.com/AdobeIllustrator/10.0/">
	<!ENTITY ns_graphs "http://ns.adobe.com/Graphs/1.0/">
	<!ENTITY ns_vars "http://ns.adobe.com/Variables/1.0/">
	<!ENTITY ns_imrep "http://ns.adobe.com/ImageReplacement/1.0/">
	<!ENTITY ns_sfw "http://ns.adobe.com/SaveForWeb/1.0/">
	<!ENTITY ns_custom "http://ns.adobe.com/GenericCustomNamespace/1.0/">
	<!ENTITY ns_adobe_xpath "http://ns.adobe.com/XPath/1.0/">
]>
<svg version="1.1"
	 id="svg4708" xmlns:x="&ns_extend;" xmlns:i="&ns_ai;" xmlns:graph="&ns_graphs;" xmlns:cc="http://creativecommons.org/ns#" xmlns:dc="http://purl.org/dc/elements/1.1/" xmlns:inkscape="http://www.inkscape.org/namespaces/inkscape" xmlns:rdf="http://www.w3.org/1999/02/22-rdf-syntax-ns#" xmlns:sodipodi="http://sodipodi.sourceforge.net/DTD/sodipodi-0.dtd" xmlns:svg="http://www.w3.org/2000/svg"
	 xmlns="http://www.w3.org/2000/svg" xmlns:xlink="http://www.w3.org/1999/xlink" x="0px" y="0px" viewBox="0 0 970.7 272"
	 enable-background="new 0 0 970.7 272" xml:space="preserve">
<metadata>
	<sfw  xmlns="&ns_sfw;">
		<slices></slices>
		<sliceSourceBounds  bottomLeftOrigin="true" height="272" width="970.7" x="-146.8" y="-40.7"></sliceSourceBounds>
	</sfw>
</metadata>
<g>
	<g>
		<path fill="#FFFFFF" d="M454.6,0H18.1C8.1,0,0,8.1,0,18.1v235.7c0,10,8.1,18.1,18.1,18.1h436.4V0"/>
		<path fill="#9D9D9C" d="M18.1,272h439.3v-5.7H18.1c-6.9,0-12.5-5.6-12.5-12.5V18.1c0-6.9,5.6-12.5,12.5-12.5h439.3V0H18.1
			C8.1,0,0,8.1,0,18.1v235.7C0,263.9,8.1,272,18.1,272"/>
		<path fill="#0181DF" d="M952.6,0H452.7v272h499.9c10,0,18.1-8.2,18.1-18.1V18.1C970.7,8.1,962.6,0,952.6,0"/>
		<path fill="#0181DF" d="M306,242c2.9,1.5,8.9,3.3,16.4,3.5c12.9,0.3,20-4.7,25.2-16.2l69.3-154.6c-2.8-1.6-9.2-3.2-14.4-3.4
			c-8.9-0.2-20.9,1.6-28.5,19.9l-22.4,53l-44-71.7c-2.8-0.9-9.8-2.1-14.9-2.1c-15.5,0-24.2,5.7-33.2,15.5l-42.8,46.8l34.4,54.2
			c6.3,9.9,14.8,14.9,28.4,14.9c8.9,0,16.3-2,19.7-3.7l-41.4-62.5l29.4-31.1l48.2,75.6L306,242 M215.1,183.5c0,11.4-4.5,18-26.7,18
			c-2.9,0-5.5-0.2-8-0.6V49.7c0-11.5,3.9-23.5,26.4-23.5l8.3,0.9V183.5 M169.2,160.7c0,21.2-13.9,36.8-42.1,39.8
			c-20.5,2.2-50-0.4-64.1-2l-0.9-7.4c0-18.6,10.1-22.8,19.5-22.8c9.8,0,25.2,1.7,36.6,1.7c12.6,0,16.4-4.3,16.4-8.3
			c0-5.3-5.1-7.6-14.9-9.5L93,147.1c-22.3-4.3-34.1-19.7-34.1-36c0-19.9,14-36.5,41.7-39.6c20.9-2.3,46.4,0.3,60.3,2l0.8,7.2
			c0,18.5-9.8,22.5-19.2,22.5c-7.3,0-18.5-1.3-31.3-1.3c-13,0-18.5,3.6-18.5,8c0,4.6,5.1,6.5,13.3,8l25.6,4.8
			C157.9,127.4,169.2,142.3,169.2,160.7"/>
		<path fill="#FFFFFF" d="M647.2,199.1V73c2.1-0.5,6.3-1,10.3-1c8.2,0,10.8,3.4,10.8,8.4v9.3c9.8-10.8,24.1-19.3,42.8-19.3
			c25.9,0,47.3,16.4,47.3,53.9V192c0,5-2.9,8.2-11.6,8.2c-3.7,0-7.9-0.5-10.1-1v-71.9c0-25.4-12.4-37.5-31.2-37.5
			c-14.8,0-30.4,10-37,21.9V192c0,5-2.7,8.2-11.4,8.2C653.6,200.2,649.4,199.7,647.2,199.1 M890,135.9c0,28.8-19.5,46.7-43.3,46.7
			c-23.5,0-43.1-18-43.1-46.7c0-28.8,19.6-46.4,43.1-46.4C870.4,89.4,890,107.1,890,135.9 M781.7,135.9c0,37.5,27.7,66,65,66
			c37.5,0,65.2-28.5,65.2-66c0-37.5-27.7-65.5-65.2-65.5C809.5,70.4,781.7,98.4,781.7,135.9 M618.3,72.9c-2.1-0.5-6.3-1.1-10-1.1
			c-8.7,0-11.4,3.2-11.4,8.2v80.4c-6.6,11.9-22.2,21.9-37,21.9c-18.8,0-31.2-12.2-31.2-37.5V72.9c-2.1-0.5-6.3-1.1-10-1.1
			c-8.7,0-11.7,3.2-11.7,8.2v67.7c0,37.5,21.4,53.9,47.3,53.9c18.8,0,33-8.5,42.9-19.3v9.2c0,5,2.6,8.5,10.8,8.5
			c4,0,8.2-0.5,10.3-1.1V72.9"/>
	</g>
	<path opacity="0.2" fill="#FFFFFF" d="M952.6,0H18.1C8.1,0,0,8.1,0,18.1v164.2c0-6.2,2.1-12,5.7-16.6c4.8-6.2,12.1-10.2,20.5-10.6
		l944.6-37.7V18.1C970.7,8.1,962.6,0,952.6,0z"/>
</g>
</svg>
